M48
; DRILL file {KiCad 7.0.8} date Fri Jan 10 13:03:07 2025
; FORMAT={-:-/ absolute / metric / decimal}
; #@! TF.CreationDate,2025-01-10T13:03:07+01:00
; #@! TF.GenerationSoftware,Kicad,Pcbnew,7.0.8
; #@! TF.FileFunction,MixedPlating,1,2
FMAT,2
METRIC
; #@! TA.AperFunction,Plated,PTH,ViaDrill
T1C0.400
; #@! TA.AperFunction,Plated,PTH,ComponentDrill
T2C0.600
; #@! TA.AperFunction,Plated,PTH,ComponentDrill
T3C0.750
; #@! TA.AperFunction,Plated,PTH,ComponentDrill
T4C0.800
; #@! TA.AperFunction,Plated,PTH,ComponentDrill
T5C1.000
; #@! TA.AperFunction,Plated,PTH,ComponentDrill
T6C1.500
; #@! TA.AperFunction,Plated,PTH,ComponentDrill
T7C3.200
%
G90
G05
T1
X117.3Y-62.9
X117.3Y-64.3
X117.3Y-65.7
X117.4Y-76.3
X119.1Y-62.9
X119.1Y-64.3
X119.1Y-65.7
X120.5Y-76.3
X120.9Y-62.9
X120.9Y-64.3
X120.9Y-65.7
X123.1Y-59.9
X123.1Y-61.4
X123.1Y-62.9
X124.3Y-48.8
X124.6Y-52.4
X125.3Y-59.9
X125.6Y-53.1
X125.9Y-52.0
X126.7Y-59.2
X127.1Y-53.1
X127.9Y-52.1
X129.3Y-52.1
X129.4Y-58.8
X129.4Y-60.5
X130.1Y-53.1
X131.5Y-57.7
X131.7Y-53.0
X132.9Y-48.8
X134.4Y-53.6
X134.4Y-55.1
X134.4Y-57.8
X135.8Y-53.6
X136.5Y-76.0
X137.2Y-53.6
X137.9Y-49.3
X137.9Y-55.0
X137.9Y-57.6
X140.1Y-76.7
X140.12Y-71.4
X143.0Y-60.2
X143.4Y-62.4
X143.8Y-67.4
X145.1Y-75.3
X147.1Y-73.6
X147.1Y-77.1
X147.6Y-57.2
X148.6Y-71.8
X148.6Y-75.3
X148.8Y-62.4
X149.9Y-57.2
X150.2Y-53.0
X150.2Y-64.0
X150.2Y-65.2
X150.2Y-66.4
X150.5Y-70.1
X150.6Y-60.6
X150.6Y-73.6
X150.6Y-77.1
X151.0Y-56.3
X151.2Y-50.9
X151.2Y-52.3
X151.2Y-53.7
X151.5Y-61.9
X151.9Y-71.8
X151.9Y-75.3
X152.1Y-64.9
X152.2Y-51.8
X152.2Y-53.1
X152.2Y-54.5
X153.2Y-60.7
X153.8Y-54.5
X153.9Y-73.6
X153.9Y-77.1
X154.1Y-49.0
X155.0Y-57.0
X155.4Y-58.5
X157.3Y-77.1
X159.9Y-55.4
X160.2Y-64.9
T3
X118.6Y-69.0
X118.6Y-71.0
T4
X123.1Y-57.59
X123.1Y-65.21
T5
X156.3Y-68.6
X156.3Y-71.14
X156.3Y-73.68
T6
X127.508Y-63.097
X147.3Y-68.4
T7
X119.6Y-51.6
X125.0Y-74.6
X157.5Y-51.6
T2
G00X124.28Y-50.247
M15
G01X124.28Y-50.847
M16
G05
G00X124.28Y-54.047
M15
G01X124.28Y-54.648
M16
G05
G00X132.92Y-50.247
M15
G01X132.92Y-50.847
M16
G05
G00X132.92Y-54.047
M15
G01X132.92Y-54.648
M16
G05
T0
M30
