%TF.GenerationSoftware,KiCad,Pcbnew,7.0.8*%
%TF.CreationDate,2025-01-10T13:03:08+01:00*%
%TF.ProjectId,LIR2032-charger,4c495232-3033-4322-9d63-686172676572,rev?*%
%TF.SameCoordinates,Original*%
%TF.FileFunction,Copper,L1,Top*%
%TF.FilePolarity,Positive*%
%FSLAX46Y46*%
G04 Gerber Fmt 4.6, Leading zero omitted, Abs format (unit mm)*
G04 Created by KiCad (PCBNEW 7.0.8) date 2025-01-10 13:03:08*
%MOMM*%
%LPD*%
G01*
G04 APERTURE LIST*
G04 Aperture macros list*
%AMRoundRect*
0 Rectangle with rounded corners*
0 $1 Rounding radius*
0 $2 $3 $4 $5 $6 $7 $8 $9 X,Y pos of 4 corners*
0 Add a 4 corners polygon primitive as box body*
4,1,4,$2,$3,$4,$5,$6,$7,$8,$9,$2,$3,0*
0 Add four circle primitives for the rounded corners*
1,1,$1+$1,$2,$3*
1,1,$1+$1,$4,$5*
1,1,$1+$1,$6,$7*
1,1,$1+$1,$8,$9*
0 Add four rect primitives between the rounded corners*
20,1,$1+$1,$2,$3,$4,$5,0*
20,1,$1+$1,$4,$5,$6,$7,0*
20,1,$1+$1,$6,$7,$8,$9,0*
20,1,$1+$1,$8,$9,$2,$3,0*%
%AMRotRect*
0 Rectangle, with rotation*
0 The origin of the aperture is its center*
0 $1 length*
0 $2 width*
0 $3 Rotation angle, in degrees counterclockwise*
0 Add horizontal line*
21,1,$1,$2,0,0,$3*%
G04 Aperture macros list end*
%TA.AperFunction,ComponentPad*%
%ADD10R,1.700000X1.700000*%
%TD*%
%TA.AperFunction,ComponentPad*%
%ADD11O,1.700000X1.700000*%
%TD*%
%TA.AperFunction,SMDPad,CuDef*%
%ADD12RoundRect,0.100000X-0.637500X-0.100000X0.637500X-0.100000X0.637500X0.100000X-0.637500X0.100000X0*%
%TD*%
%TA.AperFunction,SMDPad,CuDef*%
%ADD13RoundRect,0.200000X0.275000X-0.200000X0.275000X0.200000X-0.275000X0.200000X-0.275000X-0.200000X0*%
%TD*%
%TA.AperFunction,SMDPad,CuDef*%
%ADD14RoundRect,0.200000X-0.275000X0.200000X-0.275000X-0.200000X0.275000X-0.200000X0.275000X0.200000X0*%
%TD*%
%TA.AperFunction,SMDPad,CuDef*%
%ADD15RoundRect,0.250000X-0.262500X-0.450000X0.262500X-0.450000X0.262500X0.450000X-0.262500X0.450000X0*%
%TD*%
%TA.AperFunction,ComponentPad*%
%ADD16C,5.600000*%
%TD*%
%TA.AperFunction,SMDPad,CuDef*%
%ADD17RoundRect,0.150000X-0.587500X-0.150000X0.587500X-0.150000X0.587500X0.150000X-0.587500X0.150000X0*%
%TD*%
%TA.AperFunction,SMDPad,CuDef*%
%ADD18RoundRect,0.243750X0.456250X-0.243750X0.456250X0.243750X-0.456250X0.243750X-0.456250X-0.243750X0*%
%TD*%
%TA.AperFunction,SMDPad,CuDef*%
%ADD19RoundRect,0.225000X-0.250000X0.225000X-0.250000X-0.225000X0.250000X-0.225000X0.250000X0.225000X0*%
%TD*%
%TA.AperFunction,SMDPad,CuDef*%
%ADD20RoundRect,0.150000X0.150000X-0.587500X0.150000X0.587500X-0.150000X0.587500X-0.150000X-0.587500X0*%
%TD*%
%TA.AperFunction,SMDPad,CuDef*%
%ADD21RoundRect,0.250000X0.362500X1.425000X-0.362500X1.425000X-0.362500X-1.425000X0.362500X-1.425000X0*%
%TD*%
%TA.AperFunction,SMDPad,CuDef*%
%ADD22RoundRect,0.150000X0.512500X0.150000X-0.512500X0.150000X-0.512500X-0.150000X0.512500X-0.150000X0*%
%TD*%
%TA.AperFunction,SMDPad,CuDef*%
%ADD23RoundRect,0.250000X0.262500X0.450000X-0.262500X0.450000X-0.262500X-0.450000X0.262500X-0.450000X0*%
%TD*%
%TA.AperFunction,SMDPad,CuDef*%
%ADD24RoundRect,0.250000X0.475000X-0.250000X0.475000X0.250000X-0.475000X0.250000X-0.475000X-0.250000X0*%
%TD*%
%TA.AperFunction,SMDPad,CuDef*%
%ADD25RoundRect,0.200000X0.200000X0.275000X-0.200000X0.275000X-0.200000X-0.275000X0.200000X-0.275000X0*%
%TD*%
%TA.AperFunction,SMDPad,CuDef*%
%ADD26RoundRect,0.075000X-0.575000X-0.075000X0.575000X-0.075000X0.575000X0.075000X-0.575000X0.075000X0*%
%TD*%
%TA.AperFunction,SMDPad,CuDef*%
%ADD27RoundRect,0.250000X-0.400000X-0.250000X0.400000X-0.250000X0.400000X0.250000X-0.400000X0.250000X0*%
%TD*%
%TA.AperFunction,SMDPad,CuDef*%
%ADD28RoundRect,0.162500X-0.825000X-0.162500X0.825000X-0.162500X0.825000X0.162500X-0.825000X0.162500X0*%
%TD*%
%TA.AperFunction,SMDPad,CuDef*%
%ADD29RoundRect,0.250000X-0.250000X-0.475000X0.250000X-0.475000X0.250000X0.475000X-0.250000X0.475000X0*%
%TD*%
%TA.AperFunction,SMDPad,CuDef*%
%ADD30RoundRect,0.250000X0.625000X-0.375000X0.625000X0.375000X-0.625000X0.375000X-0.625000X-0.375000X0*%
%TD*%
%TA.AperFunction,ComponentPad*%
%ADD31RotRect,3.000000X3.000000X345.000000*%
%TD*%
%TA.AperFunction,ComponentPad*%
%ADD32C,3.000000*%
%TD*%
%TA.AperFunction,ComponentPad*%
%ADD33C,1.600000*%
%TD*%
%TA.AperFunction,ComponentPad*%
%ADD34O,1.600000X1.600000*%
%TD*%
%TA.AperFunction,ComponentPad*%
%ADD35O,1.100000X1.700000*%
%TD*%
%TA.AperFunction,ComponentPad*%
%ADD36RoundRect,0.250000X-0.625000X0.350000X-0.625000X-0.350000X0.625000X-0.350000X0.625000X0.350000X0*%
%TD*%
%TA.AperFunction,ComponentPad*%
%ADD37O,1.750000X1.200000*%
%TD*%
%TA.AperFunction,ViaPad*%
%ADD38C,0.800000*%
%TD*%
%TA.AperFunction,Conductor*%
%ADD39C,0.500000*%
%TD*%
%TA.AperFunction,Conductor*%
%ADD40C,0.300000*%
%TD*%
G04 APERTURE END LIST*
D10*
%TO.P,J3,1,Pin_1*%
%TO.N,GND*%
X156300000Y-73680000D03*
D11*
%TO.P,J3,2,Pin_2*%
%TO.N,VCC*%
X156300000Y-71140000D03*
%TO.P,J3,3,Pin_3*%
X156300000Y-68600000D03*
%TD*%
D12*
%TO.P,U3,1,D12*%
%TO.N,unconnected-(U3-D12-Pad1)*%
X132137500Y-72625000D03*
%TO.P,U3,2,S1*%
%TO.N,-BATT*%
X132137500Y-73275000D03*
%TO.P,U3,3,S1*%
X132137500Y-73925000D03*
%TO.P,U3,4,G1*%
%TO.N,Net-(U2-OD)*%
X132137500Y-74575000D03*
%TO.P,U3,5,G2*%
%TO.N,Net-(U2-OC)*%
X137862500Y-74575000D03*
%TO.P,U3,6,S2*%
%TO.N,GND*%
X137862500Y-73925000D03*
%TO.P,U3,7,S2*%
X137862500Y-73275000D03*
%TO.P,U3,8,D12*%
%TO.N,unconnected-(U3-D12-Pad1)*%
X137862500Y-72625000D03*
%TD*%
D13*
%TO.P,R3,1*%
%TO.N,Net-(U2-VCC)*%
X134500000Y-63025000D03*
%TO.P,R3,2*%
%TO.N,Net-(Q1-S)*%
X134500000Y-61375000D03*
%TD*%
D14*
%TO.P,R8,1*%
%TO.N,Net-(D3-K)*%
X148700000Y-54375000D03*
%TO.P,R8,2*%
%TO.N,Net-(U1-STDBY)*%
X148700000Y-56025000D03*
%TD*%
D15*
%TO.P,R11,1*%
%TO.N,Net-(J4-CC2)*%
X129487500Y-49500000D03*
%TO.P,R11,2*%
%TO.N,GND*%
X131312500Y-49500000D03*
%TD*%
D14*
%TO.P,R9,1*%
%TO.N,Net-(U1-PROG)*%
X128000000Y-57575000D03*
%TO.P,R9,2*%
%TO.N,GND*%
X128000000Y-59225000D03*
%TD*%
D16*
%TO.P,H3,1*%
%TO.N,N/C*%
X125000000Y-74600000D03*
%TD*%
D17*
%TO.P,Q1,1,G*%
%TO.N,Net-(Q1-G)*%
X146000000Y-58450000D03*
%TO.P,Q1,2,S*%
%TO.N,Net-(Q1-S)*%
X146000000Y-60350000D03*
%TO.P,Q1,3,D*%
%TO.N,Net-(Q1-D)*%
X147875000Y-59400000D03*
%TD*%
D18*
%TO.P,D3,1,K*%
%TO.N,Net-(D3-K)*%
X148700000Y-51237500D03*
%TO.P,D3,2,A*%
%TO.N,Net-(D2-A)*%
X148700000Y-49362500D03*
%TD*%
D14*
%TO.P,R6,1*%
%TO.N,Net-(D2-K)*%
X144900000Y-54375000D03*
%TO.P,R6,2*%
%TO.N,Net-(U1-CHRG)*%
X144900000Y-56025000D03*
%TD*%
D19*
%TO.P,C4,1*%
%TO.N,Net-(U4-VCC)*%
X142600000Y-63725000D03*
%TO.P,C4,2*%
%TO.N,-BATT*%
X142600000Y-65275000D03*
%TD*%
D18*
%TO.P,D2,1,K*%
%TO.N,Net-(D2-K)*%
X144900000Y-51237500D03*
%TO.P,D2,2,A*%
%TO.N,Net-(D2-A)*%
X144900000Y-49362500D03*
%TD*%
D16*
%TO.P,H1,1*%
%TO.N,N/C*%
X157500000Y-51600000D03*
%TD*%
D14*
%TO.P,R7,1*%
%TO.N,Net-(U2-VM)*%
X141800000Y-69175000D03*
%TO.P,R7,2*%
%TO.N,GND*%
X141800000Y-70825000D03*
%TD*%
D20*
%TO.P,Q2,1,G*%
%TO.N,Net-(Q1-G)*%
X153250000Y-62937500D03*
%TO.P,Q2,2,S*%
%TO.N,VCC*%
X155150000Y-62937500D03*
%TO.P,Q2,3,D*%
%TO.N,Net-(Q1-D)*%
X154200000Y-61062500D03*
%TD*%
D21*
%TO.P,R2,1*%
%TO.N,Net-(D2-A)*%
X141637500Y-50500000D03*
%TO.P,R2,2*%
%TO.N,VBUS*%
X135712500Y-50500000D03*
%TD*%
D19*
%TO.P,C3,1*%
%TO.N,Net-(U2-VCC)*%
X134500000Y-67325000D03*
%TO.P,C3,2*%
%TO.N,-BATT*%
X134500000Y-68875000D03*
%TD*%
D22*
%TO.P,U2,1,OD*%
%TO.N,Net-(U2-OD)*%
X139537500Y-68850000D03*
%TO.P,U2,2,VM*%
%TO.N,Net-(U2-VM)*%
X139537500Y-67900000D03*
%TO.P,U2,3,OC*%
%TO.N,Net-(U2-OC)*%
X139537500Y-66950000D03*
%TO.P,U2,4,TD*%
%TO.N,unconnected-(U2-TD-Pad4)*%
X137262500Y-66950000D03*
%TO.P,U2,5,VCC*%
%TO.N,Net-(U2-VCC)*%
X137262500Y-67900000D03*
%TO.P,U2,6,GND*%
%TO.N,-BATT*%
X137262500Y-68850000D03*
%TD*%
D23*
%TO.P,R12,1*%
%TO.N,Net-(J4-CC1)*%
X127712500Y-49500000D03*
%TO.P,R12,2*%
%TO.N,GND*%
X125887500Y-49500000D03*
%TD*%
D24*
%TO.P,C2,1*%
%TO.N,Net-(D2-A)*%
X133000000Y-59450000D03*
%TO.P,C2,2*%
%TO.N,GND*%
X133000000Y-57550000D03*
%TD*%
D25*
%TO.P,R1,1*%
%TO.N,Net-(D2-A)*%
X139500000Y-50500000D03*
%TO.P,R1,2*%
%TO.N,VBUS*%
X137850000Y-50500000D03*
%TD*%
D16*
%TO.P,H2,1*%
%TO.N,N/C*%
X119600000Y-51600000D03*
%TD*%
D26*
%TO.P,U4,1,VCC*%
%TO.N,Net-(U4-VCC)*%
X145200000Y-63700000D03*
%TO.P,U4,2,BGND*%
%TO.N,-BATT*%
X145200000Y-64230000D03*
%TO.P,U4,3,BGND*%
X145200000Y-65500000D03*
D27*
%TO.P,U4,4,GND*%
%TO.N,GND*%
X148800000Y-65200000D03*
%TO.P,U4,5,GND*%
X148800000Y-64000000D03*
%TD*%
D28*
%TO.P,U1,1,TEMP*%
%TO.N,GND*%
X136162500Y-55095000D03*
%TO.P,U1,2,PROG*%
%TO.N,Net-(U1-PROG)*%
X136162500Y-56365000D03*
%TO.P,U1,3,GND*%
%TO.N,GND*%
X136162500Y-57635000D03*
%TO.P,U1,4,VCC*%
%TO.N,Net-(D2-A)*%
X136162500Y-58905000D03*
%TO.P,U1,5,BAT*%
%TO.N,Net-(Q1-S)*%
X141237500Y-58905000D03*
%TO.P,U1,6,STDBY*%
%TO.N,Net-(U1-STDBY)*%
X141237500Y-57635000D03*
%TO.P,U1,7,CHRG*%
%TO.N,Net-(U1-CHRG)*%
X141237500Y-56365000D03*
%TO.P,U1,8,CE*%
%TO.N,Net-(D2-A)*%
X141237500Y-55095000D03*
%TD*%
D13*
%TO.P,R5,1*%
%TO.N,Net-(Q1-G)*%
X157300000Y-57425000D03*
%TO.P,R5,2*%
%TO.N,VBUS*%
X157300000Y-55775000D03*
%TD*%
D29*
%TO.P,C1,1*%
%TO.N,Net-(Q1-S)*%
X139850000Y-61400000D03*
%TO.P,C1,2*%
%TO.N,GND*%
X141750000Y-61400000D03*
%TD*%
D13*
%TO.P,R4,1*%
%TO.N,Net-(U4-VCC)*%
X137300000Y-63025000D03*
%TO.P,R4,2*%
%TO.N,Net-(Q1-S)*%
X137300000Y-61375000D03*
%TD*%
D25*
%TO.P,R10,1*%
%TO.N,VBUS*%
X153825000Y-55800000D03*
%TO.P,R10,2*%
%TO.N,GND*%
X152175000Y-55800000D03*
%TD*%
D30*
%TO.P,F1,1*%
%TO.N,+BATT*%
X131400000Y-64700000D03*
%TO.P,F1,2*%
%TO.N,Net-(Q1-S)*%
X131400000Y-61900000D03*
%TD*%
D31*
%TO.P,J1,1,Pin_1*%
%TO.N,+BATT*%
X127508180Y-63096798D03*
D32*
%TO.P,J1,2,Pin_2*%
%TO.N,-BATT*%
X147300000Y-68400000D03*
%TD*%
D33*
%TO.P,R13,1*%
%TO.N,Net-(U1-PROG)*%
X123100000Y-57590000D03*
D34*
%TO.P,R13,2*%
%TO.N,GND*%
X123100000Y-65210000D03*
%TD*%
D35*
%TO.P,J4,S1,SHIELD*%
%TO.N,unconnected-(J4-SHIELD-PadS1)*%
X124280000Y-50547500D03*
X124280000Y-54347500D03*
X132920000Y-50547500D03*
X132920000Y-54347500D03*
%TD*%
D36*
%TO.P,J2,1,Pin_1*%
%TO.N,+BATT*%
X118600000Y-69000000D03*
D37*
%TO.P,J2,2,Pin_2*%
%TO.N,-BATT*%
X118600000Y-71000000D03*
%TD*%
D38*
%TO.N,GND*%
X140100000Y-76700000D03*
X136500000Y-76000000D03*
X143800000Y-67400000D03*
X137900000Y-57600000D03*
X129400000Y-60500000D03*
X125300000Y-59900000D03*
X123100000Y-59900000D03*
X123100000Y-61400000D03*
X123100000Y-62900000D03*
X120500000Y-76300000D03*
X117400000Y-76300000D03*
X157300000Y-77100000D03*
X160200000Y-64900000D03*
X159900000Y-55400000D03*
X154100000Y-49000000D03*
X152100000Y-64900000D03*
X151500000Y-61900000D03*
X150600000Y-60600000D03*
X153900000Y-73600000D03*
X117300000Y-62900000D03*
X150600000Y-77100000D03*
X147100000Y-73600000D03*
X150200000Y-64000000D03*
X129400000Y-58800000D03*
X150200000Y-53000000D03*
X152200000Y-54500000D03*
X119100000Y-64300000D03*
X150200000Y-65200000D03*
X126700000Y-59200000D03*
X124300000Y-48800000D03*
X151200000Y-52300000D03*
X151200000Y-53700000D03*
X124600000Y-52400000D03*
X151900000Y-71800000D03*
X143400000Y-62400000D03*
X137900000Y-55000000D03*
X119100000Y-62900000D03*
X131500000Y-57700000D03*
X148800000Y-62400000D03*
X150500000Y-70100000D03*
X148600000Y-71800000D03*
X147100000Y-77100000D03*
X119100000Y-65700000D03*
X125600000Y-53100000D03*
X155000000Y-57000000D03*
X134400000Y-55100000D03*
X140120000Y-71400000D03*
X134400000Y-57800000D03*
X135800000Y-53600000D03*
X137200000Y-53600000D03*
X117300000Y-64300000D03*
X125900000Y-52000000D03*
X143000000Y-60200000D03*
X120900000Y-65700000D03*
X147600000Y-57200000D03*
X151200000Y-50900000D03*
X148600000Y-75300000D03*
X149900000Y-57200000D03*
X120900000Y-64300000D03*
X134400000Y-53600000D03*
X152200000Y-53100000D03*
X145100000Y-75300000D03*
X117300000Y-65700000D03*
X150600000Y-73600000D03*
X151900000Y-75300000D03*
X131700000Y-53000000D03*
X120900000Y-62900000D03*
X151000000Y-56300000D03*
X132900000Y-48800000D03*
X153900000Y-77100000D03*
X150200000Y-66400000D03*
X152200000Y-51800000D03*
%TO.N,VBUS*%
X153800000Y-54500000D03*
X137900000Y-49300000D03*
X130100000Y-53100000D03*
X127100000Y-53100000D03*
%TO.N,Net-(Q1-G)*%
X155400000Y-58500000D03*
X153200000Y-60700000D03*
%TO.N,Net-(J4-CC1)*%
X127900000Y-52100000D03*
%TO.N,Net-(J4-CC2)*%
X129300000Y-52100000D03*
%TD*%
D39*
%TO.N,VCC*%
X156300000Y-68600000D02*
X156300000Y-71140000D01*
%TO.N,Net-(D2-A)*%
X138907114Y-58292900D02*
G75*
G03*
X139200000Y-57585786I-707114J707100D01*
G01*
X137880786Y-58904990D02*
G75*
G03*
X138587893Y-58612107I14J999990D01*
G01*
X139492886Y-55407100D02*
G75*
G03*
X139200000Y-56114214I707114J-707100D01*
G01*
X140219214Y-55095010D02*
G75*
G03*
X139512107Y-55387893I-14J-999990D01*
G01*
X137880786Y-58905000D02*
X136162500Y-58905000D01*
X139512107Y-55387893D02*
X139492893Y-55407107D01*
X141237500Y-55095000D02*
X140219214Y-55095000D01*
X139200000Y-56114214D02*
X139200000Y-57585786D01*
X138907107Y-58292893D02*
X138587893Y-58612107D01*
D40*
%TO.N,Net-(Q1-S)*%
X142790786Y-58905000D02*
X141237500Y-58905000D01*
X139977842Y-59022158D02*
X139967157Y-59032843D01*
X144357107Y-60057107D02*
X143497893Y-59197893D01*
X146000000Y-60350000D02*
X145064214Y-60350000D01*
X139825000Y-61375000D02*
X139850000Y-61400000D01*
X137300000Y-61375000D02*
X134500000Y-61375000D01*
X133532107Y-61375000D02*
X134500000Y-61375000D01*
X139850000Y-59315685D02*
X139850000Y-61400000D01*
X141237500Y-58905000D02*
X140260685Y-58905000D01*
X133092893Y-61607107D02*
X133178554Y-61521446D01*
X137300000Y-61375000D02*
X139825000Y-61375000D01*
X131400000Y-61900000D02*
X132385786Y-61900000D01*
X132385786Y-61899990D02*
G75*
G03*
X133092893Y-61607107I14J999990D01*
G01*
X140260685Y-58904990D02*
G75*
G03*
X139977842Y-59022158I15J-400010D01*
G01*
X133532107Y-61375005D02*
G75*
G03*
X133178554Y-61521446I-7J-499995D01*
G01*
X144357100Y-60057114D02*
G75*
G03*
X145064214Y-60350000I707100J707114D01*
G01*
X139967164Y-59032850D02*
G75*
G03*
X139850000Y-59315685I282836J-282850D01*
G01*
X143497900Y-59197886D02*
G75*
G03*
X142790786Y-58905000I-707100J-707114D01*
G01*
D39*
%TO.N,Net-(D2-A)*%
X141383947Y-53416053D02*
X141491054Y-53308946D01*
D40*
X144900000Y-49362500D02*
X144151714Y-49362500D01*
D39*
X141637500Y-52955393D02*
X141637500Y-50500000D01*
X141237500Y-55095000D02*
X141237500Y-53769607D01*
D40*
X142185786Y-50500000D02*
X141637500Y-50500000D01*
X136162500Y-58905000D02*
X135302107Y-58905000D01*
X134342893Y-59450000D02*
X133000000Y-59450000D01*
X143444607Y-49655393D02*
X142892893Y-50207107D01*
X148700000Y-49362500D02*
X144900000Y-49362500D01*
X134948553Y-59051447D02*
X134696446Y-59303554D01*
D39*
X139500000Y-50500000D02*
X141637500Y-50500000D01*
D40*
X144151714Y-49362510D02*
G75*
G03*
X143444607Y-49655393I-14J-999990D01*
G01*
D39*
X141383944Y-53416050D02*
G75*
G03*
X141237500Y-53769607I353556J-353550D01*
G01*
D40*
X135302107Y-58905005D02*
G75*
G03*
X134948553Y-59051447I-7J-499995D01*
G01*
D39*
X141491057Y-53308949D02*
G75*
G03*
X141637500Y-52955393I-353557J353549D01*
G01*
D40*
X142185786Y-50499990D02*
G75*
G03*
X142892893Y-50207107I14J999990D01*
G01*
X134342893Y-59449995D02*
G75*
G03*
X134696446Y-59303554I7J499995D01*
G01*
%TO.N,Net-(U2-VCC)*%
X135865685Y-67665685D02*
X135759314Y-67559314D01*
X135193629Y-67325000D02*
X134500000Y-67325000D01*
X137262500Y-67900000D02*
X136431371Y-67900000D01*
X134500000Y-67325000D02*
X134500000Y-63025000D01*
X135759299Y-67559329D02*
G75*
G03*
X135193629Y-67325000I-565699J-565671D01*
G01*
X135865700Y-67665670D02*
G75*
G03*
X136431371Y-67900000I565700J565670D01*
G01*
%TO.N,-BATT*%
X138342893Y-68557107D02*
X138400000Y-68500000D01*
X145200000Y-65500000D02*
X142825000Y-65500000D01*
X137262500Y-68850000D02*
X137635786Y-68850000D01*
X132137500Y-73925000D02*
X132137500Y-73275000D01*
X142825000Y-65500000D02*
X142600000Y-65275000D01*
X126257359Y-71000000D02*
X118600000Y-71000000D01*
X145492893Y-66592893D02*
X147300000Y-68400000D01*
X137262500Y-68850000D02*
X134525000Y-68850000D01*
X128896320Y-72396320D02*
X128378679Y-71878679D01*
X145200000Y-64230000D02*
X145200000Y-65500000D01*
X134525000Y-68850000D02*
X134500000Y-68875000D01*
X139539214Y-65275000D02*
X142600000Y-65275000D01*
X132137500Y-73275000D02*
X131017641Y-73275000D01*
X134500000Y-72485786D02*
X134500000Y-68875000D01*
X134207107Y-73192893D02*
X133767893Y-73632107D01*
X138400000Y-68500000D02*
X138400000Y-66414214D01*
X138692893Y-65707107D02*
X138832107Y-65567893D01*
X133060786Y-73925000D02*
X132137500Y-73925000D01*
X145200000Y-65500000D02*
X145200000Y-65885786D01*
X128378699Y-71878659D02*
G75*
G03*
X126257359Y-71000000I-2121299J-2121341D01*
G01*
X137635786Y-68849990D02*
G75*
G03*
X138342893Y-68557107I14J999990D01*
G01*
X133060786Y-73924990D02*
G75*
G03*
X133767893Y-73632107I14J999990D01*
G01*
X145200010Y-65885786D02*
G75*
G03*
X145492893Y-66592893I999990J-14D01*
G01*
X134207114Y-73192900D02*
G75*
G03*
X134500000Y-72485786I-707114J707100D01*
G01*
X138692886Y-65707100D02*
G75*
G03*
X138400000Y-66414214I707114J-707100D01*
G01*
X139539214Y-65275010D02*
G75*
G03*
X138832107Y-65567893I-14J-999990D01*
G01*
X128896300Y-72396340D02*
G75*
G03*
X131017641Y-73275000I2121300J2121340D01*
G01*
%TO.N,Net-(U4-VCC)*%
X138610786Y-63025000D02*
X137300000Y-63025000D01*
X142600000Y-63725000D02*
X140139214Y-63725000D01*
X145200000Y-63700000D02*
X142625000Y-63700000D01*
X139432107Y-63432107D02*
X139317893Y-63317893D01*
X142625000Y-63700000D02*
X142600000Y-63725000D01*
X139317900Y-63317886D02*
G75*
G03*
X138610786Y-63025000I-707100J-707114D01*
G01*
X139432100Y-63432114D02*
G75*
G03*
X140139214Y-63725000I707100J707114D01*
G01*
D39*
%TO.N,VCC*%
X155442893Y-65742893D02*
X156007107Y-66307107D01*
X155150000Y-62937500D02*
X155150000Y-65035786D01*
X156300000Y-67014214D02*
X156300000Y-68560000D01*
X155150010Y-65035786D02*
G75*
G03*
X155442893Y-65742893I999990J-14D01*
G01*
X156299990Y-67014214D02*
G75*
G03*
X156007107Y-66307107I-999990J14D01*
G01*
%TO.N,VBUS*%
X154800000Y-55775000D02*
X157300000Y-55775000D01*
X137850000Y-49350000D02*
X137900000Y-49300000D01*
X153800000Y-54500000D02*
X153800000Y-54775000D01*
X137850000Y-50500000D02*
X137850000Y-49350000D01*
X135214214Y-50500000D02*
X135712500Y-50500000D01*
X131714214Y-51900000D02*
X132985786Y-51900000D01*
X133692893Y-51607107D02*
X134507107Y-50792893D01*
X127100000Y-53100000D02*
X130100000Y-53100000D01*
X130100000Y-53100000D02*
X131007107Y-52192893D01*
X135712500Y-50500000D02*
X137850000Y-50500000D01*
X135214214Y-50500010D02*
G75*
G03*
X134507107Y-50792893I-14J-999990D01*
G01*
X153800000Y-54775000D02*
G75*
G03*
X154800000Y-55775000I1000000J0D01*
G01*
X132985786Y-51899990D02*
G75*
G03*
X133692893Y-51607107I14J999990D01*
G01*
X131714214Y-51900010D02*
G75*
G03*
X131007107Y-52192893I-14J-999990D01*
G01*
D40*
%TO.N,Net-(D2-K)*%
X144900000Y-51237500D02*
X144900000Y-54375000D01*
%TO.N,Net-(D3-K)*%
X148600000Y-51337500D02*
X148700000Y-51237500D01*
X148700000Y-54375000D02*
X148700000Y-51237500D01*
%TO.N,+BATT*%
X127508180Y-65949179D02*
X127508180Y-63096798D01*
X128489691Y-63389691D02*
X129507107Y-64407107D01*
X118600000Y-69000000D02*
X124457359Y-69000000D01*
X127508180Y-63096798D02*
X127782584Y-63096798D01*
X130214214Y-64700000D02*
X131400000Y-64700000D01*
X126578680Y-68121320D02*
X126629501Y-68070499D01*
X126629507Y-68070505D02*
G75*
G03*
X127508180Y-65949179I-2121307J2121305D01*
G01*
X124457359Y-68999971D02*
G75*
G03*
X126578680Y-68121320I41J2999971D01*
G01*
X129507100Y-64407114D02*
G75*
G03*
X130214214Y-64700000I707100J707114D01*
G01*
X128489699Y-63389683D02*
G75*
G03*
X127782584Y-63096798I-707099J-707117D01*
G01*
%TO.N,Net-(Q1-G)*%
X155350000Y-58450000D02*
X146000000Y-58450000D01*
X156682107Y-57425000D02*
X157300000Y-57425000D01*
X153200000Y-62887500D02*
X153250000Y-62937500D01*
X155400000Y-58500000D02*
X156328554Y-57571446D01*
X153200000Y-60700000D02*
X153200000Y-62887500D01*
X155400000Y-58500000D02*
X155350000Y-58450000D01*
X156682107Y-57425005D02*
G75*
G03*
X156328554Y-57571446I-7J-499995D01*
G01*
%TO.N,Net-(Q1-D)*%
X154200000Y-61062500D02*
X154200000Y-60107107D01*
X153492893Y-59400000D02*
X147875000Y-59400000D01*
X154053553Y-59753553D02*
X153846446Y-59546446D01*
X154199995Y-60107107D02*
G75*
G03*
X154053553Y-59753553I-499995J7D01*
G01*
X153846449Y-59546443D02*
G75*
G03*
X153492893Y-59400000I-353549J-353557D01*
G01*
%TO.N,Net-(U1-CHRG)*%
X142927893Y-56365000D02*
X141237500Y-56365000D01*
X144900000Y-56025000D02*
X143682107Y-56025000D01*
X143328553Y-56171447D02*
X143281446Y-56218554D01*
X143682107Y-56025005D02*
G75*
G03*
X143328553Y-56171447I-7J-499995D01*
G01*
X142927893Y-56364995D02*
G75*
G03*
X143281446Y-56218554I7J499995D01*
G01*
%TO.N,Net-(U2-VM)*%
X140685786Y-67900000D02*
X139537500Y-67900000D01*
X141800000Y-69175000D02*
X141800000Y-69014214D01*
X141507107Y-68307107D02*
X141392893Y-68192893D01*
X141392900Y-68192886D02*
G75*
G03*
X140685786Y-67900000I-707100J-707114D01*
G01*
X141799990Y-69014214D02*
G75*
G03*
X141507107Y-68307107I-999990J14D01*
G01*
%TO.N,Net-(U1-STDBY)*%
X148700000Y-56025000D02*
X147589214Y-56025000D01*
X144107107Y-57292893D02*
X144057893Y-57342107D01*
X143350786Y-57635000D02*
X141237500Y-57635000D01*
X145785786Y-57000000D02*
X144814214Y-57000000D01*
X146882107Y-56317893D02*
X146492893Y-56707107D01*
X147589214Y-56025010D02*
G75*
G03*
X146882107Y-56317893I-14J-999990D01*
G01*
X145785786Y-56999990D02*
G75*
G03*
X146492893Y-56707107I14J999990D01*
G01*
X144814214Y-57000010D02*
G75*
G03*
X144107107Y-57292893I-14J-999990D01*
G01*
X143350786Y-57634990D02*
G75*
G03*
X144057893Y-57342107I14J999990D01*
G01*
%TO.N,Net-(U1-PROG)*%
X129510786Y-57575000D02*
X128000000Y-57575000D01*
X136162500Y-56365000D02*
X131549214Y-56365000D01*
X128000000Y-57575000D02*
X123115000Y-57575000D01*
X130842107Y-56657893D02*
X130217893Y-57282107D01*
X123115000Y-57575000D02*
X123100000Y-57590000D01*
X131549214Y-56365010D02*
G75*
G03*
X130842107Y-56657893I-14J-999990D01*
G01*
X129510786Y-57574990D02*
G75*
G03*
X130217893Y-57282107I14J999990D01*
G01*
%TO.N,Net-(U2-OD)*%
X137714214Y-71300000D02*
X137768629Y-71300000D01*
X138334315Y-71065685D02*
X139244607Y-70155393D01*
X132137500Y-74575000D02*
X133610786Y-74575000D01*
X134317893Y-74282107D02*
X137007107Y-71592893D01*
X139537500Y-69448286D02*
X139537500Y-68850000D01*
X133610786Y-74574990D02*
G75*
G03*
X134317893Y-74282107I14J999990D01*
G01*
X137768629Y-71300020D02*
G75*
G03*
X138334315Y-71065685I-29J800020D01*
G01*
X137714214Y-71300010D02*
G75*
G03*
X137007107Y-71592893I-14J-999990D01*
G01*
X139244614Y-70155400D02*
G75*
G03*
X139537500Y-69448286I-707114J707100D01*
G01*
%TO.N,Net-(U2-OC)*%
X141803680Y-73696320D02*
X142521321Y-72978679D01*
X137862500Y-74575000D02*
X139682359Y-74575000D01*
X143400000Y-70857359D02*
X143400000Y-70242641D01*
X140107359Y-66950000D02*
X139537500Y-66950000D01*
X142521320Y-68121320D02*
X142228679Y-67828679D01*
X139682359Y-74574971D02*
G75*
G03*
X141803680Y-73696320I41J2999971D01*
G01*
X142521341Y-72978699D02*
G75*
G03*
X143400000Y-70857359I-2121341J2121299D01*
G01*
X143399971Y-70242641D02*
G75*
G03*
X142521320Y-68121320I-2999971J41D01*
G01*
X142228699Y-67828659D02*
G75*
G03*
X140107359Y-66950000I-2121299J-2121341D01*
G01*
%TO.N,Net-(J4-CC1)*%
X127900000Y-52100000D02*
X127712500Y-51912500D01*
X127712500Y-51912500D02*
X127712500Y-49500000D01*
%TO.N,Net-(J4-CC2)*%
X129300000Y-52100000D02*
X129487500Y-51912500D01*
X129487500Y-51912500D02*
X129487500Y-49500000D01*
%TD*%
%TA.AperFunction,Conductor*%
%TO.N,GND*%
G36*
X119122765Y-48110185D02*
G01*
X119168520Y-48162989D01*
X119178464Y-48232147D01*
X119149439Y-48295703D01*
X119090661Y-48333477D01*
X119069133Y-48337773D01*
X119065255Y-48338194D01*
X118715726Y-48415131D01*
X118495737Y-48489255D01*
X118376565Y-48529409D01*
X118376563Y-48529410D01*
X118376552Y-48529414D01*
X118051755Y-48679680D01*
X118051751Y-48679682D01*
X117901800Y-48769905D01*
X117745081Y-48864200D01*
X117701665Y-48897204D01*
X117460172Y-49080781D01*
X117460163Y-49080789D01*
X117200331Y-49326914D01*
X116968641Y-49599680D01*
X116968634Y-49599690D01*
X116767790Y-49895913D01*
X116767784Y-49895922D01*
X116600151Y-50212111D01*
X116600142Y-50212129D01*
X116467674Y-50544600D01*
X116467672Y-50544607D01*
X116371932Y-50889434D01*
X116371926Y-50889460D01*
X116314029Y-51242614D01*
X116314028Y-51242627D01*
X116314028Y-51242629D01*
X116309265Y-51330472D01*
X116298318Y-51532382D01*
X116275033Y-51598258D01*
X116269699Y-51602395D01*
X116293477Y-51639395D01*
X116298318Y-51667617D01*
X116313411Y-51945999D01*
X116314028Y-51957368D01*
X116314029Y-51957385D01*
X116371926Y-52310539D01*
X116371932Y-52310565D01*
X116467672Y-52655392D01*
X116467674Y-52655399D01*
X116600142Y-52987870D01*
X116600151Y-52987888D01*
X116767784Y-53304077D01*
X116767787Y-53304082D01*
X116767789Y-53304085D01*
X116940676Y-53559075D01*
X116968634Y-53600309D01*
X116968641Y-53600319D01*
X117181147Y-53850500D01*
X117200332Y-53873086D01*
X117460163Y-54119211D01*
X117745081Y-54335800D01*
X118051747Y-54520315D01*
X118051749Y-54520316D01*
X118051751Y-54520317D01*
X118051755Y-54520319D01*
X118350210Y-54658398D01*
X118376565Y-54670591D01*
X118715726Y-54784868D01*
X119065254Y-54861805D01*
X119421052Y-54900500D01*
X119421058Y-54900500D01*
X119778942Y-54900500D01*
X119778948Y-54900500D01*
X120134746Y-54861805D01*
X120484274Y-54784868D01*
X120738800Y-54699108D01*
X123229500Y-54699108D01*
X123234244Y-54747274D01*
X123244699Y-54853432D01*
X123268387Y-54931522D01*
X123304768Y-55051454D01*
X123402315Y-55233950D01*
X123403500Y-55235394D01*
X123533589Y-55393910D01*
X123599260Y-55447804D01*
X123693550Y-55525185D01*
X123876046Y-55622732D01*
X124074066Y-55682800D01*
X124074065Y-55682800D01*
X124092529Y-55684618D01*
X124280000Y-55703083D01*
X124485934Y-55682800D01*
X124683954Y-55622732D01*
X124866450Y-55525185D01*
X125026410Y-55393910D01*
X125157685Y-55233950D01*
X125255232Y-55051454D01*
X125315300Y-54853434D01*
X125330500Y-54699108D01*
X125330500Y-53995892D01*
X125315300Y-53841566D01*
X125255232Y-53643546D01*
X125157685Y-53461050D01*
X125105702Y-53397709D01*
X125026410Y-53301089D01*
X124866452Y-53169817D01*
X124866453Y-53169817D01*
X124866450Y-53169815D01*
X124683954Y-53072268D01*
X124485934Y-53012200D01*
X124485932Y-53012199D01*
X124485934Y-53012199D01*
X124280000Y-52991917D01*
X124074067Y-53012199D01*
X123876043Y-53072269D01*
X123765898Y-53131143D01*
X123693550Y-53169815D01*
X123693548Y-53169816D01*
X123693547Y-53169817D01*
X123533589Y-53301089D01*
X123423361Y-53435405D01*
X123402315Y-53461050D01*
X123363643Y-53533398D01*
X123304769Y-53643543D01*
X123244699Y-53841567D01*
X123240383Y-53885393D01*
X123229500Y-53995892D01*
X123229500Y-54699108D01*
X120738800Y-54699108D01*
X120823435Y-54670591D01*
X121148253Y-54520315D01*
X121454919Y-54335800D01*
X121739837Y-54119211D01*
X121999668Y-53873086D01*
X122231365Y-53600311D01*
X122432211Y-53304085D01*
X122599853Y-52987880D01*
X122732324Y-52655403D01*
X122828071Y-52310552D01*
X122852259Y-52163011D01*
X122885970Y-51957385D01*
X122885970Y-51957382D01*
X122885972Y-51957371D01*
X122905338Y-51600181D01*
X122905348Y-51600002D01*
X122905348Y-51599997D01*
X122901318Y-51525669D01*
X122885972Y-51242629D01*
X122885351Y-51238842D01*
X122829654Y-50899104D01*
X123229500Y-50899104D01*
X123244699Y-51053432D01*
X123244700Y-51053434D01*
X123304768Y-51251454D01*
X123402315Y-51433950D01*
X123408422Y-51441391D01*
X123533589Y-51593910D01*
X123623403Y-51667617D01*
X123693550Y-51725185D01*
X123876046Y-51822732D01*
X124074066Y-51882800D01*
X124074065Y-51882800D01*
X124092529Y-51884618D01*
X124280000Y-51903083D01*
X124485934Y-51882800D01*
X124683954Y-51822732D01*
X124866450Y-51725185D01*
X125026410Y-51593910D01*
X125157685Y-51433950D01*
X125255232Y-51251454D01*
X125315300Y-51053434D01*
X125330500Y-50899108D01*
X125330500Y-50195892D01*
X125315300Y-50041566D01*
X125255232Y-49843546D01*
X125157685Y-49661050D01*
X125105702Y-49597709D01*
X125026410Y-49501089D01*
X124908677Y-49404469D01*
X124866450Y-49369815D01*
X124683954Y-49272268D01*
X124485934Y-49212200D01*
X124485932Y-49212199D01*
X124485934Y-49212199D01*
X124280000Y-49191917D01*
X124074067Y-49212199D01*
X123876043Y-49272269D01*
X123773811Y-49326914D01*
X123693550Y-49369815D01*
X123693548Y-49369816D01*
X123693547Y-49369817D01*
X123533589Y-49501089D01*
X123406589Y-49655842D01*
X123402315Y-49661050D01*
X123394873Y-49674973D01*
X123304769Y-49843543D01*
X123244699Y-50041567D01*
X123235158Y-50138449D01*
X123229642Y-50194457D01*
X123229500Y-50195895D01*
X123229500Y-50899104D01*
X122829654Y-50899104D01*
X122828073Y-50889460D01*
X122828072Y-50889459D01*
X122828071Y-50889448D01*
X122778498Y-50710903D01*
X122732327Y-50544607D01*
X122732325Y-50544600D01*
X122727127Y-50531555D01*
X122676920Y-50405543D01*
X122599857Y-50212129D01*
X122599848Y-50212111D01*
X122590488Y-50194457D01*
X122487402Y-50000016D01*
X122432215Y-49895922D01*
X122432213Y-49895919D01*
X122432211Y-49895915D01*
X122231365Y-49599689D01*
X122231361Y-49599684D01*
X122231358Y-49599680D01*
X121999668Y-49326914D01*
X121941979Y-49272268D01*
X121739837Y-49080789D01*
X121739830Y-49080783D01*
X121739827Y-49080781D01*
X121666423Y-49024981D01*
X121454919Y-48864200D01*
X121148253Y-48679685D01*
X121148252Y-48679684D01*
X121148248Y-48679682D01*
X121148244Y-48679680D01*
X120823447Y-48529414D01*
X120823441Y-48529411D01*
X120823435Y-48529409D01*
X120653854Y-48472270D01*
X120484273Y-48415131D01*
X120134744Y-48338194D01*
X120130867Y-48337773D01*
X120066349Y-48310956D01*
X120026571Y-48253514D01*
X120024164Y-48183686D01*
X120059890Y-48123641D01*
X120122408Y-48092443D01*
X120144274Y-48090500D01*
X127191189Y-48090500D01*
X127258228Y-48110185D01*
X127303983Y-48162989D01*
X127313927Y-48232147D01*
X127284902Y-48295703D01*
X127230193Y-48332206D01*
X127130668Y-48365185D01*
X127130663Y-48365187D01*
X126981342Y-48457289D01*
X126857289Y-48581342D01*
X126765187Y-48730663D01*
X126765186Y-48730666D01*
X126710001Y-48897203D01*
X126710001Y-48897204D01*
X126710000Y-48897204D01*
X126699500Y-48999983D01*
X126699500Y-50000001D01*
X126699501Y-50000019D01*
X126710000Y-50102796D01*
X126710001Y-50102799D01*
X126765183Y-50269329D01*
X126765186Y-50269334D01*
X126766026Y-50270696D01*
X126771113Y-50280502D01*
X126771316Y-50280398D01*
X126781663Y-50300486D01*
X127048236Y-50818022D01*
X127062000Y-50874802D01*
X127062000Y-51289946D01*
X127058838Y-51317770D01*
X127057865Y-51321995D01*
X127057864Y-51321999D01*
X127057864Y-51322002D01*
X127003937Y-51966141D01*
X126996462Y-52055433D01*
X126995982Y-52066622D01*
X126995982Y-52066626D01*
X126996321Y-52077608D01*
X126996010Y-52086005D01*
X126994540Y-52099995D01*
X126994540Y-52101385D01*
X126994312Y-52102159D01*
X126993861Y-52106458D01*
X126993074Y-52106375D01*
X126974855Y-52168424D01*
X126922051Y-52214179D01*
X126896321Y-52222675D01*
X126820197Y-52238855D01*
X126820192Y-52238857D01*
X126647270Y-52315848D01*
X126647265Y-52315851D01*
X126494129Y-52427111D01*
X126367466Y-52567785D01*
X126272821Y-52731715D01*
X126272818Y-52731722D01*
X126215965Y-52906700D01*
X126214326Y-52911744D01*
X126194540Y-53100000D01*
X126214326Y-53288256D01*
X126214327Y-53288259D01*
X126272818Y-53468277D01*
X126272821Y-53468284D01*
X126367467Y-53632216D01*
X126456113Y-53730667D01*
X126494129Y-53772888D01*
X126647265Y-53884148D01*
X126647270Y-53884151D01*
X126820192Y-53961142D01*
X126820197Y-53961144D01*
X127005354Y-54000500D01*
X127005355Y-54000500D01*
X127194644Y-54000500D01*
X127194646Y-54000500D01*
X127351809Y-53967094D01*
X127962318Y-53852624D01*
X127985170Y-53850500D01*
X129214830Y-53850500D01*
X129237682Y-53852624D01*
X129412452Y-53885393D01*
X129848178Y-53967091D01*
X130005354Y-54000500D01*
X130033950Y-54000500D01*
X130039758Y-54000773D01*
X130040972Y-54000887D01*
X130040983Y-54000888D01*
X130040994Y-54000887D01*
X130040996Y-54000888D01*
X130112384Y-54000500D01*
X130194644Y-54000500D01*
X130194646Y-54000500D01*
X130379803Y-53961144D01*
X130552730Y-53884151D01*
X130705871Y-53772888D01*
X130832533Y-53632216D01*
X130873589Y-53561102D01*
X130876087Y-53557134D01*
X131241935Y-53022432D01*
X131256582Y-53004784D01*
X131534923Y-52726444D01*
X131540998Y-52721117D01*
X131576514Y-52693864D01*
X131604533Y-52677689D01*
X131634552Y-52665255D01*
X131665807Y-52656880D01*
X131702648Y-52652030D01*
X131710247Y-52651031D01*
X131718346Y-52650500D01*
X131793084Y-52650501D01*
X131793089Y-52650500D01*
X132985775Y-52650500D01*
X133029495Y-52650500D01*
X133031272Y-52650500D01*
X133031586Y-52650490D01*
X133100509Y-52650492D01*
X133234924Y-52632797D01*
X133328010Y-52620544D01*
X133328011Y-52620543D01*
X133328014Y-52620543D01*
X133455966Y-52586259D01*
X133549657Y-52561157D01*
X133549659Y-52561155D01*
X133549663Y-52561155D01*
X133761665Y-52473344D01*
X133960391Y-52358613D01*
X134142441Y-52218924D01*
X134155700Y-52205664D01*
X134155708Y-52205658D01*
X134161544Y-52199821D01*
X134161549Y-52199819D01*
X134395228Y-51966138D01*
X134456547Y-51932656D01*
X134526239Y-51937640D01*
X134582173Y-51979511D01*
X134606264Y-52041219D01*
X134610001Y-52077797D01*
X134610001Y-52077799D01*
X134665185Y-52244331D01*
X134665187Y-52244336D01*
X134700069Y-52300888D01*
X134757288Y-52393656D01*
X134881344Y-52517712D01*
X135030666Y-52609814D01*
X135197203Y-52664999D01*
X135299991Y-52675500D01*
X136125008Y-52675499D01*
X136125016Y-52675498D01*
X136125019Y-52675498D01*
X136181302Y-52669748D01*
X136227797Y-52664999D01*
X136394334Y-52609814D01*
X136543656Y-52517712D01*
X136667712Y-52393656D01*
X136759814Y-52244334D01*
X136814999Y-52077797D01*
X136825500Y-51975009D01*
X136825499Y-51474382D01*
X136845183Y-51407344D01*
X136886343Y-51367672D01*
X136919288Y-51348174D01*
X136987920Y-51307554D01*
X137055637Y-51290350D01*
X137090473Y-51296691D01*
X137231096Y-51343816D01*
X137255830Y-51355266D01*
X137360394Y-51418478D01*
X137522804Y-51469086D01*
X137593384Y-51475500D01*
X137593387Y-51475500D01*
X138106613Y-51475500D01*
X138106616Y-51475500D01*
X138177196Y-51469086D01*
X138339606Y-51418478D01*
X138485185Y-51330472D01*
X138532701Y-51282956D01*
X138587319Y-51228339D01*
X138648642Y-51194854D01*
X138718334Y-51199838D01*
X138762681Y-51228339D01*
X138864811Y-51330469D01*
X138864813Y-51330470D01*
X138864815Y-51330472D01*
X139010394Y-51418478D01*
X139172804Y-51469086D01*
X139243384Y-51475500D01*
X139243387Y-51475500D01*
X139756613Y-51475500D01*
X139756616Y-51475500D01*
X139827196Y-51469086D01*
X139989606Y-51418478D01*
X140094163Y-51355270D01*
X140118905Y-51343815D01*
X140259523Y-51296691D01*
X140329342Y-51294055D01*
X140362074Y-51307552D01*
X140463658Y-51367673D01*
X140511323Y-51418756D01*
X140524500Y-51474383D01*
X140524500Y-51975001D01*
X140524501Y-51975019D01*
X140535000Y-52077796D01*
X140535001Y-52077800D01*
X140576367Y-52202633D01*
X140584693Y-52231773D01*
X140588530Y-52240340D01*
X140589564Y-52243002D01*
X140593480Y-52251390D01*
X140808622Y-52731716D01*
X140835042Y-52790700D01*
X140844481Y-52859929D01*
X140814994Y-52923271D01*
X140809558Y-52929068D01*
X140783661Y-52954965D01*
X140667967Y-53114209D01*
X140578615Y-53289577D01*
X140578608Y-53289594D01*
X140517788Y-53476786D01*
X140517788Y-53476788D01*
X140486998Y-53671194D01*
X140487000Y-53745669D01*
X140487000Y-54145500D01*
X140467315Y-54212539D01*
X140414511Y-54258294D01*
X140363018Y-54269500D01*
X140358901Y-54269500D01*
X140292115Y-54275568D01*
X140165096Y-54315148D01*
X140159680Y-54316571D01*
X139914133Y-54369361D01*
X139909195Y-54370215D01*
X139876989Y-54374456D01*
X139823865Y-54388689D01*
X139820849Y-54389416D01*
X139728552Y-54409261D01*
X139728541Y-54409263D01*
X139728531Y-54409266D01*
X139728532Y-54409266D01*
X139720635Y-54411343D01*
X139706318Y-54415110D01*
X139700958Y-54416783D01*
X139693329Y-54419166D01*
X139668527Y-54429686D01*
X139660368Y-54432495D01*
X139655347Y-54433841D01*
X139655333Y-54433846D01*
X139443334Y-54521656D01*
X139443330Y-54521658D01*
X139244602Y-54636391D01*
X139062557Y-54776077D01*
X139045883Y-54792748D01*
X139045878Y-54792755D01*
X139017983Y-54820649D01*
X139017981Y-54820651D01*
X138998526Y-54840105D01*
X138998495Y-54840121D01*
X138881072Y-54957547D01*
X138881068Y-54957551D01*
X138741382Y-55139599D01*
X138741379Y-55139603D01*
X138741379Y-55139604D01*
X138657210Y-55285394D01*
X138626646Y-55338333D01*
X138626641Y-55338343D01*
X138538834Y-55550332D01*
X138538833Y-55550336D01*
X138479446Y-55771985D01*
X138479445Y-55771987D01*
X138449499Y-55999479D01*
X138449498Y-55999497D01*
X138449500Y-56085829D01*
X138449500Y-57503593D01*
X138449499Y-57503615D01*
X138449499Y-57581732D01*
X138448968Y-57589833D01*
X138443129Y-57634186D01*
X138434753Y-57665450D01*
X138422323Y-57695462D01*
X138406135Y-57723501D01*
X138378944Y-57758937D01*
X138373591Y-57765040D01*
X138060092Y-58078540D01*
X138053988Y-58083893D01*
X138018495Y-58111128D01*
X137990460Y-58127313D01*
X137960453Y-58139742D01*
X137929182Y-58148120D01*
X137925935Y-58148548D01*
X137884752Y-58153968D01*
X137876653Y-58154499D01*
X137798893Y-58154499D01*
X137798873Y-58154500D01*
X137555643Y-58154500D01*
X137536791Y-58153058D01*
X137311910Y-58118461D01*
X137126590Y-58089950D01*
X137108565Y-58085781D01*
X137107885Y-58085569D01*
X137085925Y-58083574D01*
X137082106Y-58083107D01*
X137067481Y-58080857D01*
X137067488Y-58080857D01*
X137054785Y-58080593D01*
X137050468Y-58080352D01*
X137049485Y-58080262D01*
X137041091Y-58079500D01*
X137041083Y-58079500D01*
X137002364Y-58079500D01*
X136934652Y-58078088D01*
X136934651Y-58078088D01*
X136934650Y-58078088D01*
X136925397Y-58079119D01*
X136918529Y-58079500D01*
X135283901Y-58079500D01*
X135217117Y-58085568D01*
X135217106Y-58085571D01*
X135063401Y-58133467D01*
X134925608Y-58216766D01*
X134925607Y-58216767D01*
X134811769Y-58330606D01*
X134811765Y-58330610D01*
X134801238Y-58348023D01*
X134751421Y-58394352D01*
X134699117Y-58421003D01*
X134552607Y-58527445D01*
X134552605Y-58527447D01*
X134488584Y-58591470D01*
X134436764Y-58643287D01*
X134436757Y-58643295D01*
X134436757Y-58643296D01*
X134436755Y-58643298D01*
X134377486Y-58702567D01*
X134369220Y-58710833D01*
X134307896Y-58744317D01*
X134238205Y-58739332D01*
X134225570Y-58733801D01*
X133801071Y-58519081D01*
X133796509Y-58516527D01*
X133794339Y-58515189D01*
X133794338Y-58515188D01*
X133794334Y-58515186D01*
X133779711Y-58510340D01*
X133765764Y-58505718D01*
X133762689Y-58504608D01*
X133715923Y-58486322D01*
X133715920Y-58486321D01*
X133715915Y-58486319D01*
X133715908Y-58486317D01*
X133715899Y-58486314D01*
X133711639Y-58485102D01*
X133705440Y-58483380D01*
X133700900Y-58482478D01*
X133700941Y-58482269D01*
X133682499Y-58478127D01*
X133627802Y-58460002D01*
X133627797Y-58460001D01*
X133627795Y-58460000D01*
X133627791Y-58460000D01*
X133525010Y-58449500D01*
X132474998Y-58449500D01*
X132474980Y-58449501D01*
X132372203Y-58460000D01*
X132372200Y-58460001D01*
X132205668Y-58515185D01*
X132205663Y-58515187D01*
X132056342Y-58607289D01*
X131932289Y-58731342D01*
X131840187Y-58880663D01*
X131840186Y-58880666D01*
X131785001Y-59047203D01*
X131785001Y-59047204D01*
X131785000Y-59047204D01*
X131774500Y-59149983D01*
X131774500Y-59750001D01*
X131774501Y-59750019D01*
X131785000Y-59852796D01*
X131785001Y-59852799D01*
X131811910Y-59934003D01*
X131840186Y-60019334D01*
X131932288Y-60168656D01*
X132056344Y-60292712D01*
X132205666Y-60384814D01*
X132372203Y-60439999D01*
X132474991Y-60450500D01*
X133525008Y-60450499D01*
X133526208Y-60450376D01*
X133526467Y-60450424D01*
X133528163Y-60450338D01*
X133528183Y-60450743D01*
X133594901Y-60463135D01*
X133645793Y-60511007D01*
X133662725Y-60578794D01*
X133640320Y-60644974D01*
X133589572Y-60686874D01*
X133529882Y-60713645D01*
X133479138Y-60724503D01*
X133441571Y-60724503D01*
X133441570Y-60724503D01*
X133387603Y-60733049D01*
X133262710Y-60752829D01*
X133262707Y-60752829D01*
X133262706Y-60752830D01*
X133106457Y-60803596D01*
X133090474Y-60808789D01*
X132929128Y-60890996D01*
X132929118Y-60891003D01*
X132778753Y-61000246D01*
X132712946Y-61023725D01*
X132645380Y-61008172D01*
X132374327Y-60856703D01*
X132374318Y-60856698D01*
X132374315Y-60856697D01*
X132374306Y-60856693D01*
X132372366Y-60855864D01*
X132355987Y-60847374D01*
X132344334Y-60840186D01*
X132308215Y-60828217D01*
X132303354Y-60826377D01*
X132276157Y-60814755D01*
X132276147Y-60814751D01*
X132276145Y-60814751D01*
X132271447Y-60813308D01*
X132264253Y-60811227D01*
X132255414Y-60808671D01*
X132250585Y-60807684D01*
X132250651Y-60807360D01*
X132233914Y-60803596D01*
X132177798Y-60785001D01*
X132075010Y-60774500D01*
X130724998Y-60774500D01*
X130724981Y-60774501D01*
X130622203Y-60785000D01*
X130622200Y-60785001D01*
X130455668Y-60840185D01*
X130455663Y-60840187D01*
X130306342Y-60932289D01*
X130182289Y-61056342D01*
X130090187Y-61205663D01*
X130090186Y-61205666D01*
X130035001Y-61372203D01*
X130035001Y-61372204D01*
X130035000Y-61372204D01*
X130024500Y-61474983D01*
X130024500Y-61742681D01*
X130004815Y-61809720D01*
X129952011Y-61855475D01*
X129882853Y-61865419D01*
X129819297Y-61836394D01*
X129785383Y-61788769D01*
X129783200Y-61783315D01*
X129747613Y-61738062D01*
X129694237Y-61670187D01*
X129694236Y-61670186D01*
X129694235Y-61670185D01*
X129694234Y-61670184D01*
X129576998Y-61586701D01*
X129576995Y-61586699D01*
X129576994Y-61586699D01*
X129521081Y-61565083D01*
X129521079Y-61565082D01*
X129521078Y-61565082D01*
X126530818Y-60763846D01*
X126471579Y-60754607D01*
X126471578Y-60754607D01*
X126328307Y-60768287D01*
X126194697Y-60821777D01*
X126081569Y-60910740D01*
X126081568Y-60910741D01*
X125998081Y-61027983D01*
X125976465Y-61083896D01*
X125175228Y-64074159D01*
X125175227Y-64074165D01*
X125165989Y-64133398D01*
X125179669Y-64276670D01*
X125233159Y-64410280D01*
X125322122Y-64523408D01*
X125322123Y-64523409D01*
X125322124Y-64523410D01*
X125322126Y-64523412D01*
X125439362Y-64606895D01*
X125495282Y-64628514D01*
X126144786Y-64802547D01*
X126204447Y-64838912D01*
X126215691Y-64853275D01*
X126478101Y-65244712D01*
X126823412Y-65759814D01*
X126836678Y-65779602D01*
X126857657Y-65846248D01*
X126857680Y-65848649D01*
X126857680Y-65947443D01*
X126857582Y-65950920D01*
X126843104Y-66208766D01*
X126842325Y-66215681D01*
X126799359Y-66468559D01*
X126797811Y-66475343D01*
X126726801Y-66721830D01*
X126724503Y-66728398D01*
X126626347Y-66965370D01*
X126623328Y-66971639D01*
X126499249Y-67196143D01*
X126495547Y-67202035D01*
X126347115Y-67411230D01*
X126342777Y-67416671D01*
X126170793Y-67609120D01*
X126168406Y-67611645D01*
X126143655Y-67636399D01*
X126119940Y-67660114D01*
X126117413Y-67662503D01*
X125924851Y-67834583D01*
X125919411Y-67838921D01*
X125834030Y-67899501D01*
X125710209Y-67987354D01*
X125704327Y-67991049D01*
X125655121Y-68018245D01*
X125479829Y-68115122D01*
X125473560Y-68118141D01*
X125236567Y-68216304D01*
X125229999Y-68218602D01*
X124983525Y-68289606D01*
X124976741Y-68291155D01*
X124723864Y-68334117D01*
X124716950Y-68334896D01*
X124458592Y-68349401D01*
X124455116Y-68349499D01*
X124380335Y-68349499D01*
X124380319Y-68349500D01*
X120250900Y-68349500D01*
X120189387Y-68333167D01*
X120185004Y-68330663D01*
X119987173Y-68217636D01*
X119578368Y-67984073D01*
X119578362Y-67984071D01*
X119578361Y-67984070D01*
X119574602Y-67982409D01*
X119570213Y-67980469D01*
X119562718Y-67976525D01*
X119544336Y-67965187D01*
X119544328Y-67965183D01*
X119512342Y-67954584D01*
X119506787Y-67952442D01*
X119490423Y-67945212D01*
X119483286Y-67942059D01*
X119483274Y-67942055D01*
X119478741Y-67940587D01*
X119465750Y-67936574D01*
X119462860Y-67936157D01*
X119441579Y-67931136D01*
X119377801Y-67910002D01*
X119377798Y-67910001D01*
X119377797Y-67910001D01*
X119377794Y-67910000D01*
X119377791Y-67910000D01*
X119275010Y-67899500D01*
X117924998Y-67899500D01*
X117924981Y-67899501D01*
X117822203Y-67910000D01*
X117822200Y-67910001D01*
X117655668Y-67965185D01*
X117655663Y-67965187D01*
X117506342Y-68057289D01*
X117382289Y-68181342D01*
X117290187Y-68330663D01*
X117290185Y-68330668D01*
X117277510Y-68368920D01*
X117235001Y-68497203D01*
X117235001Y-68497204D01*
X117235000Y-68497204D01*
X117224500Y-68599983D01*
X117224500Y-69400001D01*
X117224501Y-69400019D01*
X117235000Y-69502796D01*
X117235001Y-69502799D01*
X117278027Y-69632642D01*
X117290186Y-69669334D01*
X117382288Y-69818656D01*
X117506344Y-69942712D01*
X117521885Y-69952298D01*
X117569739Y-69981814D01*
X117616464Y-70033762D01*
X117627687Y-70102724D01*
X117599844Y-70166806D01*
X117581296Y-70184822D01*
X117562118Y-70199903D01*
X117562112Y-70199909D01*
X117424478Y-70358746D01*
X117319398Y-70540750D01*
X117250656Y-70739365D01*
X117250656Y-70739367D01*
X117224008Y-70924716D01*
X117220746Y-70947401D01*
X117230745Y-71157327D01*
X117280296Y-71361578D01*
X117280298Y-71361582D01*
X117367598Y-71552743D01*
X117367601Y-71552748D01*
X117367602Y-71552750D01*
X117367604Y-71552753D01*
X117489514Y-71723952D01*
X117489515Y-71723953D01*
X117489520Y-71723959D01*
X117641620Y-71868985D01*
X117745082Y-71935476D01*
X117818428Y-71982613D01*
X118013543Y-72060725D01*
X118116729Y-72080612D01*
X118219914Y-72100500D01*
X118219915Y-72100500D01*
X118927419Y-72100500D01*
X118927425Y-72100500D01*
X119084218Y-72085528D01*
X119285875Y-72026316D01*
X119286216Y-72026139D01*
X119303641Y-72018779D01*
X119306621Y-72017780D01*
X119306630Y-72017778D01*
X120165208Y-71660038D01*
X120212900Y-71650500D01*
X123058181Y-71650500D01*
X123125220Y-71670185D01*
X123170975Y-71722989D01*
X123180919Y-71792147D01*
X123151894Y-71855703D01*
X123133227Y-71873210D01*
X123051319Y-71935476D01*
X122860172Y-72080781D01*
X122860163Y-72080789D01*
X122600331Y-72326914D01*
X122368641Y-72599680D01*
X122368634Y-72599690D01*
X122167790Y-72895913D01*
X122167784Y-72895922D01*
X122000151Y-73212111D01*
X122000142Y-73212129D01*
X121867674Y-73544600D01*
X121867672Y-73544607D01*
X121771932Y-73889434D01*
X121771926Y-73889460D01*
X121714029Y-74242614D01*
X121714028Y-74242631D01*
X121694652Y-74599997D01*
X121694652Y-74600002D01*
X121714028Y-74957368D01*
X121714029Y-74957385D01*
X121771926Y-75310539D01*
X121771932Y-75310565D01*
X121867672Y-75655392D01*
X121867674Y-75655399D01*
X122000142Y-75987870D01*
X122000151Y-75987888D01*
X122167784Y-76304077D01*
X122167787Y-76304082D01*
X122167789Y-76304085D01*
X122284577Y-76476335D01*
X122368634Y-76600309D01*
X122368641Y-76600319D01*
X122600331Y-76873085D01*
X122600332Y-76873086D01*
X122860163Y-77119211D01*
X123145081Y-77335800D01*
X123451747Y-77520315D01*
X123451749Y-77520316D01*
X123451751Y-77520317D01*
X123451755Y-77520319D01*
X123725677Y-77647048D01*
X123776565Y-77670591D01*
X124093120Y-77777251D01*
X124115726Y-77784868D01*
X124386178Y-77844399D01*
X124447419Y-77878035D01*
X124480753Y-77939440D01*
X124475597Y-78009119D01*
X124433588Y-78064950D01*
X124368064Y-78089205D01*
X124359522Y-78089500D01*
X118551879Y-78089500D01*
X118548134Y-78089387D01*
X118451100Y-78083517D01*
X118243612Y-78069917D01*
X118236486Y-78069033D01*
X118100791Y-78044167D01*
X118035021Y-78031084D01*
X117934357Y-78011061D01*
X117928012Y-78009447D01*
X117894988Y-77999156D01*
X117788842Y-77966079D01*
X117634973Y-77913848D01*
X117629454Y-77911675D01*
X117493507Y-77850491D01*
X117350160Y-77779799D01*
X117345505Y-77777251D01*
X117217611Y-77699936D01*
X117215240Y-77698428D01*
X117084408Y-77611008D01*
X117080616Y-77608262D01*
X116962446Y-77515682D01*
X116959802Y-77513490D01*
X116841923Y-77410113D01*
X116838961Y-77407339D01*
X116732659Y-77301037D01*
X116729885Y-77298075D01*
X116626508Y-77180196D01*
X116624316Y-77177552D01*
X116531736Y-77059382D01*
X116528990Y-77055590D01*
X116441570Y-76924758D01*
X116440062Y-76922387D01*
X116362747Y-76794493D01*
X116360206Y-76789853D01*
X116289508Y-76646492D01*
X116228321Y-76510539D01*
X116226155Y-76505039D01*
X116173920Y-76351157D01*
X116168968Y-76335266D01*
X116130544Y-76211961D01*
X116128942Y-76205664D01*
X116095836Y-76039227D01*
X116070963Y-75903502D01*
X116070082Y-75896399D01*
X116056479Y-75688851D01*
X116050613Y-75591866D01*
X116050500Y-75588122D01*
X116050500Y-57590001D01*
X121794532Y-57590001D01*
X121814364Y-57816686D01*
X121814366Y-57816697D01*
X121873258Y-58036488D01*
X121873261Y-58036497D01*
X121969431Y-58242732D01*
X121969432Y-58242734D01*
X122099954Y-58429141D01*
X122260858Y-58590045D01*
X122260861Y-58590047D01*
X122447266Y-58720568D01*
X122653504Y-58816739D01*
X122873308Y-58875635D01*
X123035230Y-58889801D01*
X123099998Y-58895468D01*
X123100000Y-58895468D01*
X123100002Y-58895468D01*
X123156673Y-58890509D01*
X123326692Y-58875635D01*
X123546496Y-58816739D01*
X123598859Y-58792321D01*
X123607028Y-58789194D01*
X123631481Y-58781767D01*
X124795151Y-58237189D01*
X124847710Y-58225500D01*
X126979148Y-58225500D01*
X127029892Y-58236358D01*
X127194974Y-58310398D01*
X127346357Y-58378294D01*
X127430328Y-58415955D01*
X127433610Y-58417675D01*
X127435393Y-58418478D01*
X127466571Y-58428192D01*
X127597804Y-58469086D01*
X127668384Y-58475500D01*
X127668387Y-58475500D01*
X128331613Y-58475500D01*
X128331616Y-58475500D01*
X128402196Y-58469086D01*
X128564606Y-58418478D01*
X128564613Y-58418474D01*
X128566407Y-58417666D01*
X128569689Y-58415946D01*
X128830319Y-58299053D01*
X128970106Y-58236357D01*
X129020850Y-58225500D01*
X129553569Y-58225500D01*
X129553869Y-58225490D01*
X129618956Y-58225491D01*
X129757775Y-58207216D01*
X129833460Y-58197254D01*
X129833461Y-58197253D01*
X129833464Y-58197253D01*
X129972588Y-58159977D01*
X130042446Y-58141260D01*
X130042448Y-58141258D01*
X130042452Y-58141258D01*
X130242342Y-58058464D01*
X130429715Y-57950287D01*
X130601366Y-57818578D01*
X130610848Y-57809094D01*
X130610856Y-57809089D01*
X130619756Y-57800188D01*
X130619758Y-57800188D01*
X131299208Y-57120737D01*
X131305284Y-57115408D01*
X131361515Y-57072261D01*
X131389531Y-57056087D01*
X131443674Y-57033661D01*
X131474933Y-57025286D01*
X131545250Y-57016030D01*
X131553344Y-57015500D01*
X131622499Y-57015501D01*
X131622503Y-57015500D01*
X134720677Y-57015500D01*
X134764964Y-57023678D01*
X135090757Y-57148254D01*
X135101671Y-57152017D01*
X135122403Y-57159168D01*
X135141029Y-57162100D01*
X135158620Y-57166202D01*
X135217113Y-57184430D01*
X135283909Y-57190500D01*
X137041090Y-57190499D01*
X137041097Y-57190499D01*
X137107882Y-57184431D01*
X137107885Y-57184430D01*
X137107887Y-57184430D01*
X137261602Y-57136531D01*
X137399388Y-57053236D01*
X137513236Y-56939388D01*
X137596531Y-56801602D01*
X137644430Y-56647887D01*
X137650500Y-56581091D01*
X137650499Y-56148910D01*
X137650499Y-56148901D01*
X137644431Y-56082117D01*
X137644428Y-56082106D01*
X137596532Y-55928401D01*
X137596531Y-55928400D01*
X137596531Y-55928398D01*
X137513236Y-55790612D01*
X137513234Y-55790610D01*
X137513233Y-55790608D01*
X137399391Y-55676766D01*
X137387186Y-55669388D01*
X137261602Y-55593469D01*
X137107887Y-55545570D01*
X137107885Y-55545569D01*
X137107883Y-55545569D01*
X137057619Y-55541002D01*
X137041091Y-55539500D01*
X137041088Y-55539500D01*
X135283901Y-55539500D01*
X135217118Y-55545568D01*
X135217109Y-55545570D01*
X135130559Y-55572539D01*
X135125792Y-55573819D01*
X135090764Y-55581741D01*
X135090751Y-55581746D01*
X134842255Y-55676766D01*
X134773434Y-55703082D01*
X134764963Y-55706321D01*
X134720675Y-55714500D01*
X133622326Y-55714500D01*
X133555287Y-55694815D01*
X133509532Y-55642011D01*
X133499588Y-55572853D01*
X133528613Y-55509297D01*
X133543662Y-55494646D01*
X133587412Y-55458742D01*
X133666410Y-55393910D01*
X133797685Y-55233950D01*
X133895232Y-55051454D01*
X133955300Y-54853434D01*
X133970500Y-54699108D01*
X133970500Y-53995892D01*
X133955300Y-53841566D01*
X133895232Y-53643546D01*
X133797685Y-53461050D01*
X133745702Y-53397709D01*
X133666410Y-53301089D01*
X133506452Y-53169817D01*
X133506453Y-53169817D01*
X133506450Y-53169815D01*
X133323954Y-53072268D01*
X133125934Y-53012200D01*
X133125932Y-53012199D01*
X133125934Y-53012199D01*
X132920000Y-52991917D01*
X132714067Y-53012199D01*
X132516043Y-53072269D01*
X132405898Y-53131143D01*
X132333550Y-53169815D01*
X132333548Y-53169816D01*
X132333547Y-53169817D01*
X132173589Y-53301089D01*
X132063361Y-53435405D01*
X132042315Y-53461050D01*
X132003643Y-53533398D01*
X131944769Y-53643543D01*
X131884699Y-53841567D01*
X131880383Y-53885393D01*
X131869500Y-53995892D01*
X131869500Y-54699108D01*
X131874244Y-54747274D01*
X131884699Y-54853432D01*
X131908387Y-54931522D01*
X131944768Y-55051454D01*
X132042315Y-55233950D01*
X132043500Y-55235394D01*
X132173589Y-55393910D01*
X132296338Y-55494646D01*
X132335673Y-55552392D01*
X132337544Y-55622236D01*
X132301357Y-55682005D01*
X132238601Y-55712721D01*
X132217674Y-55714500D01*
X131506644Y-55714500D01*
X131506337Y-55714509D01*
X131441042Y-55714509D01*
X131226539Y-55742745D01*
X131226537Y-55742746D01*
X131017553Y-55798739D01*
X130817657Y-55881536D01*
X130817653Y-55881538D01*
X130630280Y-55989716D01*
X130458630Y-56121425D01*
X130458625Y-56121429D01*
X129760807Y-56819247D01*
X129754703Y-56824600D01*
X129722906Y-56848999D01*
X129700809Y-56865955D01*
X129698494Y-56867731D01*
X129670458Y-56883916D01*
X129670248Y-56884004D01*
X129616331Y-56906336D01*
X129585063Y-56914713D01*
X129514756Y-56923968D01*
X129506656Y-56924499D01*
X129433762Y-56924499D01*
X129433746Y-56924500D01*
X129020852Y-56924500D01*
X128970107Y-56913641D01*
X128569679Y-56734046D01*
X128566405Y-56732331D01*
X128564611Y-56731524D01*
X128564607Y-56731522D01*
X128564606Y-56731522D01*
X128402196Y-56680914D01*
X128402194Y-56680913D01*
X128402192Y-56680913D01*
X128348463Y-56676031D01*
X128331616Y-56674500D01*
X127668384Y-56674500D01*
X127597804Y-56680914D01*
X127576935Y-56687417D01*
X127435388Y-56731523D01*
X127433611Y-56732322D01*
X127430332Y-56734040D01*
X127029892Y-56913641D01*
X126979147Y-56924500D01*
X124841930Y-56924500D01*
X124791541Y-56913800D01*
X124791183Y-56913641D01*
X124491753Y-56780472D01*
X123620236Y-56392872D01*
X123617771Y-56391804D01*
X123617770Y-56391804D01*
X123575125Y-56376343D01*
X123570057Y-56374247D01*
X123546496Y-56363261D01*
X123546493Y-56363260D01*
X123326697Y-56304366D01*
X123326693Y-56304365D01*
X123326692Y-56304365D01*
X123326691Y-56304364D01*
X123326686Y-56304364D01*
X123100002Y-56284532D01*
X123099998Y-56284532D01*
X122873313Y-56304364D01*
X122873302Y-56304366D01*
X122653511Y-56363258D01*
X122653502Y-56363261D01*
X122447267Y-56459431D01*
X122447265Y-56459432D01*
X122260858Y-56589954D01*
X122099954Y-56750858D01*
X121969432Y-56937265D01*
X121969431Y-56937267D01*
X121873261Y-57143502D01*
X121873258Y-57143511D01*
X121814366Y-57363302D01*
X121814364Y-57363313D01*
X121794532Y-57589998D01*
X121794532Y-57590001D01*
X116050500Y-57590001D01*
X116050500Y-51674330D01*
X116070185Y-51607291D01*
X116079470Y-51599244D01*
X116053806Y-51554111D01*
X116050500Y-51525669D01*
X116050500Y-50591876D01*
X116050613Y-50588132D01*
X116056482Y-50491100D01*
X116070082Y-50283596D01*
X116070962Y-50276501D01*
X116095836Y-50140771D01*
X116128944Y-49974326D01*
X116130547Y-49968029D01*
X116173922Y-49828834D01*
X116226160Y-49674946D01*
X116228311Y-49669481D01*
X116289520Y-49533481D01*
X116360211Y-49390136D01*
X116362733Y-49385530D01*
X116440083Y-49257577D01*
X116441550Y-49255270D01*
X116528995Y-49124400D01*
X116531718Y-49120639D01*
X116624343Y-49002412D01*
X116626487Y-48999827D01*
X116729905Y-48881901D01*
X116732629Y-48878992D01*
X116838992Y-48772629D01*
X116841901Y-48769905D01*
X116959827Y-48666487D01*
X116962412Y-48664343D01*
X117080639Y-48571718D01*
X117084400Y-48568995D01*
X117215270Y-48481550D01*
X117217577Y-48480083D01*
X117345530Y-48402733D01*
X117350136Y-48400211D01*
X117493481Y-48329520D01*
X117629481Y-48268311D01*
X117634946Y-48266160D01*
X117788812Y-48213929D01*
X117928029Y-48170547D01*
X117934326Y-48168944D01*
X118100771Y-48135836D01*
X118236501Y-48110962D01*
X118243596Y-48110082D01*
X118451027Y-48096486D01*
X118548132Y-48090613D01*
X118551876Y-48090500D01*
X119055726Y-48090500D01*
X119122765Y-48110185D01*
G37*
%TD.AperFunction*%
%TA.AperFunction,Conductor*%
G36*
X158551867Y-48090613D02*
G01*
X158568189Y-48091600D01*
X158648917Y-48096483D01*
X158856399Y-48110082D01*
X158863502Y-48110963D01*
X158999227Y-48135836D01*
X159165664Y-48168942D01*
X159171961Y-48170544D01*
X159302376Y-48211183D01*
X159311157Y-48213920D01*
X159465039Y-48266155D01*
X159470539Y-48268321D01*
X159606505Y-48329514D01*
X159749853Y-48400206D01*
X159754488Y-48402744D01*
X159815523Y-48439641D01*
X159882387Y-48480062D01*
X159884758Y-48481570D01*
X160015590Y-48568990D01*
X160019382Y-48571736D01*
X160137552Y-48664316D01*
X160140196Y-48666508D01*
X160258075Y-48769885D01*
X160261037Y-48772659D01*
X160367339Y-48878961D01*
X160370113Y-48881923D01*
X160473490Y-48999802D01*
X160475682Y-49002446D01*
X160568262Y-49120616D01*
X160571008Y-49124408D01*
X160658428Y-49255240D01*
X160659936Y-49257611D01*
X160737251Y-49385505D01*
X160739799Y-49390160D01*
X160810491Y-49533507D01*
X160871675Y-49669454D01*
X160873848Y-49674973D01*
X160926079Y-49828842D01*
X160969446Y-49968008D01*
X160971063Y-49974362D01*
X161004167Y-50140791D01*
X161029033Y-50276486D01*
X161029917Y-50283612D01*
X161043517Y-50491100D01*
X161049387Y-50588134D01*
X161049500Y-50591879D01*
X161049500Y-51525669D01*
X161029815Y-51592708D01*
X161020529Y-51600754D01*
X161046194Y-51645888D01*
X161049500Y-51674330D01*
X161049500Y-75588120D01*
X161049387Y-75591865D01*
X161043517Y-75688899D01*
X161029917Y-75896386D01*
X161029033Y-75903512D01*
X161004167Y-76039208D01*
X160971063Y-76205636D01*
X160969446Y-76211990D01*
X160926079Y-76351157D01*
X160873848Y-76505025D01*
X160871675Y-76510544D01*
X160810491Y-76646492D01*
X160739799Y-76789838D01*
X160737251Y-76794493D01*
X160659936Y-76922387D01*
X160658428Y-76924758D01*
X160571008Y-77055590D01*
X160568262Y-77059382D01*
X160475682Y-77177552D01*
X160473490Y-77180196D01*
X160370113Y-77298075D01*
X160367339Y-77301037D01*
X160261037Y-77407339D01*
X160258075Y-77410113D01*
X160140196Y-77513490D01*
X160137552Y-77515682D01*
X160019382Y-77608262D01*
X160015590Y-77611008D01*
X159884758Y-77698428D01*
X159882387Y-77699936D01*
X159754493Y-77777251D01*
X159749838Y-77779799D01*
X159606492Y-77850491D01*
X159470544Y-77911675D01*
X159465025Y-77913848D01*
X159311157Y-77966079D01*
X159171990Y-78009446D01*
X159165636Y-78011063D01*
X158999208Y-78044167D01*
X158863512Y-78069033D01*
X158856386Y-78069917D01*
X158648899Y-78083517D01*
X158551866Y-78089387D01*
X158548121Y-78089500D01*
X125640478Y-78089500D01*
X125573439Y-78069815D01*
X125527684Y-78017011D01*
X125517740Y-77947853D01*
X125546765Y-77884297D01*
X125605543Y-77846523D01*
X125613822Y-77844399D01*
X125884274Y-77784868D01*
X126223435Y-77670591D01*
X126548253Y-77520315D01*
X126854919Y-77335800D01*
X127139837Y-77119211D01*
X127399668Y-76873086D01*
X127631365Y-76600311D01*
X127832211Y-76304085D01*
X127999853Y-75987880D01*
X128132324Y-75655403D01*
X128228071Y-75310552D01*
X128282616Y-74977841D01*
X128285970Y-74957385D01*
X128285970Y-74957382D01*
X128285972Y-74957371D01*
X128305348Y-74600000D01*
X128285972Y-74242629D01*
X128281344Y-74214401D01*
X128228073Y-73889460D01*
X128228072Y-73889459D01*
X128228071Y-73889448D01*
X128161826Y-73650853D01*
X128132327Y-73544607D01*
X128132325Y-73544600D01*
X128104817Y-73475561D01*
X128079455Y-73411905D01*
X127999857Y-73212129D01*
X127999848Y-73212111D01*
X127930745Y-73081770D01*
X127902153Y-73027839D01*
X127832215Y-72895922D01*
X127832213Y-72895919D01*
X127832211Y-72895915D01*
X127631365Y-72599689D01*
X127631361Y-72599684D01*
X127631358Y-72599680D01*
X127399668Y-72326914D01*
X127297559Y-72230191D01*
X127153811Y-72094026D01*
X127118679Y-72033633D01*
X127121774Y-71963832D01*
X127162116Y-71906785D01*
X127226895Y-71880605D01*
X127295545Y-71893603D01*
X127299044Y-71895464D01*
X127504356Y-72008932D01*
X127510224Y-72012620D01*
X127719434Y-72161059D01*
X127724863Y-72165389D01*
X127917056Y-72337140D01*
X127919584Y-72339530D01*
X128382187Y-72802133D01*
X128382198Y-72802145D01*
X128400636Y-72820583D01*
X128400685Y-72820673D01*
X128436331Y-72856318D01*
X128549034Y-72969019D01*
X128793229Y-73173918D01*
X128793228Y-73173918D01*
X128884039Y-73237503D01*
X129054352Y-73356755D01*
X129145855Y-73409583D01*
X129330411Y-73516134D01*
X129330415Y-73516135D01*
X129330417Y-73516137D01*
X129437465Y-73566053D01*
X129619326Y-73650854D01*
X129619326Y-73650853D01*
X129735515Y-73693141D01*
X129918872Y-73759875D01*
X129918871Y-73759874D01*
X130226779Y-73842374D01*
X130226785Y-73842375D01*
X130226786Y-73842376D01*
X130404519Y-73873712D01*
X130540707Y-73897724D01*
X130540713Y-73897724D01*
X130540716Y-73897725D01*
X130540715Y-73897725D01*
X130648082Y-73907116D01*
X130786306Y-73919207D01*
X130851374Y-73944658D01*
X130892354Y-74001248D01*
X130899500Y-74042730D01*
X130899500Y-74064361D01*
X130914953Y-74181753D01*
X130914957Y-74181765D01*
X130923566Y-74202550D01*
X130931033Y-74272019D01*
X130923566Y-74297450D01*
X130914957Y-74318234D01*
X130914955Y-74318239D01*
X130899500Y-74435638D01*
X130899500Y-74714363D01*
X130914953Y-74831753D01*
X130914956Y-74831762D01*
X130964273Y-74950825D01*
X130975464Y-74977841D01*
X131071718Y-75103282D01*
X131197159Y-75199536D01*
X131343238Y-75260044D01*
X131460639Y-75275500D01*
X132710101Y-75275499D01*
X132733073Y-75277645D01*
X132737350Y-75278452D01*
X132742770Y-75278828D01*
X132803119Y-75275932D01*
X132810675Y-75275570D01*
X132813647Y-75275499D01*
X132814364Y-75275499D01*
X132816458Y-75275361D01*
X132818018Y-75275217D01*
X132860857Y-75273162D01*
X133136710Y-75227187D01*
X133157095Y-75225500D01*
X133653569Y-75225500D01*
X133653869Y-75225490D01*
X133718956Y-75225491D01*
X133857775Y-75207216D01*
X133933460Y-75197254D01*
X133933461Y-75197253D01*
X133933464Y-75197253D01*
X134054104Y-75164929D01*
X134142446Y-75141260D01*
X134142448Y-75141258D01*
X134142452Y-75141258D01*
X134342342Y-75058464D01*
X134529715Y-74950287D01*
X134701366Y-74818578D01*
X134710848Y-74809094D01*
X134710856Y-74809089D01*
X134719756Y-74800188D01*
X134719758Y-74800188D01*
X136510020Y-73009924D01*
X136571341Y-72976441D01*
X136641032Y-72981425D01*
X136696075Y-73022121D01*
X136700463Y-73027839D01*
X136700464Y-73027841D01*
X136796718Y-73153282D01*
X136922159Y-73249536D01*
X137068238Y-73310044D01*
X137185639Y-73325500D01*
X138539360Y-73325499D01*
X138539363Y-73325499D01*
X138656753Y-73310046D01*
X138656757Y-73310044D01*
X138656762Y-73310044D01*
X138802841Y-73249536D01*
X138928282Y-73153282D01*
X139024536Y-73027841D01*
X139085044Y-72881762D01*
X139100500Y-72764361D01*
X139100499Y-72485640D01*
X139100499Y-72485639D01*
X139100499Y-72485636D01*
X139085046Y-72368246D01*
X139085044Y-72368239D01*
X139085044Y-72368238D01*
X139024536Y-72222159D01*
X138928282Y-72096718D01*
X138802841Y-72000464D01*
X138695809Y-71956130D01*
X138656762Y-71939956D01*
X138626903Y-71936025D01*
X138563007Y-71907758D01*
X138524537Y-71849433D01*
X138523706Y-71779568D01*
X138560779Y-71720345D01*
X138574202Y-71709982D01*
X138576219Y-71708633D01*
X138576230Y-71708627D01*
X138727076Y-71592872D01*
X138771892Y-71548054D01*
X139666274Y-70653671D01*
X139666305Y-70653654D01*
X139704590Y-70615367D01*
X139704591Y-70615368D01*
X139781085Y-70538872D01*
X139912795Y-70367221D01*
X140020973Y-70179846D01*
X140103768Y-69979955D01*
X140159763Y-69770966D01*
X140166364Y-69720815D01*
X140194630Y-69656919D01*
X140252953Y-69618447D01*
X140254635Y-69617944D01*
X140310398Y-69601744D01*
X140451865Y-69518081D01*
X140568081Y-69401865D01*
X140593768Y-69358429D01*
X140644836Y-69310747D01*
X140713578Y-69298243D01*
X140778167Y-69324888D01*
X140818098Y-69382223D01*
X140824500Y-69421551D01*
X140824500Y-69431613D01*
X140830913Y-69502192D01*
X140830913Y-69502194D01*
X140830914Y-69502196D01*
X140881522Y-69664606D01*
X140942642Y-69765711D01*
X140969530Y-69810188D01*
X141089811Y-69930469D01*
X141089813Y-69930470D01*
X141089815Y-69930472D01*
X141235394Y-70018478D01*
X141397804Y-70069086D01*
X141468384Y-70075500D01*
X141468387Y-70075500D01*
X142131613Y-70075500D01*
X142131616Y-70075500D01*
X142202196Y-70069086D01*
X142364606Y-70018478D01*
X142510185Y-69930472D01*
X142524202Y-69916454D01*
X142585523Y-69882969D01*
X142655215Y-69887952D01*
X142711149Y-69929822D01*
X142735568Y-69995286D01*
X142735689Y-69997184D01*
X142749401Y-70241407D01*
X142749499Y-70244883D01*
X142749499Y-70319664D01*
X142749500Y-70319681D01*
X142749500Y-70780751D01*
X142749499Y-70780773D01*
X142749499Y-70855629D01*
X142749401Y-70859105D01*
X142734925Y-71116953D01*
X142734146Y-71123867D01*
X142728461Y-71157330D01*
X142698397Y-71334293D01*
X142691184Y-71376747D01*
X142689635Y-71383531D01*
X142618628Y-71630012D01*
X142616330Y-71636579D01*
X142518169Y-71873569D01*
X142515150Y-71879838D01*
X142442440Y-72011402D01*
X142401474Y-72085528D01*
X142391078Y-72104338D01*
X142387375Y-72110230D01*
X142238944Y-72319428D01*
X142234606Y-72324868D01*
X142062867Y-72517047D01*
X142060477Y-72519575D01*
X141367933Y-73212121D01*
X141344940Y-73235114D01*
X141342413Y-73237503D01*
X141149851Y-73409583D01*
X141144411Y-73413921D01*
X141039813Y-73488136D01*
X140935209Y-73562354D01*
X140929327Y-73566049D01*
X140871313Y-73598112D01*
X140704829Y-73690122D01*
X140698560Y-73693141D01*
X140461567Y-73791304D01*
X140454999Y-73793602D01*
X140208525Y-73864606D01*
X140201742Y-73866154D01*
X140150891Y-73874794D01*
X139948864Y-73909117D01*
X139941950Y-73909896D01*
X139683592Y-73924401D01*
X139680116Y-73924499D01*
X139605335Y-73924499D01*
X139605319Y-73924500D01*
X138882102Y-73924500D01*
X138861717Y-73922813D01*
X138585863Y-73876838D01*
X138585857Y-73876837D01*
X138585846Y-73876836D01*
X138585841Y-73876836D01*
X138543311Y-73874794D01*
X138541663Y-73874650D01*
X138539361Y-73874500D01*
X138539360Y-73874500D01*
X138538647Y-73874500D01*
X138535675Y-73874429D01*
X138467774Y-73871171D01*
X138467772Y-73871171D01*
X138467770Y-73871171D01*
X138462350Y-73871547D01*
X138458072Y-73872353D01*
X138435102Y-73874500D01*
X137185636Y-73874500D01*
X137068246Y-73889953D01*
X137068237Y-73889956D01*
X136922160Y-73950463D01*
X136796718Y-74046718D01*
X136700463Y-74172160D01*
X136639956Y-74318237D01*
X136639955Y-74318239D01*
X136624500Y-74435638D01*
X136624500Y-74714363D01*
X136639953Y-74831753D01*
X136639956Y-74831762D01*
X136689273Y-74950825D01*
X136700464Y-74977841D01*
X136796718Y-75103282D01*
X136922159Y-75199536D01*
X137068238Y-75260044D01*
X137185639Y-75275500D01*
X138435101Y-75275499D01*
X138458073Y-75277645D01*
X138462350Y-75278452D01*
X138467770Y-75278828D01*
X138528119Y-75275932D01*
X138535675Y-75275570D01*
X138538647Y-75275499D01*
X138539364Y-75275499D01*
X138541458Y-75275361D01*
X138543018Y-75275217D01*
X138585857Y-75273162D01*
X138861710Y-75227187D01*
X138882095Y-75225500D01*
X139724811Y-75225500D01*
X139725713Y-75225471D01*
X139841734Y-75225473D01*
X140090584Y-75203704D01*
X140159281Y-75197696D01*
X140159284Y-75197695D01*
X140159289Y-75197695D01*
X140268832Y-75178381D01*
X140473208Y-75142348D01*
X140473209Y-75142347D01*
X140473208Y-75142347D01*
X140473215Y-75142346D01*
X140636826Y-75098508D01*
X140781124Y-75059846D01*
X141006438Y-74977841D01*
X141080663Y-74950826D01*
X141080663Y-74950827D01*
X141336005Y-74831762D01*
X141369570Y-74816111D01*
X141369571Y-74816109D01*
X141369576Y-74816108D01*
X141545812Y-74714360D01*
X141645633Y-74656730D01*
X141784940Y-74559187D01*
X141906755Y-74473895D01*
X141906754Y-74473895D01*
X142150946Y-74268998D01*
X142205541Y-74214403D01*
X142205545Y-74214401D01*
X142263649Y-74156297D01*
X142315476Y-74104471D01*
X142315476Y-74104469D01*
X142325681Y-74094265D01*
X142325684Y-74094260D01*
X142944333Y-73475612D01*
X142944427Y-73475561D01*
X142981319Y-73438668D01*
X143010404Y-73409583D01*
X143094019Y-73325966D01*
X143094020Y-73325965D01*
X143298919Y-73081770D01*
X143298919Y-73081771D01*
X143481753Y-72820651D01*
X143641134Y-72544588D01*
X143652798Y-72519575D01*
X143736752Y-72339530D01*
X143775854Y-72255673D01*
X143775853Y-72255673D01*
X143785128Y-72230191D01*
X143828788Y-72110230D01*
X143884874Y-71956132D01*
X143947081Y-71723959D01*
X143967374Y-71648221D01*
X143967375Y-71648214D01*
X143967376Y-71648214D01*
X144001341Y-71455573D01*
X144022724Y-71334293D01*
X144050502Y-71016735D01*
X144050500Y-70857350D01*
X144050500Y-70822037D01*
X144050500Y-70201716D01*
X144050500Y-70200189D01*
X144050471Y-70199285D01*
X144050471Y-70179846D01*
X144050473Y-70083266D01*
X144029109Y-69839037D01*
X144022696Y-69765719D01*
X144021165Y-69757037D01*
X144000265Y-69638492D01*
X143967348Y-69451792D01*
X143967347Y-69451791D01*
X143967346Y-69451785D01*
X143912666Y-69247707D01*
X143884846Y-69143876D01*
X143775826Y-68844337D01*
X143775827Y-68844337D01*
X143661893Y-68599999D01*
X143641111Y-68555430D01*
X143626705Y-68530478D01*
X143522220Y-68349499D01*
X143481730Y-68279367D01*
X143356139Y-68100000D01*
X143298895Y-68018245D01*
X143298895Y-68018246D01*
X143093998Y-67774054D01*
X143041555Y-67721610D01*
X143041545Y-67721599D01*
X142956346Y-67636400D01*
X142927150Y-67607202D01*
X142927128Y-67607182D01*
X142725614Y-67405668D01*
X142725562Y-67405573D01*
X142575966Y-67255981D01*
X142575965Y-67255980D01*
X142331770Y-67051081D01*
X142331771Y-67051081D01*
X142070651Y-66868247D01*
X141794588Y-66708866D01*
X141783140Y-66703528D01*
X141505677Y-66574148D01*
X141505678Y-66574148D01*
X141505673Y-66574146D01*
X141390327Y-66532165D01*
X141206132Y-66465126D01*
X141018317Y-66414804D01*
X140898221Y-66382626D01*
X140898216Y-66382625D01*
X140898212Y-66382624D01*
X140660657Y-66340739D01*
X140635085Y-66333328D01*
X140328331Y-66207361D01*
X140312322Y-66199393D01*
X140310401Y-66198257D01*
X140310394Y-66198254D01*
X140261936Y-66184176D01*
X140229000Y-66174338D01*
X140228998Y-66174337D01*
X140228654Y-66174235D01*
X140223475Y-66173002D01*
X140213778Y-66170185D01*
X140208237Y-66168575D01*
X140149354Y-66130969D01*
X140120149Y-66067496D01*
X140129896Y-65998309D01*
X140175500Y-65945375D01*
X140242484Y-65925501D01*
X140242836Y-65925500D01*
X141521243Y-65925500D01*
X141574932Y-65937725D01*
X142036487Y-66159431D01*
X142040543Y-66161648D01*
X142041300Y-66162001D01*
X142041303Y-66162003D01*
X142041305Y-66162003D01*
X142041306Y-66162004D01*
X142202288Y-66215348D01*
X142202289Y-66215348D01*
X142202292Y-66215349D01*
X142301655Y-66225500D01*
X142880893Y-66225499D01*
X142913547Y-66226549D01*
X143241981Y-66190056D01*
X143570413Y-66153565D01*
X143583282Y-66151796D01*
X143588515Y-66151077D01*
X143596961Y-66150500D01*
X144467066Y-66150500D01*
X144534105Y-66170185D01*
X144579860Y-66222989D01*
X144586841Y-66242408D01*
X144633739Y-66417446D01*
X144684338Y-66539606D01*
X144716536Y-66617342D01*
X144824713Y-66804715D01*
X144956422Y-66976366D01*
X144956424Y-66976368D01*
X144956431Y-66976377D01*
X144958799Y-66979078D01*
X144986230Y-67032278D01*
X145293597Y-68331529D01*
X145296612Y-68368920D01*
X145294390Y-68399996D01*
X145294390Y-68400001D01*
X145314804Y-68685433D01*
X145375628Y-68965037D01*
X145375630Y-68965043D01*
X145375631Y-68965046D01*
X145442332Y-69143878D01*
X145475635Y-69233166D01*
X145612770Y-69484309D01*
X145612775Y-69484317D01*
X145784254Y-69713387D01*
X145784270Y-69713405D01*
X145986594Y-69915729D01*
X145986612Y-69915745D01*
X146215682Y-70087224D01*
X146215690Y-70087229D01*
X146466833Y-70224364D01*
X146466832Y-70224364D01*
X146466836Y-70224365D01*
X146466839Y-70224367D01*
X146734954Y-70324369D01*
X146734960Y-70324370D01*
X146734962Y-70324371D01*
X147014566Y-70385195D01*
X147014568Y-70385195D01*
X147014572Y-70385196D01*
X147268220Y-70403337D01*
X147299999Y-70405610D01*
X147300000Y-70405610D01*
X147300001Y-70405610D01*
X147328595Y-70403564D01*
X147585428Y-70385196D01*
X147621841Y-70377275D01*
X147865037Y-70324371D01*
X147865037Y-70324370D01*
X147865046Y-70324369D01*
X148133161Y-70224367D01*
X148384315Y-70087226D01*
X148613395Y-69915739D01*
X148815739Y-69713395D01*
X148987226Y-69484315D01*
X149124367Y-69233161D01*
X149224369Y-68965046D01*
X149285196Y-68685428D01*
X149305610Y-68400000D01*
X149285196Y-68114572D01*
X149276292Y-68073642D01*
X149224371Y-67834962D01*
X149224370Y-67834960D01*
X149224369Y-67834954D01*
X149124367Y-67566839D01*
X149121455Y-67561507D01*
X148987229Y-67315690D01*
X148987224Y-67315682D01*
X148815745Y-67086612D01*
X148815729Y-67086594D01*
X148613405Y-66884270D01*
X148613387Y-66884254D01*
X148384317Y-66712775D01*
X148384309Y-66712770D01*
X148133166Y-66575635D01*
X148133167Y-66575635D01*
X148025915Y-66535632D01*
X147865046Y-66475631D01*
X147865043Y-66475630D01*
X147865037Y-66475628D01*
X147585433Y-66414804D01*
X147300001Y-66394390D01*
X147299996Y-66394390D01*
X147268920Y-66396612D01*
X147231529Y-66393597D01*
X146267594Y-66165556D01*
X146206887Y-66130967D01*
X146174518Y-66069047D01*
X146180763Y-65999457D01*
X146197759Y-65969409D01*
X146277698Y-65865233D01*
X146335687Y-65725236D01*
X146350500Y-65612720D01*
X146350500Y-65387280D01*
X146335687Y-65274764D01*
X146277698Y-65134767D01*
X146185451Y-65014549D01*
X146118758Y-64963373D01*
X146077558Y-64906948D01*
X146073403Y-64837202D01*
X146107616Y-64776281D01*
X146118749Y-64766633D01*
X146185451Y-64715451D01*
X146277698Y-64595233D01*
X146335687Y-64455236D01*
X146350500Y-64342720D01*
X146350500Y-64117280D01*
X146335687Y-64004764D01*
X146335685Y-64004760D01*
X146333632Y-63997095D01*
X146333632Y-63932905D01*
X146335684Y-63925241D01*
X146335687Y-63925236D01*
X146350500Y-63812720D01*
X146350500Y-63587280D01*
X146335687Y-63474764D01*
X146277698Y-63334767D01*
X146185451Y-63214549D01*
X146065233Y-63122302D01*
X146065229Y-63122300D01*
X145949829Y-63074500D01*
X145925236Y-63064313D01*
X145909748Y-63062274D01*
X145812727Y-63049500D01*
X145812720Y-63049500D01*
X145282177Y-63049500D01*
X143668205Y-63049500D01*
X143618466Y-63039087D01*
X143606675Y-63033924D01*
X143437429Y-62959812D01*
X143147206Y-62832725D01*
X143114864Y-62823472D01*
X142997709Y-62784651D01*
X142898346Y-62774500D01*
X142301662Y-62774500D01*
X142301644Y-62774501D01*
X142202292Y-62784650D01*
X142202289Y-62784651D01*
X142041301Y-62837997D01*
X142040529Y-62838357D01*
X142036476Y-62840572D01*
X141574931Y-63062274D01*
X141521241Y-63074500D01*
X140216254Y-63074500D01*
X140216238Y-63074499D01*
X140143269Y-63074499D01*
X140135169Y-63073968D01*
X140064933Y-63064722D01*
X140033666Y-63056345D01*
X139979535Y-63033924D01*
X139951500Y-63017738D01*
X139895350Y-62974653D01*
X139889253Y-62969307D01*
X139816173Y-62896227D01*
X139816156Y-62896196D01*
X139757140Y-62837181D01*
X139723654Y-62775858D01*
X139728638Y-62706166D01*
X139770509Y-62650233D01*
X139835973Y-62625815D01*
X139844805Y-62625499D01*
X140150008Y-62625499D01*
X140150016Y-62625498D01*
X140150019Y-62625498D01*
X140225582Y-62617779D01*
X140252797Y-62614999D01*
X140419334Y-62559814D01*
X140568656Y-62467712D01*
X140692712Y-62343656D01*
X140784814Y-62194334D01*
X140839999Y-62027797D01*
X140850500Y-61925009D01*
X140850499Y-60874992D01*
X140846943Y-60840185D01*
X140839999Y-60772203D01*
X140839998Y-60772200D01*
X140824455Y-60725295D01*
X140784814Y-60605666D01*
X140783466Y-60603482D01*
X140780913Y-60598922D01*
X140778213Y-60593585D01*
X140513850Y-60070936D01*
X140500500Y-60014967D01*
X140500500Y-59854499D01*
X140520185Y-59787460D01*
X140572989Y-59741705D01*
X140624500Y-59730499D01*
X142116097Y-59730499D01*
X142182882Y-59724431D01*
X142182884Y-59724430D01*
X142182887Y-59724430D01*
X142269458Y-59697452D01*
X142274202Y-59696178D01*
X142309241Y-59688255D01*
X142578779Y-59585190D01*
X142635038Y-59563678D01*
X142679325Y-59555500D01*
X142717497Y-59555500D01*
X142717501Y-59555501D01*
X142786729Y-59555500D01*
X142794827Y-59556030D01*
X142865066Y-59565277D01*
X142896333Y-59573654D01*
X142950464Y-59596075D01*
X142978498Y-59612260D01*
X143034648Y-59655345D01*
X143040744Y-59660690D01*
X143450239Y-60070185D01*
X143858826Y-60478772D01*
X143858842Y-60478802D01*
X143973619Y-60593577D01*
X143973624Y-60593581D01*
X143973628Y-60593585D01*
X144145279Y-60725295D01*
X144248696Y-60785001D01*
X144332648Y-60833470D01*
X144332650Y-60833471D01*
X144332654Y-60833473D01*
X144532545Y-60916268D01*
X144741534Y-60972263D01*
X144774339Y-60976581D01*
X144798332Y-60982210D01*
X144919538Y-61023725D01*
X145186940Y-61115315D01*
X145230316Y-61128036D01*
X145237406Y-61128730D01*
X145259902Y-61133062D01*
X145309928Y-61147597D01*
X145309931Y-61147598D01*
X145346804Y-61150500D01*
X145346806Y-61150500D01*
X146653196Y-61150500D01*
X146671631Y-61149049D01*
X146690069Y-61147598D01*
X146690071Y-61147597D01*
X146690073Y-61147597D01*
X146757401Y-61128036D01*
X146847898Y-61101744D01*
X146989365Y-61018081D01*
X147105581Y-60901865D01*
X147189244Y-60760398D01*
X147235098Y-60602569D01*
X147238000Y-60565694D01*
X147238000Y-60324500D01*
X147257685Y-60257461D01*
X147310489Y-60211706D01*
X147362000Y-60200500D01*
X148528196Y-60200500D01*
X148546631Y-60199049D01*
X148565069Y-60197598D01*
X148655596Y-60171296D01*
X148660784Y-60170029D01*
X148692565Y-60163702D01*
X148993231Y-60057570D01*
X149034505Y-60050500D01*
X152320407Y-60050500D01*
X152387446Y-60070185D01*
X152433201Y-60122989D01*
X152443145Y-60192147D01*
X152427794Y-60236499D01*
X152422005Y-60246526D01*
X152372821Y-60331715D01*
X152372818Y-60331722D01*
X152324343Y-60480914D01*
X152314326Y-60511744D01*
X152294540Y-60700000D01*
X152314326Y-60888256D01*
X152314327Y-60888259D01*
X152348956Y-60994838D01*
X152350942Y-61002637D01*
X152355277Y-61025881D01*
X152542922Y-61578789D01*
X152549500Y-61618639D01*
X152549500Y-61807702D01*
X152546459Y-61834994D01*
X152469170Y-62177540D01*
X152465534Y-62195097D01*
X152465198Y-62197796D01*
X152461227Y-62217050D01*
X152452404Y-62247421D01*
X152452401Y-62247437D01*
X152449500Y-62284304D01*
X152449500Y-63590696D01*
X152452401Y-63627567D01*
X152452402Y-63627573D01*
X152498254Y-63785393D01*
X152498255Y-63785396D01*
X152581917Y-63926862D01*
X152581923Y-63926870D01*
X152698129Y-64043076D01*
X152698133Y-64043079D01*
X152698135Y-64043081D01*
X152839602Y-64126744D01*
X152881224Y-64138836D01*
X152997426Y-64172597D01*
X152997429Y-64172597D01*
X152997431Y-64172598D01*
X153009722Y-64173565D01*
X153034304Y-64175500D01*
X153034306Y-64175500D01*
X153465696Y-64175500D01*
X153484131Y-64174049D01*
X153502569Y-64172598D01*
X153502571Y-64172597D01*
X153502573Y-64172597D01*
X153544191Y-64160505D01*
X153660398Y-64126744D01*
X153801865Y-64043081D01*
X153918081Y-63926865D01*
X154001744Y-63785398D01*
X154043932Y-63640187D01*
X154047597Y-63627573D01*
X154047598Y-63627567D01*
X154050500Y-63590696D01*
X154050500Y-62424500D01*
X154070185Y-62357461D01*
X154122989Y-62311706D01*
X154174500Y-62300500D01*
X154225500Y-62300500D01*
X154292539Y-62320185D01*
X154338294Y-62372989D01*
X154349500Y-62424500D01*
X154349500Y-63537005D01*
X154347979Y-63584308D01*
X154351470Y-63615727D01*
X154352402Y-63627567D01*
X154352403Y-63627576D01*
X154352993Y-63630811D01*
X154353620Y-63635090D01*
X154396435Y-64020413D01*
X154398922Y-64038512D01*
X154399500Y-64046962D01*
X154399500Y-65081275D01*
X154399508Y-65081591D01*
X154399508Y-65150510D01*
X154429455Y-65378010D01*
X154429456Y-65378012D01*
X154488842Y-65599657D01*
X154563839Y-65780720D01*
X154576656Y-65811665D01*
X154691387Y-66010391D01*
X154691389Y-66010394D01*
X154691390Y-66010395D01*
X154831072Y-66192436D01*
X154831076Y-66192441D01*
X154847843Y-66209209D01*
X154847875Y-66209243D01*
X154850180Y-66211548D01*
X154850181Y-66211549D01*
X155473547Y-66834915D01*
X155478889Y-66841007D01*
X155506131Y-66876509D01*
X155522313Y-66904539D01*
X155534742Y-66934546D01*
X155543121Y-66965817D01*
X155548968Y-67010247D01*
X155549499Y-67018346D01*
X155549499Y-67096822D01*
X155549500Y-67096839D01*
X155549500Y-67412298D01*
X155529815Y-67479337D01*
X155496625Y-67513872D01*
X155428595Y-67561507D01*
X155261505Y-67728597D01*
X155125965Y-67922169D01*
X155125964Y-67922171D01*
X155026098Y-68136335D01*
X155026094Y-68136344D01*
X154964938Y-68364586D01*
X154964936Y-68364596D01*
X154944341Y-68599999D01*
X154944341Y-68600000D01*
X154964936Y-68835403D01*
X154964938Y-68835413D01*
X155026094Y-69063655D01*
X155026096Y-69063659D01*
X155026097Y-69063663D01*
X155105138Y-69233166D01*
X155125965Y-69277830D01*
X155125967Y-69277834D01*
X155261501Y-69471395D01*
X155261506Y-69471402D01*
X155428595Y-69638492D01*
X155428598Y-69638494D01*
X155428599Y-69638495D01*
X155496623Y-69686125D01*
X155540248Y-69740701D01*
X155549500Y-69787700D01*
X155549500Y-69952298D01*
X155529815Y-70019337D01*
X155496625Y-70053872D01*
X155428595Y-70101507D01*
X155261505Y-70268597D01*
X155125965Y-70462169D01*
X155125964Y-70462171D01*
X155026098Y-70676335D01*
X155026094Y-70676344D01*
X154964938Y-70904586D01*
X154964936Y-70904596D01*
X154944341Y-71139999D01*
X154944341Y-71140000D01*
X154964936Y-71375403D01*
X154964938Y-71375413D01*
X155026094Y-71603655D01*
X155026096Y-71603659D01*
X155026097Y-71603663D01*
X155082192Y-71723959D01*
X155125965Y-71817830D01*
X155125967Y-71817834D01*
X155222804Y-71956130D01*
X155261505Y-72011401D01*
X155428599Y-72178495D01*
X155515062Y-72239037D01*
X155622165Y-72314032D01*
X155622167Y-72314033D01*
X155622170Y-72314035D01*
X155836337Y-72413903D01*
X156064592Y-72475063D01*
X156233376Y-72489830D01*
X156299999Y-72495659D01*
X156300000Y-72495659D01*
X156300001Y-72495659D01*
X156339234Y-72492226D01*
X156535408Y-72475063D01*
X156763663Y-72413903D01*
X156977830Y-72314035D01*
X157171401Y-72178495D01*
X157338495Y-72011401D01*
X157474035Y-71817830D01*
X157573903Y-71603663D01*
X157635063Y-71375408D01*
X157655659Y-71140000D01*
X157635063Y-70904592D01*
X157573903Y-70676337D01*
X157474035Y-70462171D01*
X157453348Y-70432626D01*
X157338494Y-70268597D01*
X157171404Y-70101507D01*
X157103375Y-70053872D01*
X157059751Y-69999294D01*
X157050500Y-69952298D01*
X157050500Y-69787700D01*
X157070185Y-69720661D01*
X157103375Y-69686126D01*
X157171401Y-69638495D01*
X157338495Y-69471401D01*
X157474035Y-69277830D01*
X157573903Y-69063663D01*
X157635063Y-68835408D01*
X157655659Y-68600000D01*
X157635063Y-68364592D01*
X157573903Y-68136337D01*
X157474035Y-67922171D01*
X157467238Y-67912463D01*
X157338494Y-67728597D01*
X157171404Y-67561507D01*
X157103375Y-67513872D01*
X157059751Y-67459294D01*
X157050500Y-67412298D01*
X157050500Y-66968741D01*
X157050490Y-66968422D01*
X157050490Y-66965370D01*
X157050492Y-66899491D01*
X157036204Y-66790957D01*
X157020544Y-66671989D01*
X157020543Y-66671987D01*
X156961157Y-66450342D01*
X156947534Y-66417452D01*
X156873344Y-66238335D01*
X156758613Y-66039609D01*
X156618924Y-65857559D01*
X156601314Y-65839948D01*
X156601292Y-65839923D01*
X156136332Y-65374964D01*
X155976451Y-65215083D01*
X155971111Y-65208993D01*
X155943867Y-65173488D01*
X155927687Y-65145463D01*
X155915256Y-65115449D01*
X155906880Y-65084190D01*
X155902355Y-65049812D01*
X155901031Y-65039752D01*
X155900500Y-65031652D01*
X155900500Y-65014549D01*
X155900501Y-64956916D01*
X155900500Y-64956911D01*
X155900500Y-64048045D01*
X155903449Y-64024899D01*
X155902762Y-64024773D01*
X155903563Y-64020417D01*
X155903564Y-64020415D01*
X155946377Y-63635090D01*
X155947008Y-63630794D01*
X155947596Y-63627576D01*
X155947598Y-63627569D01*
X155948532Y-63615695D01*
X155952020Y-63584307D01*
X155952311Y-63581625D01*
X155950500Y-63533324D01*
X155950500Y-62284306D01*
X155947598Y-62247431D01*
X155947595Y-62247421D01*
X155901745Y-62089606D01*
X155901744Y-62089603D01*
X155901744Y-62089602D01*
X155818081Y-61948135D01*
X155818079Y-61948133D01*
X155818076Y-61948129D01*
X155701870Y-61831923D01*
X155701862Y-61831917D01*
X155560396Y-61748255D01*
X155560393Y-61748254D01*
X155402573Y-61702402D01*
X155402567Y-61702401D01*
X155365696Y-61699500D01*
X155365694Y-61699500D01*
X155124500Y-61699500D01*
X155057461Y-61679815D01*
X155011706Y-61627011D01*
X155000500Y-61575500D01*
X155000500Y-60409304D01*
X154997598Y-60372432D01*
X154997597Y-60372429D01*
X154971773Y-60283542D01*
X154970468Y-60278160D01*
X154964279Y-60246530D01*
X154947188Y-60197598D01*
X154824698Y-59846900D01*
X154822940Y-59840916D01*
X154822172Y-59837719D01*
X154822170Y-59837706D01*
X154766211Y-59665475D01*
X154683998Y-59504119D01*
X154606467Y-59397404D01*
X154582990Y-59331601D01*
X154598816Y-59263547D01*
X154648922Y-59214853D01*
X154717400Y-59200978D01*
X154755112Y-59210327D01*
X154808206Y-59232794D01*
X155039152Y-59330524D01*
X155092599Y-59349679D01*
X155099893Y-59352293D01*
X155104184Y-59354014D01*
X155120197Y-59361144D01*
X155305354Y-59400500D01*
X155305355Y-59400500D01*
X155494644Y-59400500D01*
X155494646Y-59400500D01*
X155679803Y-59361144D01*
X155852730Y-59284151D01*
X156005871Y-59172888D01*
X156132533Y-59032216D01*
X156227179Y-58868284D01*
X156227182Y-58868272D01*
X156228391Y-58865557D01*
X156486023Y-58343220D01*
X156509543Y-58310401D01*
X156550654Y-58269290D01*
X156611975Y-58235807D01*
X156681667Y-58240791D01*
X156685213Y-58242302D01*
X156685228Y-58242266D01*
X156695595Y-58246390D01*
X156713910Y-58255491D01*
X156735386Y-58268474D01*
X156735390Y-58268476D01*
X156735394Y-58268478D01*
X156789990Y-58285490D01*
X156805670Y-58290376D01*
X156810133Y-58291956D01*
X156821372Y-58296428D01*
X156827703Y-58297961D01*
X156829951Y-58298383D01*
X156836941Y-58300120D01*
X156897804Y-58319086D01*
X156968384Y-58325500D01*
X156968387Y-58325500D01*
X157631613Y-58325500D01*
X157631616Y-58325500D01*
X157702196Y-58319086D01*
X157864606Y-58268478D01*
X158010185Y-58180472D01*
X158130472Y-58060185D01*
X158218478Y-57914606D01*
X158269086Y-57752196D01*
X158275500Y-57681616D01*
X158275500Y-57168384D01*
X158269086Y-57097804D01*
X158218478Y-56935394D01*
X158130472Y-56789815D01*
X158130470Y-56789813D01*
X158130469Y-56789811D01*
X158028339Y-56687681D01*
X157994854Y-56626358D01*
X157999838Y-56556666D01*
X158028339Y-56512319D01*
X158130468Y-56410189D01*
X158130469Y-56410188D01*
X158130472Y-56410185D01*
X158218478Y-56264606D01*
X158269086Y-56102196D01*
X158275500Y-56031616D01*
X158275500Y-55518384D01*
X158269086Y-55447804D01*
X158218478Y-55285394D01*
X158130472Y-55139815D01*
X158130470Y-55139813D01*
X158130469Y-55139811D01*
X158045455Y-55054797D01*
X158011970Y-54993474D01*
X158016954Y-54923782D01*
X158058826Y-54867849D01*
X158106479Y-54846015D01*
X158384274Y-54784868D01*
X158723435Y-54670591D01*
X159048253Y-54520315D01*
X159354919Y-54335800D01*
X159639837Y-54119211D01*
X159899668Y-53873086D01*
X160131365Y-53600311D01*
X160332211Y-53304085D01*
X160499853Y-52987880D01*
X160632324Y-52655403D01*
X160728071Y-52310552D01*
X160752259Y-52163011D01*
X160785970Y-51957385D01*
X160785970Y-51957382D01*
X160785972Y-51957371D01*
X160801682Y-51667617D01*
X160824967Y-51601741D01*
X160830300Y-51597603D01*
X160806523Y-51560604D01*
X160801682Y-51532382D01*
X160798250Y-51469086D01*
X160785972Y-51242629D01*
X160785351Y-51238842D01*
X160728073Y-50889460D01*
X160728072Y-50889459D01*
X160728071Y-50889448D01*
X160678498Y-50710903D01*
X160632327Y-50544607D01*
X160632325Y-50544600D01*
X160627127Y-50531555D01*
X160576920Y-50405543D01*
X160499857Y-50212129D01*
X160499848Y-50212111D01*
X160490488Y-50194457D01*
X160387402Y-50000016D01*
X160332215Y-49895922D01*
X160332213Y-49895919D01*
X160332211Y-49895915D01*
X160131365Y-49599689D01*
X160131361Y-49599684D01*
X160131358Y-49599680D01*
X159899668Y-49326914D01*
X159841979Y-49272268D01*
X159639837Y-49080789D01*
X159639830Y-49080783D01*
X159639827Y-49080781D01*
X159566423Y-49024981D01*
X159354919Y-48864200D01*
X159048253Y-48679685D01*
X159048252Y-48679684D01*
X159048248Y-48679682D01*
X159048244Y-48679680D01*
X158723447Y-48529414D01*
X158723441Y-48529411D01*
X158723435Y-48529409D01*
X158553854Y-48472270D01*
X158384273Y-48415131D01*
X158034744Y-48338194D01*
X158030867Y-48337773D01*
X157966349Y-48310956D01*
X157926571Y-48253514D01*
X157924164Y-48183686D01*
X157959890Y-48123641D01*
X158022408Y-48092443D01*
X158044274Y-48090500D01*
X158548123Y-48090500D01*
X158551867Y-48090613D01*
G37*
%TD.AperFunction*%
%TA.AperFunction,Conductor*%
G36*
X157022765Y-48110185D02*
G01*
X157068520Y-48162989D01*
X157078464Y-48232147D01*
X157049439Y-48295703D01*
X156990661Y-48333477D01*
X156969133Y-48337773D01*
X156965255Y-48338194D01*
X156615726Y-48415131D01*
X156395737Y-48489255D01*
X156276565Y-48529409D01*
X156276563Y-48529410D01*
X156276552Y-48529414D01*
X155951755Y-48679680D01*
X155951751Y-48679682D01*
X155801800Y-48769905D01*
X155645081Y-48864200D01*
X155601665Y-48897204D01*
X155360172Y-49080781D01*
X155360163Y-49080789D01*
X155100331Y-49326914D01*
X154868641Y-49599680D01*
X154868634Y-49599690D01*
X154667790Y-49895913D01*
X154667784Y-49895922D01*
X154500151Y-50212111D01*
X154500142Y-50212129D01*
X154367674Y-50544600D01*
X154367672Y-50544607D01*
X154271932Y-50889434D01*
X154271926Y-50889460D01*
X154214029Y-51242614D01*
X154214028Y-51242627D01*
X154214028Y-51242629D01*
X154209265Y-51330472D01*
X154194652Y-51599997D01*
X154194652Y-51600002D01*
X154194662Y-51600181D01*
X154213411Y-51945999D01*
X154214028Y-51957368D01*
X154214029Y-51957385D01*
X154271926Y-52310539D01*
X154271932Y-52310565D01*
X154367672Y-52655392D01*
X154367674Y-52655399D01*
X154500142Y-52987870D01*
X154500151Y-52987888D01*
X154667784Y-53304077D01*
X154667787Y-53304082D01*
X154667789Y-53304085D01*
X154840676Y-53559075D01*
X154868634Y-53600309D01*
X154868641Y-53600319D01*
X155081147Y-53850500D01*
X155100332Y-53873086D01*
X155360163Y-54119211D01*
X155645081Y-54335800D01*
X155951747Y-54520315D01*
X155951749Y-54520316D01*
X155951751Y-54520317D01*
X155951755Y-54520319D01*
X156250210Y-54658398D01*
X156276565Y-54670591D01*
X156504152Y-54747274D01*
X156561396Y-54787334D01*
X156587896Y-54851984D01*
X156575236Y-54920697D01*
X156527437Y-54971658D01*
X156495476Y-54984867D01*
X156356755Y-55020584D01*
X156325837Y-55024500D01*
X154809756Y-55024500D01*
X154790363Y-55022973D01*
X154780026Y-55021336D01*
X154716893Y-54991405D01*
X154679964Y-54932092D01*
X154675829Y-54888915D01*
X154679007Y-54849441D01*
X154703641Y-54543401D01*
X154704086Y-54532695D01*
X154703741Y-54521857D01*
X154704049Y-54513414D01*
X154705460Y-54500000D01*
X154702238Y-54469356D01*
X154701935Y-54464909D01*
X154701740Y-54458734D01*
X154701739Y-54458730D01*
X154701739Y-54458727D01*
X154700806Y-54452090D01*
X154700887Y-54452078D01*
X154699755Y-54445723D01*
X154698507Y-54433846D01*
X154685674Y-54311744D01*
X154627179Y-54131716D01*
X154532533Y-53967784D01*
X154405871Y-53827112D01*
X154405870Y-53827111D01*
X154252734Y-53715851D01*
X154252729Y-53715848D01*
X154079807Y-53638857D01*
X154079802Y-53638855D01*
X153934001Y-53607865D01*
X153894646Y-53599500D01*
X153705354Y-53599500D01*
X153672897Y-53606398D01*
X153520197Y-53638855D01*
X153520192Y-53638857D01*
X153347270Y-53715848D01*
X153347265Y-53715851D01*
X153194129Y-53827111D01*
X153067466Y-53967785D01*
X152972821Y-54131715D01*
X152972818Y-54131722D01*
X152914327Y-54311740D01*
X152914326Y-54311744D01*
X152894540Y-54500000D01*
X152914326Y-54688256D01*
X152914327Y-54688259D01*
X152955794Y-54815882D01*
X152957274Y-54821242D01*
X152962742Y-54845195D01*
X152962749Y-54845216D01*
X153039971Y-55045932D01*
X153045672Y-55115569D01*
X153030359Y-55154605D01*
X152981523Y-55235392D01*
X152981522Y-55235394D01*
X152941559Y-55363641D01*
X152930913Y-55397807D01*
X152930457Y-55402830D01*
X152925377Y-55458739D01*
X152924500Y-55468386D01*
X152924500Y-56131613D01*
X152930913Y-56202192D01*
X152930913Y-56202194D01*
X152930914Y-56202196D01*
X152981522Y-56364606D01*
X152998609Y-56392872D01*
X153069530Y-56510188D01*
X153189811Y-56630469D01*
X153189813Y-56630470D01*
X153189815Y-56630472D01*
X153335394Y-56718478D01*
X153497804Y-56769086D01*
X153568384Y-56775500D01*
X153568387Y-56775500D01*
X154081613Y-56775500D01*
X154081616Y-56775500D01*
X154152196Y-56769086D01*
X154314606Y-56718478D01*
X154460185Y-56630472D01*
X154535049Y-56555606D01*
X154596372Y-56522122D01*
X154640377Y-56520550D01*
X154674802Y-56525500D01*
X154712279Y-56525500D01*
X156325844Y-56525500D01*
X156356759Y-56529416D01*
X156372514Y-56533472D01*
X156432529Y-56569248D01*
X156463674Y-56631792D01*
X156456062Y-56701246D01*
X156412108Y-56755558D01*
X156400805Y-56762508D01*
X156188885Y-56877669D01*
X156180639Y-56882150D01*
X156177342Y-56884002D01*
X156177339Y-56884004D01*
X156127757Y-56915872D01*
X156122379Y-56918960D01*
X156079121Y-56941001D01*
X155932611Y-57047443D01*
X155883016Y-57097038D01*
X155868584Y-57111469D01*
X155816761Y-57163290D01*
X155816757Y-57163296D01*
X155589606Y-57390446D01*
X155556777Y-57413973D01*
X155079414Y-57649424D01*
X155056458Y-57658044D01*
X154540706Y-57795328D01*
X154508810Y-57799500D01*
X147159509Y-57799500D01*
X147118235Y-57792429D01*
X147040642Y-57765040D01*
X146894942Y-57713610D01*
X146843530Y-57695462D01*
X146817564Y-57686296D01*
X146817565Y-57686296D01*
X146772041Y-57672598D01*
X146772029Y-57672595D01*
X146763896Y-57671759D01*
X146741995Y-57667487D01*
X146690072Y-57652403D01*
X146690073Y-57652403D01*
X146690069Y-57652402D01*
X146690066Y-57652401D01*
X146690063Y-57652401D01*
X146678672Y-57651505D01*
X146613384Y-57626621D01*
X146571913Y-57570390D01*
X146567426Y-57500665D01*
X146601348Y-57439582D01*
X146626397Y-57420502D01*
X146704715Y-57375287D01*
X146876366Y-57243578D01*
X146885848Y-57234094D01*
X146885856Y-57234089D01*
X146894756Y-57225188D01*
X146894758Y-57225188D01*
X147339208Y-56780737D01*
X147345284Y-56775408D01*
X147401515Y-56732261D01*
X147429531Y-56716087D01*
X147483674Y-56693661D01*
X147514933Y-56685286D01*
X147585250Y-56676030D01*
X147593344Y-56675500D01*
X147662499Y-56675501D01*
X147662503Y-56675500D01*
X147679148Y-56675500D01*
X147729892Y-56686358D01*
X147841996Y-56736637D01*
X147960554Y-56789811D01*
X148130328Y-56865955D01*
X148133610Y-56867675D01*
X148135393Y-56868478D01*
X148166571Y-56878192D01*
X148297804Y-56919086D01*
X148368384Y-56925500D01*
X148368387Y-56925500D01*
X149031613Y-56925500D01*
X149031616Y-56925500D01*
X149102196Y-56919086D01*
X149264606Y-56868478D01*
X149410185Y-56780472D01*
X149530472Y-56660185D01*
X149618478Y-56514606D01*
X149669086Y-56352196D01*
X149675500Y-56281616D01*
X149675500Y-55768384D01*
X149669086Y-55697804D01*
X149618478Y-55535394D01*
X149530472Y-55389815D01*
X149530470Y-55389813D01*
X149530469Y-55389811D01*
X149428339Y-55287681D01*
X149394854Y-55226358D01*
X149399838Y-55156666D01*
X149428339Y-55112319D01*
X149530468Y-55010189D01*
X149530469Y-55010188D01*
X149530472Y-55010185D01*
X149618478Y-54864606D01*
X149669086Y-54702196D01*
X149675500Y-54631616D01*
X149675500Y-54118384D01*
X149669086Y-54047804D01*
X149618478Y-53885394D01*
X149530472Y-53739815D01*
X149530470Y-53739813D01*
X149530469Y-53739811D01*
X149521324Y-53730667D01*
X149500743Y-53703448D01*
X149482728Y-53671194D01*
X149374149Y-53476789D01*
X149366241Y-53462630D01*
X149350500Y-53402165D01*
X149350500Y-52414412D01*
X149370185Y-52347373D01*
X149372132Y-52344435D01*
X149435625Y-52251553D01*
X149501359Y-52155392D01*
X149538625Y-52119836D01*
X149621003Y-52069026D01*
X149744026Y-51946003D01*
X149835362Y-51797925D01*
X149890087Y-51632775D01*
X149900500Y-51530848D01*
X149900500Y-50944152D01*
X149890087Y-50842225D01*
X149835362Y-50677075D01*
X149835358Y-50677069D01*
X149835357Y-50677066D01*
X149744028Y-50529000D01*
X149744025Y-50528996D01*
X149621004Y-50405975D01*
X149621003Y-50405974D01*
X149620301Y-50405541D01*
X149619921Y-50405118D01*
X149615336Y-50401493D01*
X149615955Y-50400709D01*
X149573575Y-50353598D01*
X149562349Y-50284636D01*
X149590188Y-50220552D01*
X149615455Y-50198657D01*
X149615336Y-50198507D01*
X149618687Y-50195856D01*
X149620299Y-50194459D01*
X149621003Y-50194026D01*
X149744026Y-50071003D01*
X149835362Y-49922925D01*
X149890087Y-49757775D01*
X149900500Y-49655848D01*
X149900500Y-49069152D01*
X149890087Y-48967225D01*
X149835362Y-48802075D01*
X149835358Y-48802069D01*
X149835357Y-48802066D01*
X149744028Y-48654000D01*
X149744025Y-48653996D01*
X149621003Y-48530974D01*
X149620999Y-48530971D01*
X149472933Y-48439642D01*
X149472927Y-48439639D01*
X149472925Y-48439638D01*
X149470562Y-48438855D01*
X149307776Y-48384913D01*
X149205855Y-48374500D01*
X149205848Y-48374500D01*
X148194152Y-48374500D01*
X148194144Y-48374500D01*
X148092223Y-48384913D01*
X147927075Y-48439638D01*
X147927068Y-48439641D01*
X147925592Y-48440552D01*
X147920777Y-48443232D01*
X147409358Y-48698912D01*
X147353909Y-48712000D01*
X146246091Y-48712000D01*
X146190642Y-48698912D01*
X145679231Y-48443238D01*
X145674409Y-48440553D01*
X145672928Y-48439639D01*
X145672922Y-48439636D01*
X145645558Y-48430569D01*
X145642779Y-48429574D01*
X145605275Y-48415132D01*
X145592074Y-48410048D01*
X145592067Y-48410046D01*
X145592062Y-48410044D01*
X145587772Y-48408849D01*
X145581335Y-48407102D01*
X145576784Y-48406225D01*
X145576855Y-48405854D01*
X145559111Y-48401923D01*
X145507778Y-48384913D01*
X145405855Y-48374500D01*
X145405848Y-48374500D01*
X144394152Y-48374500D01*
X144394144Y-48374500D01*
X144292223Y-48384913D01*
X144127077Y-48439637D01*
X144127068Y-48439642D01*
X144049436Y-48487525D01*
X144046449Y-48489255D01*
X144041709Y-48491825D01*
X144028640Y-48500170D01*
X144020295Y-48505500D01*
X144003514Y-48515851D01*
X143978988Y-48530979D01*
X143975517Y-48533723D01*
X143970441Y-48537336D01*
X143472639Y-48855232D01*
X143453358Y-48865283D01*
X143420160Y-48879035D01*
X143420152Y-48879039D01*
X143232780Y-48987216D01*
X143061131Y-49118924D01*
X143045854Y-49134200D01*
X143045854Y-49134201D01*
X143042746Y-49137309D01*
X143042742Y-49137312D01*
X142988137Y-49191917D01*
X142962180Y-49217874D01*
X142900856Y-49251358D01*
X142831165Y-49246374D01*
X142775231Y-49204502D01*
X142750815Y-49139037D01*
X142750499Y-49130192D01*
X142750499Y-49024998D01*
X142750498Y-49024981D01*
X142739999Y-48922203D01*
X142739998Y-48922200D01*
X142731714Y-48897200D01*
X142684814Y-48755666D01*
X142592712Y-48606344D01*
X142468656Y-48482288D01*
X142346761Y-48407103D01*
X142319336Y-48390187D01*
X142319331Y-48390185D01*
X142243886Y-48365185D01*
X142152797Y-48335001D01*
X142152795Y-48335000D01*
X142146371Y-48332872D01*
X142147073Y-48330751D01*
X142094873Y-48302470D01*
X142061186Y-48241258D01*
X142065940Y-48171551D01*
X142107626Y-48115479D01*
X142173009Y-48090846D01*
X142182264Y-48090500D01*
X156955726Y-48090500D01*
X157022765Y-48110185D01*
G37*
%TD.AperFunction*%
%TA.AperFunction,Conductor*%
G36*
X135234772Y-48110185D02*
G01*
X135280527Y-48162989D01*
X135290471Y-48232147D01*
X135261446Y-48295703D01*
X135203626Y-48332860D01*
X135203630Y-48332871D01*
X135203590Y-48332884D01*
X135202668Y-48333477D01*
X135198980Y-48334411D01*
X135030668Y-48390185D01*
X135030663Y-48390187D01*
X134881342Y-48482289D01*
X134757289Y-48606342D01*
X134665187Y-48755663D01*
X134665185Y-48755668D01*
X134649807Y-48802077D01*
X134610001Y-48922203D01*
X134610001Y-48922204D01*
X134610000Y-48922204D01*
X134599500Y-49024983D01*
X134599500Y-49699075D01*
X134579815Y-49766114D01*
X134551745Y-49796863D01*
X134424704Y-49895913D01*
X134151815Y-50108673D01*
X134086842Y-50134369D01*
X134018291Y-50120859D01*
X133967926Y-50072432D01*
X133956911Y-50046877D01*
X133950605Y-50026088D01*
X133895232Y-49843546D01*
X133797685Y-49661050D01*
X133745702Y-49597709D01*
X133666410Y-49501089D01*
X133548677Y-49404469D01*
X133506450Y-49369815D01*
X133323954Y-49272268D01*
X133125934Y-49212200D01*
X133125932Y-49212199D01*
X133125934Y-49212199D01*
X132920000Y-49191917D01*
X132714067Y-49212199D01*
X132516043Y-49272269D01*
X132413811Y-49326914D01*
X132333550Y-49369815D01*
X132333548Y-49369816D01*
X132333547Y-49369817D01*
X132173589Y-49501089D01*
X132046589Y-49655842D01*
X132042315Y-49661050D01*
X132034873Y-49674973D01*
X131944769Y-49843543D01*
X131884699Y-50041567D01*
X131875158Y-50138449D01*
X131869642Y-50194457D01*
X131869500Y-50195895D01*
X131869500Y-50899104D01*
X131880752Y-51013346D01*
X131867733Y-51081992D01*
X131819668Y-51132702D01*
X131757349Y-51149500D01*
X131668742Y-51149500D01*
X131668420Y-51149508D01*
X131599490Y-51149508D01*
X131371989Y-51179455D01*
X131371987Y-51179456D01*
X131150342Y-51238842D01*
X130938334Y-51326656D01*
X130938330Y-51326658D01*
X130739602Y-51441391D01*
X130557557Y-51581077D01*
X130540448Y-51598184D01*
X130540438Y-51598193D01*
X130383196Y-51755435D01*
X130321873Y-51788919D01*
X130252181Y-51783935D01*
X130196248Y-51742063D01*
X130171947Y-51678098D01*
X130142136Y-51322003D01*
X130140450Y-51307555D01*
X130138417Y-51290144D01*
X130138000Y-51282956D01*
X130138000Y-50874800D01*
X130151764Y-50818020D01*
X130426655Y-50284333D01*
X130426670Y-50284294D01*
X130427916Y-50281521D01*
X130431704Y-50274373D01*
X130434814Y-50269334D01*
X130448236Y-50228825D01*
X130449248Y-50226008D01*
X130465313Y-50184540D01*
X130466597Y-50179781D01*
X130470783Y-50163150D01*
X130470783Y-50163148D01*
X130471994Y-50158337D01*
X130472337Y-50158423D01*
X130474583Y-50149315D01*
X130489999Y-50102797D01*
X130500500Y-50000009D01*
X130500499Y-48999992D01*
X130493524Y-48931715D01*
X130489999Y-48897203D01*
X130489998Y-48897200D01*
X130479063Y-48864200D01*
X130434814Y-48730666D01*
X130342712Y-48581344D01*
X130218656Y-48457288D01*
X130101317Y-48384913D01*
X130069336Y-48365187D01*
X130069331Y-48365185D01*
X130067789Y-48364674D01*
X129969804Y-48332205D01*
X129912361Y-48292433D01*
X129885538Y-48227917D01*
X129897853Y-48159142D01*
X129945396Y-48107942D01*
X130008810Y-48090500D01*
X135167733Y-48090500D01*
X135234772Y-48110185D01*
G37*
%TD.AperFunction*%
%TD*%
%TA.AperFunction,Conductor*%
%TO.N,Net-(D2-A)*%
G36*
X137465080Y-58653473D02*
G01*
X137472735Y-58658118D01*
X137475000Y-58665037D01*
X137475000Y-59144962D01*
X137471573Y-59153235D01*
X137465079Y-59156526D01*
X136990623Y-59229519D01*
X136984560Y-59228843D01*
X136189172Y-58915888D01*
X136182728Y-58909670D01*
X136182568Y-58900716D01*
X136188786Y-58894272D01*
X136189172Y-58894112D01*
X136984562Y-58581155D01*
X136990621Y-58580480D01*
X137465080Y-58653473D01*
G37*
%TD.AperFunction*%
%TD*%
%TA.AperFunction,Conductor*%
%TO.N,Net-(D2-A)*%
G36*
X140330654Y-54798488D02*
G01*
X141207502Y-55084531D01*
X141214303Y-55090354D01*
X141214995Y-55099282D01*
X141209171Y-55106084D01*
X141208161Y-55106539D01*
X140415357Y-55418874D01*
X140409457Y-55419577D01*
X140030293Y-55366865D01*
X140022570Y-55362331D01*
X140021095Y-55359753D01*
X139916215Y-55106539D01*
X139837695Y-54916965D01*
X139837695Y-54908012D01*
X139844027Y-54901681D01*
X139846041Y-54901052D01*
X140324569Y-54798173D01*
X140330654Y-54798488D01*
G37*
%TD.AperFunction*%
%TD*%
%TA.AperFunction,Conductor*%
%TO.N,Net-(Q1-S)*%
G36*
X142128698Y-58593904D02*
G01*
X142542479Y-58752124D01*
X142548982Y-58758279D01*
X142550000Y-58763052D01*
X142550000Y-59046947D01*
X142546573Y-59055220D01*
X142542479Y-59057875D01*
X142128698Y-59216095D01*
X142120634Y-59216203D01*
X141267853Y-58916036D01*
X141261187Y-58910057D01*
X141260702Y-58901115D01*
X141266681Y-58894449D01*
X141267853Y-58893964D01*
X141653336Y-58758279D01*
X142120634Y-58593796D01*
X142128698Y-58593904D01*
G37*
%TD.AperFunction*%
%TD*%
%TA.AperFunction,Conductor*%
%TO.N,Net-(Q1-S)*%
G36*
X145359498Y-60063386D02*
G01*
X145359552Y-60063410D01*
X145977075Y-60339507D01*
X145983228Y-60346012D01*
X145982980Y-60354964D01*
X145977069Y-60360871D01*
X145359302Y-60636704D01*
X145350741Y-60637090D01*
X144946324Y-60498570D01*
X144939607Y-60492647D01*
X144938640Y-60485222D01*
X144993913Y-60207319D01*
X144998888Y-60199875D01*
X145001151Y-60198697D01*
X145350546Y-60063183D01*
X145359498Y-60063386D01*
G37*
%TD.AperFunction*%
%TD*%
%TA.AperFunction,Conductor*%
%TO.N,Net-(Q1-S)*%
G36*
X134859244Y-60993680D02*
G01*
X135368089Y-61221900D01*
X135374234Y-61228411D01*
X135375000Y-61232574D01*
X135375000Y-61517425D01*
X135371573Y-61525698D01*
X135368088Y-61528100D01*
X134859245Y-61756318D01*
X134850294Y-61756577D01*
X134845830Y-61753547D01*
X134639272Y-61528100D01*
X134506240Y-61382902D01*
X134503179Y-61374489D01*
X134506240Y-61367097D01*
X134845831Y-60996451D01*
X134853946Y-60992667D01*
X134859244Y-60993680D01*
G37*
%TD.AperFunction*%
%TD*%
%TA.AperFunction,Conductor*%
%TO.N,Net-(Q1-S)*%
G36*
X136954169Y-60996452D02*
G01*
X137293758Y-61367096D01*
X137296820Y-61375511D01*
X137293758Y-61382904D01*
X136954169Y-61753547D01*
X136946053Y-61757332D01*
X136940754Y-61756318D01*
X136431912Y-61528100D01*
X136425766Y-61521588D01*
X136425000Y-61517425D01*
X136425000Y-61232574D01*
X136428427Y-61224301D01*
X136431908Y-61221901D01*
X136940755Y-60993680D01*
X136949705Y-60993422D01*
X136954169Y-60996452D01*
G37*
%TD.AperFunction*%
%TD*%
%TA.AperFunction,Conductor*%
%TO.N,Net-(Q1-S)*%
G36*
X134154169Y-60996452D02*
G01*
X134493758Y-61367096D01*
X134496820Y-61375511D01*
X134493758Y-61382904D01*
X134154169Y-61753547D01*
X134146053Y-61757332D01*
X134140754Y-61756318D01*
X133631912Y-61528100D01*
X133625766Y-61521588D01*
X133625000Y-61517425D01*
X133625000Y-61232574D01*
X133628427Y-61224301D01*
X133631908Y-61221901D01*
X134140755Y-60993680D01*
X134149705Y-60993422D01*
X134154169Y-60996452D01*
G37*
%TD.AperFunction*%
%TD*%
%TA.AperFunction,Conductor*%
%TO.N,Net-(Q1-S)*%
G36*
X140001080Y-60178427D02*
G01*
X140003247Y-60181419D01*
X140327480Y-60822430D01*
X140328157Y-60831359D01*
X140325993Y-60835243D01*
X139858953Y-61390358D01*
X139851004Y-61394483D01*
X139842468Y-61391779D01*
X139841047Y-61390358D01*
X139374006Y-60835243D01*
X139371302Y-60826707D01*
X139372518Y-60822432D01*
X139696753Y-60181418D01*
X139703545Y-60175583D01*
X139707193Y-60175000D01*
X139992807Y-60175000D01*
X140001080Y-60178427D01*
G37*
%TD.AperFunction*%
%TD*%
%TA.AperFunction,Conductor*%
%TO.N,Net-(Q1-S)*%
G36*
X139364229Y-60894551D02*
G01*
X139842947Y-61391638D01*
X139846218Y-61399974D01*
X139842702Y-61408117D01*
X139359568Y-61880816D01*
X139351258Y-61884152D01*
X139344539Y-61881940D01*
X138854853Y-61528502D01*
X138850150Y-61520881D01*
X138850000Y-61519015D01*
X138850000Y-61231269D01*
X138853427Y-61222996D01*
X138855215Y-61221531D01*
X139349323Y-60892924D01*
X139358109Y-60891197D01*
X139364229Y-60894551D01*
G37*
%TD.AperFunction*%
%TD*%
%TA.AperFunction,Conductor*%
%TO.N,Net-(Q1-S)*%
G36*
X137659244Y-60993680D02*
G01*
X138168089Y-61221900D01*
X138174234Y-61228411D01*
X138175000Y-61232574D01*
X138175000Y-61517425D01*
X138171573Y-61525698D01*
X138168088Y-61528100D01*
X137659245Y-61756318D01*
X137650294Y-61756577D01*
X137645830Y-61753547D01*
X137439272Y-61528100D01*
X137306240Y-61382902D01*
X137303179Y-61374489D01*
X137306240Y-61367097D01*
X137645831Y-60996451D01*
X137653946Y-60992667D01*
X137659244Y-60993680D01*
G37*
%TD.AperFunction*%
%TD*%
%TA.AperFunction,Conductor*%
%TO.N,Net-(Q1-S)*%
G36*
X132127723Y-61297971D02*
G01*
X132345127Y-61419460D01*
X132772794Y-61658448D01*
X132776814Y-61662160D01*
X132935695Y-61899948D01*
X132937442Y-61908731D01*
X132932884Y-61915884D01*
X132208473Y-62446868D01*
X132199774Y-62448996D01*
X132194932Y-62447076D01*
X131411844Y-61909260D01*
X131406965Y-61901752D01*
X131408824Y-61892992D01*
X131410936Y-61890662D01*
X132114488Y-61299227D01*
X132123025Y-61296528D01*
X132127723Y-61297971D01*
G37*
%TD.AperFunction*%
%TD*%
%TA.AperFunction,Conductor*%
%TO.N,Net-(Q1-S)*%
G36*
X141199303Y-58895166D02*
G01*
X141206575Y-58900392D01*
X141208022Y-58909229D01*
X141202796Y-58916501D01*
X141200525Y-58917590D01*
X140353825Y-59216390D01*
X140346734Y-59216612D01*
X140076147Y-59139738D01*
X140071071Y-59136756D01*
X139871526Y-58937211D01*
X139868099Y-58928938D01*
X139871526Y-58920665D01*
X139873623Y-58919002D01*
X140261105Y-58678594D01*
X140269940Y-58677145D01*
X141199303Y-58895166D01*
G37*
%TD.AperFunction*%
%TD*%
%TA.AperFunction,Conductor*%
%TO.N,Net-(D2-A)*%
G36*
X144327230Y-48918472D02*
G01*
X144889527Y-49353305D01*
X144893976Y-49361076D01*
X144891625Y-49369717D01*
X144889961Y-49371463D01*
X144356283Y-49826490D01*
X144347764Y-49829250D01*
X144343595Y-49828118D01*
X143831983Y-49580514D01*
X143826271Y-49574461D01*
X143716926Y-49310469D01*
X143716926Y-49301517D01*
X143721436Y-49296134D01*
X144313777Y-48917865D01*
X144322593Y-48916302D01*
X144327230Y-48918472D01*
G37*
%TD.AperFunction*%
%TD*%
%TA.AperFunction,Conductor*%
%TO.N,Net-(D2-A)*%
G36*
X141648214Y-50526496D02*
G01*
X141648400Y-50526947D01*
X142229189Y-52016106D01*
X142229003Y-52025059D01*
X142228967Y-52025140D01*
X141890598Y-52780583D01*
X141884088Y-52786732D01*
X141879920Y-52787500D01*
X141395080Y-52787500D01*
X141386807Y-52784073D01*
X141384402Y-52780583D01*
X141046032Y-52025140D01*
X141045778Y-52016189D01*
X141045810Y-52016106D01*
X141626600Y-50526947D01*
X141632798Y-50520484D01*
X141641751Y-50520298D01*
X141648214Y-50526496D01*
G37*
%TD.AperFunction*%
%TD*%
%TA.AperFunction,Conductor*%
%TO.N,Net-(D2-A)*%
G36*
X141486466Y-54448427D02*
G01*
X141489593Y-54454069D01*
X141561044Y-54763692D01*
X141559566Y-54772524D01*
X141557930Y-54774583D01*
X141245786Y-55087688D01*
X141237518Y-55091128D01*
X141229240Y-55087714D01*
X141229214Y-55087688D01*
X140917069Y-54774583D01*
X140913655Y-54766305D01*
X140913954Y-54763697D01*
X140985407Y-54454068D01*
X140990606Y-54446778D01*
X140996807Y-54445000D01*
X141478193Y-54445000D01*
X141486466Y-54448427D01*
G37*
%TD.AperFunction*%
%TD*%
%TA.AperFunction,Conductor*%
%TO.N,Net-(D2-A)*%
G36*
X133577569Y-58972519D02*
G01*
X134218581Y-59296753D01*
X134224417Y-59303545D01*
X134225000Y-59307193D01*
X134225000Y-59592806D01*
X134221573Y-59601079D01*
X134218581Y-59603246D01*
X133577569Y-59927480D01*
X133568640Y-59928157D01*
X133564756Y-59925993D01*
X133009641Y-59458953D01*
X133005516Y-59451004D01*
X133008220Y-59442468D01*
X133009641Y-59441047D01*
X133173073Y-59303545D01*
X133564757Y-58974005D01*
X133573292Y-58971302D01*
X133577569Y-58972519D01*
G37*
%TD.AperFunction*%
%TD*%
%TA.AperFunction,Conductor*%
%TO.N,Net-(D2-A)*%
G36*
X148156364Y-48898574D02*
G01*
X148690543Y-49353593D01*
X148694619Y-49361567D01*
X148691863Y-49370087D01*
X148690543Y-49371407D01*
X148156364Y-49826425D01*
X148147844Y-49829181D01*
X148143545Y-49827983D01*
X147518968Y-49515733D01*
X147513101Y-49508968D01*
X147512500Y-49505268D01*
X147512500Y-49219731D01*
X147515927Y-49211458D01*
X147518966Y-49209267D01*
X148143546Y-48897015D01*
X148152477Y-48896382D01*
X148156364Y-48898574D01*
G37*
%TD.AperFunction*%
%TD*%
%TA.AperFunction,Conductor*%
%TO.N,Net-(D2-A)*%
G36*
X145456453Y-48897015D02*
G01*
X146081032Y-49209266D01*
X146086899Y-49216031D01*
X146087500Y-49219731D01*
X146087500Y-49505268D01*
X146084073Y-49513541D01*
X146081032Y-49515733D01*
X145456454Y-49827983D01*
X145447522Y-49828617D01*
X145443635Y-49826425D01*
X145076318Y-49513541D01*
X144909455Y-49371406D01*
X144905380Y-49363433D01*
X144908136Y-49354913D01*
X144909452Y-49353596D01*
X145443636Y-48898573D01*
X145452155Y-48895818D01*
X145456453Y-48897015D01*
G37*
%TD.AperFunction*%
%TD*%
%TA.AperFunction,Conductor*%
%TO.N,Net-(D2-A)*%
G36*
X141031417Y-49893907D02*
G01*
X141347352Y-50209326D01*
X141630206Y-50491720D01*
X141633640Y-50499990D01*
X141630220Y-50508266D01*
X141630206Y-50508280D01*
X141031419Y-51106091D01*
X141023143Y-51109511D01*
X141017194Y-51107880D01*
X140418241Y-50753397D01*
X140412867Y-50746234D01*
X140412500Y-50743328D01*
X140412500Y-50256671D01*
X140415927Y-50248398D01*
X140418241Y-50246602D01*
X141017195Y-49892118D01*
X141026059Y-49890855D01*
X141031417Y-49893907D01*
G37*
%TD.AperFunction*%
%TD*%
%TA.AperFunction,Conductor*%
%TO.N,Net-(D2-A)*%
G36*
X139859741Y-50102462D02*
G01*
X140292018Y-50247325D01*
X140298773Y-50253203D01*
X140300000Y-50258419D01*
X140300000Y-50741580D01*
X140296573Y-50749853D01*
X140292018Y-50752674D01*
X139859745Y-50897536D01*
X139850811Y-50896915D01*
X139847259Y-50894189D01*
X139722233Y-50752674D01*
X139505843Y-50507746D01*
X139502934Y-50499278D01*
X139505844Y-50492253D01*
X139847260Y-50105809D01*
X139855305Y-50101879D01*
X139859741Y-50102462D01*
G37*
%TD.AperFunction*%
%TD*%
%TA.AperFunction,Conductor*%
%TO.N,Net-(D2-A)*%
G36*
X142258896Y-49765792D02*
G01*
X142258986Y-49765867D01*
X142722919Y-50162141D01*
X142723333Y-50162531D01*
X142813440Y-50256104D01*
X142922933Y-50369810D01*
X142926203Y-50378146D01*
X142922621Y-50386353D01*
X142922432Y-50386531D01*
X142257498Y-50999001D01*
X142249091Y-51002085D01*
X142242131Y-50999425D01*
X141645820Y-50508141D01*
X141641614Y-50500236D01*
X141644229Y-50491673D01*
X142242426Y-49767362D01*
X142250335Y-49763166D01*
X142258896Y-49765792D01*
G37*
%TD.AperFunction*%
%TD*%
%TA.AperFunction,Conductor*%
%TO.N,Net-(U2-VCC)*%
G36*
X134845030Y-66897637D02*
G01*
X135294620Y-67175183D01*
X135299860Y-67182445D01*
X135299949Y-67187422D01*
X135243911Y-67469098D01*
X135239178Y-67476377D01*
X134916887Y-67703607D01*
X134908151Y-67705574D01*
X134902145Y-67702582D01*
X134506813Y-67332108D01*
X134503119Y-67323951D01*
X134505582Y-67316381D01*
X134829656Y-66900402D01*
X134837444Y-66895983D01*
X134845030Y-66897637D01*
G37*
%TD.AperFunction*%
%TD*%
%TA.AperFunction,Conductor*%
%TO.N,Net-(U2-VCC)*%
G36*
X136697575Y-67613936D02*
G01*
X137242828Y-67889748D01*
X137248663Y-67896539D01*
X137247986Y-67905468D01*
X137242821Y-67910630D01*
X136697244Y-68186234D01*
X136688315Y-68186906D01*
X136687750Y-68186704D01*
X136594853Y-68150707D01*
X136332631Y-68049099D01*
X136326155Y-68042914D01*
X136325383Y-68035906D01*
X136352382Y-67900195D01*
X136380825Y-67757225D01*
X136385800Y-67749781D01*
X136387491Y-67748843D01*
X136687501Y-67613712D01*
X136696451Y-67613440D01*
X136697575Y-67613936D01*
G37*
%TD.AperFunction*%
%TD*%
%TA.AperFunction,Conductor*%
%TO.N,Net-(U2-VCC)*%
G36*
X134507747Y-63030844D02*
G01*
X134892934Y-63371150D01*
X134896865Y-63379196D01*
X134895402Y-63385623D01*
X134653348Y-63819005D01*
X134646322Y-63824557D01*
X134643133Y-63825000D01*
X134356867Y-63825000D01*
X134348594Y-63821573D01*
X134346652Y-63819005D01*
X134104597Y-63385623D01*
X134103555Y-63376729D01*
X134107063Y-63371152D01*
X134492253Y-63030843D01*
X134500722Y-63027934D01*
X134507747Y-63030844D01*
G37*
%TD.AperFunction*%
%TD*%
%TA.AperFunction,Conductor*%
%TO.N,Net-(U2-VCC)*%
G36*
X134651169Y-66428427D02*
G01*
X134653277Y-66431304D01*
X134945331Y-66993133D01*
X134946106Y-67002054D01*
X134941785Y-67008025D01*
X134506835Y-67321080D01*
X134498118Y-67323132D01*
X134493165Y-67321080D01*
X134058214Y-67008025D01*
X134053501Y-67000411D01*
X134054668Y-66993133D01*
X134346723Y-66431304D01*
X134353579Y-66425544D01*
X134357104Y-66425000D01*
X134642896Y-66425000D01*
X134651169Y-66428427D01*
G37*
%TD.AperFunction*%
%TD*%
%TA.AperFunction,Conductor*%
%TO.N,-BATT*%
G36*
X143033128Y-64922128D02*
G01*
X143431633Y-65268781D01*
X143520979Y-65346502D01*
X143524972Y-65354517D01*
X143525000Y-65355329D01*
X143525000Y-65639528D01*
X143521573Y-65647801D01*
X143514592Y-65651156D01*
X142857724Y-65724141D01*
X142849123Y-65721649D01*
X142846214Y-65718212D01*
X142765681Y-65573830D01*
X142603699Y-65283426D01*
X142602663Y-65274533D01*
X142606377Y-65268783D01*
X143017913Y-64922008D01*
X143026447Y-64919298D01*
X143033128Y-64922128D01*
G37*
%TD.AperFunction*%
%TD*%
%TA.AperFunction,Conductor*%
%TO.N,-BATT*%
G36*
X132145750Y-73282292D02*
G01*
X132332841Y-73470318D01*
X132336247Y-73478598D01*
X132335898Y-73481407D01*
X132289716Y-73666138D01*
X132284385Y-73673333D01*
X132278365Y-73675000D01*
X131996635Y-73675000D01*
X131988362Y-73671573D01*
X131985284Y-73666138D01*
X131939101Y-73481405D01*
X131940419Y-73472549D01*
X131942148Y-73470328D01*
X132129208Y-73282332D01*
X132137471Y-73278887D01*
X132145750Y-73282292D01*
G37*
%TD.AperFunction*%
%TD*%
%TA.AperFunction,Conductor*%
%TO.N,-BATT*%
G36*
X132286638Y-73528427D02*
G01*
X132289716Y-73533862D01*
X132335898Y-73718592D01*
X132334580Y-73727450D01*
X132332841Y-73729682D01*
X132145794Y-73917664D01*
X132137529Y-73921112D01*
X132129248Y-73917706D01*
X132129206Y-73917665D01*
X132129205Y-73917664D01*
X131942156Y-73729680D01*
X131938752Y-73721401D01*
X131939100Y-73718599D01*
X131985284Y-73533860D01*
X131990615Y-73526667D01*
X131996635Y-73525000D01*
X132278365Y-73525000D01*
X132286638Y-73528427D01*
G37*
%TD.AperFunction*%
%TD*%
%TA.AperFunction,Conductor*%
%TO.N,-BATT*%
G36*
X119112205Y-70448836D02*
G01*
X120067800Y-70847000D01*
X120074119Y-70853345D01*
X120075000Y-70857800D01*
X120075000Y-71142199D01*
X120071573Y-71150472D01*
X120067800Y-71152999D01*
X119112207Y-71551162D01*
X119103252Y-71551181D01*
X119099063Y-71548247D01*
X118736247Y-71150472D01*
X118606191Y-71007884D01*
X118603148Y-70999463D01*
X118606192Y-70992115D01*
X119099065Y-70451750D01*
X119107170Y-70447949D01*
X119112205Y-70448836D01*
G37*
%TD.AperFunction*%
%TD*%
%TA.AperFunction,Conductor*%
%TO.N,-BATT*%
G36*
X145657705Y-66540727D02*
G01*
X147217391Y-66909706D01*
X147224653Y-66914946D01*
X147226382Y-66920505D01*
X147300058Y-68387786D01*
X147297051Y-68396221D01*
X147288960Y-68400058D01*
X147287786Y-68400058D01*
X145820505Y-68326382D01*
X145812414Y-68322545D01*
X145809706Y-68317391D01*
X145477165Y-66911729D01*
X145440728Y-66757707D01*
X145442158Y-66748869D01*
X145443837Y-66746746D01*
X145646743Y-66543840D01*
X145655015Y-66540414D01*
X145657705Y-66540727D01*
G37*
%TD.AperFunction*%
%TD*%
%TA.AperFunction,Conductor*%
%TO.N,-BATT*%
G36*
X134844436Y-68445775D02*
G01*
X135417994Y-68696932D01*
X135424197Y-68703388D01*
X135425000Y-68707648D01*
X135425000Y-68992913D01*
X135421573Y-69001186D01*
X135418721Y-69003282D01*
X134844756Y-69303349D01*
X134835836Y-69304145D01*
X134830104Y-69300169D01*
X134504597Y-68882188D01*
X134502218Y-68873556D01*
X134504597Y-68867812D01*
X134830515Y-68449303D01*
X134838301Y-68444882D01*
X134844436Y-68445775D01*
G37*
%TD.AperFunction*%
%TD*%
%TA.AperFunction,Conductor*%
%TO.N,-BATT*%
G36*
X136696826Y-68563559D02*
G01*
X136697056Y-68563672D01*
X137242842Y-68839558D01*
X137248680Y-68846349D01*
X137248006Y-68855278D01*
X137242842Y-68860442D01*
X136697056Y-69136327D01*
X136688127Y-69137001D01*
X136687884Y-69136918D01*
X136307806Y-69002755D01*
X136301145Y-68996770D01*
X136300000Y-68991722D01*
X136300000Y-68708277D01*
X136303427Y-68700004D01*
X136307803Y-68697245D01*
X136687885Y-68563081D01*
X136696826Y-68563559D01*
G37*
%TD.AperFunction*%
%TD*%
%TA.AperFunction,Conductor*%
%TO.N,-BATT*%
G36*
X142269690Y-64849568D02*
G01*
X142595401Y-65267811D01*
X142597781Y-65276444D01*
X142595401Y-65282189D01*
X142269690Y-65700431D01*
X142261903Y-65704853D01*
X142255393Y-65703788D01*
X141681634Y-65428186D01*
X141675660Y-65421515D01*
X141675000Y-65417640D01*
X141675000Y-65132359D01*
X141678427Y-65124086D01*
X141681632Y-65121814D01*
X142255393Y-64846210D01*
X142264334Y-64845717D01*
X142269690Y-64849568D01*
G37*
%TD.AperFunction*%
%TD*%
%TA.AperFunction,Conductor*%
%TO.N,-BATT*%
G36*
X131502665Y-73075835D02*
G01*
X132102855Y-73263835D01*
X132109726Y-73269578D01*
X132110523Y-73278497D01*
X132104780Y-73285368D01*
X132102855Y-73286165D01*
X131502665Y-73474164D01*
X131497245Y-73474540D01*
X131209777Y-73426629D01*
X131202179Y-73421888D01*
X131200000Y-73415088D01*
X131200000Y-73134911D01*
X131203427Y-73126638D01*
X131209775Y-73123370D01*
X131497245Y-73075459D01*
X131502665Y-73075835D01*
G37*
%TD.AperFunction*%
%TD*%
%TA.AperFunction,Conductor*%
%TO.N,-BATT*%
G36*
X134506833Y-68878918D02*
G01*
X134941785Y-69191973D01*
X134946498Y-69199587D01*
X134945331Y-69206865D01*
X134653277Y-69768696D01*
X134646421Y-69774456D01*
X134642896Y-69775000D01*
X134357104Y-69775000D01*
X134348831Y-69771573D01*
X134346723Y-69768696D01*
X134054668Y-69206865D01*
X134053893Y-69197944D01*
X134058212Y-69191975D01*
X134493165Y-68878918D01*
X134501882Y-68876867D01*
X134506833Y-68878918D01*
G37*
%TD.AperFunction*%
%TD*%
%TA.AperFunction,Conductor*%
%TO.N,-BATT*%
G36*
X133048465Y-73773351D02*
G01*
X133056015Y-73778166D01*
X133058126Y-73784650D01*
X133063437Y-74064937D01*
X133060167Y-74073274D01*
X133053737Y-74076687D01*
X132777791Y-74124516D01*
X132772296Y-74124153D01*
X132172146Y-73936182D01*
X132165275Y-73930439D01*
X132164478Y-73921520D01*
X132170221Y-73914649D01*
X132172141Y-73913854D01*
X132772308Y-73725856D01*
X132777833Y-73725501D01*
X133048465Y-73773351D01*
G37*
%TD.AperFunction*%
%TD*%
%TA.AperFunction,Conductor*%
%TO.N,-BATT*%
G36*
X138124001Y-68548590D02*
G01*
X138125501Y-68550408D01*
X138282030Y-68784673D01*
X138283777Y-68793456D01*
X138278802Y-68800901D01*
X138278589Y-68801040D01*
X137923371Y-69027374D01*
X137914552Y-69028930D01*
X137914000Y-69028793D01*
X137269550Y-68852708D01*
X137262473Y-68847222D01*
X137260976Y-68842415D01*
X137237184Y-68562620D01*
X137239898Y-68554088D01*
X137247851Y-68549972D01*
X137248753Y-68549931D01*
X138115709Y-68545208D01*
X138124001Y-68548590D01*
G37*
%TD.AperFunction*%
%TD*%
%TA.AperFunction,Conductor*%
%TO.N,Net-(U4-VCC)*%
G36*
X137659244Y-62643680D02*
G01*
X138168089Y-62871900D01*
X138174234Y-62878411D01*
X138175000Y-62882574D01*
X138175000Y-63167425D01*
X138171573Y-63175698D01*
X138168088Y-63178100D01*
X137659245Y-63406318D01*
X137650294Y-63406577D01*
X137645830Y-63403547D01*
X137439272Y-63178100D01*
X137306240Y-63032902D01*
X137303179Y-63024489D01*
X137306240Y-63017097D01*
X137645831Y-62646451D01*
X137653946Y-62642667D01*
X137659244Y-62643680D01*
G37*
%TD.AperFunction*%
%TD*%
%TA.AperFunction,Conductor*%
%TO.N,Net-(U4-VCC)*%
G36*
X142269690Y-63299568D02*
G01*
X142595401Y-63717811D01*
X142597781Y-63726444D01*
X142595401Y-63732189D01*
X142269690Y-64150431D01*
X142261903Y-64154853D01*
X142255393Y-64153788D01*
X141681634Y-63878186D01*
X141675660Y-63871515D01*
X141675000Y-63867640D01*
X141675000Y-63582359D01*
X141678427Y-63574086D01*
X141681632Y-63571814D01*
X142255393Y-63296210D01*
X142264334Y-63295717D01*
X142269690Y-63299568D01*
G37*
%TD.AperFunction*%
%TD*%
%TA.AperFunction,Conductor*%
%TO.N,Net-(U4-VCC)*%
G36*
X142944436Y-63295775D02*
G01*
X143517994Y-63546932D01*
X143524197Y-63553388D01*
X143525000Y-63557648D01*
X143525000Y-63842913D01*
X143521573Y-63851186D01*
X143518721Y-63853282D01*
X142944756Y-64153349D01*
X142935836Y-64154145D01*
X142930104Y-64150169D01*
X142604597Y-63732188D01*
X142602218Y-63723556D01*
X142604597Y-63717812D01*
X142930515Y-63299303D01*
X142938301Y-63294882D01*
X142944436Y-63295775D01*
G37*
%TD.AperFunction*%
%TD*%
%TA.AperFunction,Conductor*%
%TO.N,VCC*%
G36*
X155155314Y-62951838D02*
G01*
X155160424Y-62956948D01*
X155448408Y-63521878D01*
X155449612Y-63528484D01*
X155401156Y-63964592D01*
X155396837Y-63972436D01*
X155389528Y-63975000D01*
X154910472Y-63975000D01*
X154902199Y-63971573D01*
X154898844Y-63964592D01*
X154850387Y-63528484D01*
X154851590Y-63521879D01*
X155139576Y-62956947D01*
X155146387Y-62951134D01*
X155155314Y-62951838D01*
G37*
%TD.AperFunction*%
%TD*%
%TA.AperFunction,Conductor*%
%TO.N,VBUS*%
G36*
X156950528Y-55393229D02*
G01*
X156953203Y-55395397D01*
X157069874Y-55522738D01*
X157293758Y-55767096D01*
X157296820Y-55775511D01*
X157293758Y-55782904D01*
X156953206Y-56154599D01*
X156945090Y-56158384D01*
X156941662Y-56158025D01*
X156433783Y-56027261D01*
X156426625Y-56021880D01*
X156425000Y-56015931D01*
X156425000Y-55534068D01*
X156428427Y-55525795D01*
X156433780Y-55522739D01*
X156941664Y-55391974D01*
X156950528Y-55393229D01*
G37*
%TD.AperFunction*%
%TD*%
%TA.AperFunction,Conductor*%
%TO.N,VBUS*%
G36*
X137902171Y-49299905D02*
G01*
X138260119Y-49449140D01*
X138266437Y-49455487D01*
X138266923Y-49462949D01*
X138102313Y-50081364D01*
X138096874Y-50088477D01*
X138091007Y-50090054D01*
X137610312Y-50090054D01*
X137602039Y-50086627D01*
X137598705Y-50079823D01*
X137520625Y-49462949D01*
X137501662Y-49313133D01*
X137504022Y-49304497D01*
X137511800Y-49300059D01*
X137513225Y-49299966D01*
X137897648Y-49299005D01*
X137902171Y-49299905D01*
G37*
%TD.AperFunction*%
%TD*%
%TA.AperFunction,Conductor*%
%TO.N,VBUS*%
G36*
X138099204Y-49628427D02*
G01*
X138102261Y-49633783D01*
X138233025Y-50141662D01*
X138231770Y-50150528D01*
X138229599Y-50153206D01*
X137857904Y-50493758D01*
X137849489Y-50496820D01*
X137842096Y-50493758D01*
X137742660Y-50402653D01*
X137470399Y-50153204D01*
X137466615Y-50145090D01*
X137466973Y-50141668D01*
X137597739Y-49633783D01*
X137603120Y-49626625D01*
X137609069Y-49625000D01*
X138090931Y-49625000D01*
X138099204Y-49628427D01*
G37*
%TD.AperFunction*%
%TD*%
%TA.AperFunction,Conductor*%
%TO.N,VBUS*%
G36*
X130094942Y-52704435D02*
G01*
X130099835Y-52711935D01*
X130100035Y-52714062D01*
X130101000Y-53100000D01*
X130100035Y-53485937D01*
X130096587Y-53494202D01*
X130088306Y-53497608D01*
X130086179Y-53497408D01*
X129309544Y-53351789D01*
X129302044Y-53346896D01*
X129300000Y-53340289D01*
X129300000Y-52859710D01*
X129303427Y-52851437D01*
X129309542Y-52848210D01*
X130086180Y-52702591D01*
X130094942Y-52704435D01*
G37*
%TD.AperFunction*%
%TD*%
%TA.AperFunction,Conductor*%
%TO.N,VBUS*%
G36*
X127113817Y-52702590D02*
G01*
X127890457Y-52848210D01*
X127897956Y-52853103D01*
X127900000Y-52859710D01*
X127900000Y-53340289D01*
X127896573Y-53348562D01*
X127890456Y-53351789D01*
X127113820Y-53497408D01*
X127105057Y-53495564D01*
X127100164Y-53488064D01*
X127099964Y-53485946D01*
X127099000Y-53100000D01*
X127099964Y-52714059D01*
X127103412Y-52705797D01*
X127111693Y-52702391D01*
X127113817Y-52702590D01*
G37*
%TD.AperFunction*%
%TD*%
%TA.AperFunction,Conductor*%
%TO.N,VBUS*%
G36*
X130495775Y-52364404D02*
G01*
X130835595Y-52704224D01*
X130839022Y-52712497D01*
X130836978Y-52719104D01*
X130390783Y-53371237D01*
X130383283Y-53376130D01*
X130374520Y-53374286D01*
X130372875Y-53372924D01*
X130099293Y-53100707D01*
X129827075Y-52827124D01*
X129823669Y-52818843D01*
X129827117Y-52810578D01*
X129828756Y-52809220D01*
X130480895Y-52363020D01*
X130489658Y-52361177D01*
X130495775Y-52364404D01*
G37*
%TD.AperFunction*%
%TD*%
%TA.AperFunction,Conductor*%
%TO.N,VBUS*%
G36*
X136332804Y-49892118D02*
G01*
X136931759Y-50246602D01*
X136937133Y-50253765D01*
X136937500Y-50256671D01*
X136937500Y-50743328D01*
X136934073Y-50751601D01*
X136931759Y-50753397D01*
X136332805Y-51107880D01*
X136323940Y-51109144D01*
X136318581Y-51106091D01*
X135719792Y-50508279D01*
X135716359Y-50500010D01*
X135719779Y-50491734D01*
X136318582Y-49893906D01*
X136326856Y-49890488D01*
X136332804Y-49892118D01*
G37*
%TD.AperFunction*%
%TD*%
%TA.AperFunction,Conductor*%
%TO.N,VBUS*%
G36*
X137499188Y-50103084D02*
G01*
X137502740Y-50105810D01*
X137844155Y-50492253D01*
X137847065Y-50500722D01*
X137844155Y-50507747D01*
X137502740Y-50894189D01*
X137494694Y-50898120D01*
X137490254Y-50897536D01*
X137480266Y-50894189D01*
X137445251Y-50882454D01*
X137057982Y-50752674D01*
X137051227Y-50746796D01*
X137050000Y-50741580D01*
X137050000Y-50258419D01*
X137053427Y-50250146D01*
X137057982Y-50247325D01*
X137490256Y-50102463D01*
X137499188Y-50103084D01*
G37*
%TD.AperFunction*%
%TD*%
%TA.AperFunction,Conductor*%
%TO.N,VBUS*%
G36*
X135107210Y-50016145D02*
G01*
X135625466Y-50429342D01*
X135704058Y-50492002D01*
X135708390Y-50499839D01*
X135705912Y-50508444D01*
X135705904Y-50508455D01*
X135107378Y-51257314D01*
X135099535Y-51261637D01*
X135090933Y-51259149D01*
X134708065Y-50946788D01*
X134707559Y-50946323D01*
X134369097Y-50596670D01*
X134365806Y-50588342D01*
X134369366Y-50580125D01*
X134370299Y-50579313D01*
X135092727Y-50016066D01*
X135101357Y-50013683D01*
X135107210Y-50016145D01*
G37*
%TD.AperFunction*%
%TD*%
%TA.AperFunction,Conductor*%
%TO.N,VBUS*%
G36*
X154187348Y-54499972D02*
G01*
X154195613Y-54503417D01*
X154199022Y-54511697D01*
X154198984Y-54512611D01*
X154148716Y-55137116D01*
X154144637Y-55145087D01*
X154142904Y-55146310D01*
X153727067Y-55386393D01*
X153718189Y-55387561D01*
X153711084Y-55382110D01*
X153710297Y-55380461D01*
X153434533Y-54663691D01*
X153434761Y-54654739D01*
X153440947Y-54648693D01*
X153797327Y-54500040D01*
X153801854Y-54499139D01*
X154187348Y-54499972D01*
G37*
%TD.AperFunction*%
%TD*%
%TA.AperFunction,Conductor*%
%TO.N,Net-(D2-K)*%
G36*
X145051406Y-53578427D02*
G01*
X145053348Y-53580995D01*
X145295402Y-54014375D01*
X145296444Y-54023269D01*
X145292934Y-54028848D01*
X144907747Y-54369155D01*
X144899278Y-54372065D01*
X144892253Y-54369155D01*
X144507065Y-54028848D01*
X144503134Y-54020802D01*
X144504597Y-54014375D01*
X144746652Y-53580995D01*
X144753678Y-53575443D01*
X144756867Y-53575000D01*
X145043133Y-53575000D01*
X145051406Y-53578427D01*
G37*
%TD.AperFunction*%
%TD*%
%TA.AperFunction,Conductor*%
%TO.N,Net-(D2-K)*%
G36*
X144908227Y-51244639D02*
G01*
X145380562Y-51711920D01*
X145384033Y-51720175D01*
X145381992Y-51726841D01*
X145053484Y-52207403D01*
X145045986Y-52212299D01*
X145043825Y-52212500D01*
X144756175Y-52212500D01*
X144747902Y-52209073D01*
X144746516Y-52207403D01*
X144655840Y-52074758D01*
X144418006Y-51726839D01*
X144416167Y-51718077D01*
X144419435Y-51711922D01*
X144891772Y-51244639D01*
X144900063Y-51241258D01*
X144908227Y-51244639D01*
G37*
%TD.AperFunction*%
%TD*%
%TA.AperFunction,Conductor*%
%TO.N,Net-(D3-K)*%
G36*
X148851406Y-53578427D02*
G01*
X148853348Y-53580995D01*
X149095402Y-54014375D01*
X149096444Y-54023269D01*
X149092934Y-54028848D01*
X148707747Y-54369155D01*
X148699278Y-54372065D01*
X148692253Y-54369155D01*
X148307065Y-54028848D01*
X148303134Y-54020802D01*
X148304597Y-54014375D01*
X148546652Y-53580995D01*
X148553678Y-53575443D01*
X148556867Y-53575000D01*
X148843133Y-53575000D01*
X148851406Y-53578427D01*
G37*
%TD.AperFunction*%
%TD*%
%TA.AperFunction,Conductor*%
%TO.N,Net-(D3-K)*%
G36*
X148708227Y-51244639D02*
G01*
X149180562Y-51711920D01*
X149184033Y-51720175D01*
X149181992Y-51726841D01*
X148853484Y-52207403D01*
X148845986Y-52212299D01*
X148843825Y-52212500D01*
X148556175Y-52212500D01*
X148547902Y-52209073D01*
X148546516Y-52207403D01*
X148455840Y-52074758D01*
X148218006Y-51726839D01*
X148216167Y-51718077D01*
X148219435Y-51711922D01*
X148691772Y-51244639D01*
X148700063Y-51241258D01*
X148708227Y-51244639D01*
G37*
%TD.AperFunction*%
%TD*%
%TA.AperFunction,Conductor*%
%TO.N,+BATT*%
G36*
X127513920Y-63107474D02*
G01*
X127516872Y-63110862D01*
X128563772Y-64925133D01*
X128564939Y-64934012D01*
X128560868Y-64940180D01*
X127661362Y-65647211D01*
X127654132Y-65649712D01*
X127364422Y-65649712D01*
X127356149Y-65646285D01*
X127354704Y-65644527D01*
X126512886Y-64388783D01*
X126511126Y-64380004D01*
X126513366Y-64375092D01*
X127497504Y-63109526D01*
X127505286Y-63105100D01*
X127513920Y-63107474D01*
G37*
%TD.AperFunction*%
%TD*%
%TA.AperFunction,Conductor*%
%TO.N,+BATT*%
G36*
X129099013Y-62958349D02*
G01*
X129102357Y-62962950D01*
X129658965Y-64344849D01*
X129658877Y-64353803D01*
X129657840Y-64355720D01*
X129496744Y-64596822D01*
X129490986Y-64601328D01*
X128578046Y-64930594D01*
X128569100Y-64930177D01*
X128563945Y-64925440D01*
X127516523Y-63112126D01*
X127515352Y-63103248D01*
X127520802Y-63096143D01*
X127525615Y-63094620D01*
X129090470Y-62955667D01*
X129099013Y-62958349D01*
G37*
%TD.AperFunction*%
%TD*%
%TA.AperFunction,Conductor*%
%TO.N,+BATT*%
G36*
X119327596Y-68422986D02*
G01*
X120069104Y-68846631D01*
X120074588Y-68853711D01*
X120075000Y-68856790D01*
X120075000Y-69143209D01*
X120071573Y-69151482D01*
X120069104Y-69153368D01*
X119327597Y-69577012D01*
X119318714Y-69578141D01*
X119314456Y-69575967D01*
X118776891Y-69143209D01*
X118610320Y-69009113D01*
X118606026Y-69001256D01*
X118608544Y-68992663D01*
X118610321Y-68990886D01*
X119314458Y-68424031D01*
X119323049Y-68421514D01*
X119327596Y-68422986D01*
G37*
%TD.AperFunction*%
%TD*%
%TA.AperFunction,Conductor*%
%TO.N,+BATT*%
G36*
X130685774Y-64099446D02*
G01*
X131390253Y-64691416D01*
X131394382Y-64699361D01*
X131391683Y-64707900D01*
X131390244Y-64709338D01*
X130685559Y-65300329D01*
X130677018Y-65303019D01*
X130671848Y-65301291D01*
X129874074Y-64803610D01*
X129868869Y-64796323D01*
X129869458Y-64789206D01*
X129979009Y-64524717D01*
X129983713Y-64519215D01*
X130672147Y-64098419D01*
X130680991Y-64097029D01*
X130685774Y-64099446D01*
G37*
%TD.AperFunction*%
%TD*%
%TA.AperFunction,Conductor*%
%TO.N,Net-(Q1-G)*%
G36*
X155245927Y-58134259D02*
G01*
X155250859Y-58139880D01*
X155399123Y-58495498D01*
X155399144Y-58504452D01*
X155399123Y-58504502D01*
X155251453Y-58858694D01*
X155245106Y-58865012D01*
X155236152Y-58864991D01*
X155236094Y-58864967D01*
X154617086Y-58603021D01*
X154610803Y-58596641D01*
X154609946Y-58592246D01*
X154609946Y-58308992D01*
X154613373Y-58300719D01*
X154618633Y-58297687D01*
X155237052Y-58133076D01*
X155245927Y-58134259D01*
G37*
%TD.AperFunction*%
%TD*%
%TA.AperFunction,Conductor*%
%TO.N,Net-(Q1-G)*%
G36*
X146726683Y-58190285D02*
G01*
X147029695Y-58297244D01*
X147036355Y-58303229D01*
X147037500Y-58308277D01*
X147037500Y-58591722D01*
X147034073Y-58599995D01*
X147029694Y-58602755D01*
X146649305Y-58737027D01*
X146640638Y-58736676D01*
X146022908Y-58460682D01*
X146016753Y-58454179D01*
X146016999Y-58445227D01*
X146022908Y-58439318D01*
X146640639Y-58163322D01*
X146649305Y-58162972D01*
X146726683Y-58190285D01*
G37*
%TD.AperFunction*%
%TD*%
%TA.AperFunction,Conductor*%
%TO.N,Net-(Q1-G)*%
G36*
X156954640Y-57046960D02*
G01*
X157293623Y-57416603D01*
X157296689Y-57425017D01*
X157293633Y-57432408D01*
X156954780Y-57802868D01*
X156946668Y-57806659D01*
X156940337Y-57805126D01*
X156567337Y-57591709D01*
X156563014Y-57587404D01*
X156560795Y-57583561D01*
X156420598Y-57340726D01*
X156419431Y-57331850D01*
X156424882Y-57324745D01*
X156425101Y-57324622D01*
X156940432Y-57044587D01*
X156949336Y-57043649D01*
X156954640Y-57046960D01*
G37*
%TD.AperFunction*%
%TD*%
%TA.AperFunction,Conductor*%
%TO.N,Net-(Q1-G)*%
G36*
X155865548Y-57834178D02*
G01*
X156065821Y-58034451D01*
X156069248Y-58042724D01*
X156068041Y-58047900D01*
X155774387Y-58643268D01*
X155767654Y-58649171D01*
X155759442Y-58648912D01*
X155403804Y-58502563D01*
X155397457Y-58496245D01*
X155397436Y-58496195D01*
X155251087Y-58140557D01*
X155251108Y-58131603D01*
X155256730Y-58125612D01*
X155852099Y-57831957D01*
X155861035Y-57831372D01*
X155865548Y-57834178D01*
G37*
%TD.AperFunction*%
%TD*%
%TA.AperFunction,Conductor*%
%TO.N,Net-(Q1-G)*%
G36*
X153519439Y-60832180D02*
G01*
X153559461Y-60848866D01*
X153565779Y-60855213D01*
X153566038Y-60863425D01*
X153352695Y-61492060D01*
X153346792Y-61498793D01*
X153341616Y-61500000D01*
X153058384Y-61500000D01*
X153050111Y-61496573D01*
X153047305Y-61492060D01*
X152833961Y-60863425D01*
X152834547Y-60854489D01*
X152840537Y-60848866D01*
X153195500Y-60700875D01*
X153204449Y-60700855D01*
X153519439Y-60832180D01*
G37*
%TD.AperFunction*%
%TD*%
%TA.AperFunction,Conductor*%
%TO.N,Net-(Q1-G)*%
G36*
X153350804Y-61903427D02*
G01*
X153353144Y-61906774D01*
X153515633Y-62256861D01*
X153516007Y-62265808D01*
X153515900Y-62266090D01*
X153260222Y-62912649D01*
X153253993Y-62919082D01*
X153245039Y-62919226D01*
X153238660Y-62913119D01*
X152963005Y-62296149D01*
X152962274Y-62288801D01*
X152967399Y-62266090D01*
X153047941Y-61909124D01*
X153053105Y-61901809D01*
X153059354Y-61900000D01*
X153342531Y-61900000D01*
X153350804Y-61903427D01*
G37*
%TD.AperFunction*%
%TD*%
%TA.AperFunction,Conductor*%
%TO.N,Net-(Q1-D)*%
G36*
X154342027Y-60006604D02*
G01*
X154347223Y-60012878D01*
X154487050Y-60413211D01*
X154486688Y-60421838D01*
X154210932Y-61039553D01*
X154204430Y-61045711D01*
X154195479Y-61045468D01*
X154189567Y-61039560D01*
X154189564Y-61039553D01*
X153913492Y-60422236D01*
X153913244Y-60413287D01*
X153913378Y-60412953D01*
X154051639Y-60085533D01*
X154058013Y-60079246D01*
X154059374Y-60078789D01*
X154333150Y-60005435D01*
X154342027Y-60006604D01*
G37*
%TD.AperFunction*%
%TD*%
%TA.AperFunction,Conductor*%
%TO.N,Net-(Q1-D)*%
G36*
X148601683Y-59140285D02*
G01*
X148904695Y-59247244D01*
X148911355Y-59253229D01*
X148912500Y-59258277D01*
X148912500Y-59541722D01*
X148909073Y-59549995D01*
X148904694Y-59552755D01*
X148524305Y-59687027D01*
X148515638Y-59686676D01*
X147897908Y-59410682D01*
X147891753Y-59404179D01*
X147891999Y-59395227D01*
X147897908Y-59389318D01*
X148515639Y-59113322D01*
X148524305Y-59112972D01*
X148601683Y-59140285D01*
G37*
%TD.AperFunction*%
%TD*%
%TA.AperFunction,Conductor*%
%TO.N,Net-(U1-CHRG)*%
G36*
X142128698Y-56053904D02*
G01*
X142542479Y-56212124D01*
X142548982Y-56218279D01*
X142550000Y-56223052D01*
X142550000Y-56506947D01*
X142546573Y-56515220D01*
X142542479Y-56517875D01*
X142128698Y-56676095D01*
X142120634Y-56676203D01*
X141267853Y-56376036D01*
X141261187Y-56370057D01*
X141260702Y-56361115D01*
X141266681Y-56354449D01*
X141267853Y-56353964D01*
X141653336Y-56218279D01*
X142120634Y-56053796D01*
X142128698Y-56053904D01*
G37*
%TD.AperFunction*%
%TD*%
%TA.AperFunction,Conductor*%
%TO.N,Net-(U1-CHRG)*%
G36*
X144554169Y-55646452D02*
G01*
X144893758Y-56017096D01*
X144896820Y-56025511D01*
X144893758Y-56032904D01*
X144554169Y-56403547D01*
X144546053Y-56407332D01*
X144540754Y-56406318D01*
X144031912Y-56178100D01*
X144025766Y-56171588D01*
X144025000Y-56167425D01*
X144025000Y-55882574D01*
X144028427Y-55874301D01*
X144031908Y-55871901D01*
X144540755Y-55643680D01*
X144549705Y-55643422D01*
X144554169Y-55646452D01*
G37*
%TD.AperFunction*%
%TD*%
%TA.AperFunction,Conductor*%
%TO.N,Net-(U2-VM)*%
G36*
X140112090Y-67613072D02*
G01*
X140492195Y-67747244D01*
X140498855Y-67753229D01*
X140500000Y-67758277D01*
X140500000Y-68041722D01*
X140496573Y-68049995D01*
X140492194Y-68052755D01*
X140112115Y-68186918D01*
X140103173Y-68186440D01*
X140102943Y-68186327D01*
X139557157Y-67910442D01*
X139551319Y-67903651D01*
X139551993Y-67894722D01*
X139557157Y-67889558D01*
X139816871Y-67758277D01*
X140102944Y-67613671D01*
X140111872Y-67612998D01*
X140112090Y-67613072D01*
G37*
%TD.AperFunction*%
%TD*%
%TA.AperFunction,Conductor*%
%TO.N,Net-(U2-VM)*%
G36*
X141723874Y-68328142D02*
G01*
X142102434Y-68774416D01*
X142105173Y-68782942D01*
X142102731Y-68789190D01*
X141806935Y-69167666D01*
X141799140Y-69172074D01*
X141791678Y-69170482D01*
X141348072Y-68903192D01*
X141342754Y-68895987D01*
X141342933Y-68889711D01*
X141466459Y-68490815D01*
X141471132Y-68484553D01*
X141708454Y-68325982D01*
X141717235Y-68324236D01*
X141723874Y-68328142D01*
G37*
%TD.AperFunction*%
%TD*%
%TA.AperFunction,Conductor*%
%TO.N,Net-(U1-STDBY)*%
G36*
X148354169Y-55646452D02*
G01*
X148693758Y-56017096D01*
X148696820Y-56025511D01*
X148693758Y-56032904D01*
X148354169Y-56403547D01*
X148346053Y-56407332D01*
X148340754Y-56406318D01*
X147831912Y-56178100D01*
X147825766Y-56171588D01*
X147825000Y-56167425D01*
X147825000Y-55882574D01*
X147828427Y-55874301D01*
X147831908Y-55871901D01*
X148340755Y-55643680D01*
X148349705Y-55643422D01*
X148354169Y-55646452D01*
G37*
%TD.AperFunction*%
%TD*%
%TA.AperFunction,Conductor*%
%TO.N,Net-(U1-STDBY)*%
G36*
X142128698Y-57323904D02*
G01*
X142542479Y-57482124D01*
X142548982Y-57488279D01*
X142550000Y-57493052D01*
X142550000Y-57776947D01*
X142546573Y-57785220D01*
X142542479Y-57787875D01*
X142128698Y-57946095D01*
X142120634Y-57946203D01*
X141267853Y-57646036D01*
X141261187Y-57640057D01*
X141260702Y-57631115D01*
X141266681Y-57624449D01*
X141267853Y-57623964D01*
X141653336Y-57488279D01*
X142120634Y-57323796D01*
X142128698Y-57323904D01*
G37*
%TD.AperFunction*%
%TD*%
%TA.AperFunction,Conductor*%
%TO.N,Net-(U1-PROG)*%
G36*
X128359244Y-57193680D02*
G01*
X128868089Y-57421900D01*
X128874234Y-57428411D01*
X128875000Y-57432574D01*
X128875000Y-57717425D01*
X128871573Y-57725698D01*
X128868088Y-57728100D01*
X128359245Y-57956318D01*
X128350294Y-57956577D01*
X128345830Y-57953547D01*
X128139272Y-57728100D01*
X128006240Y-57582902D01*
X128003179Y-57574489D01*
X128006240Y-57567097D01*
X128345831Y-57196451D01*
X128353946Y-57192667D01*
X128359244Y-57193680D01*
G37*
%TD.AperFunction*%
%TD*%
%TA.AperFunction,Conductor*%
%TO.N,Net-(U1-PROG)*%
G36*
X136132146Y-56353964D02*
G01*
X136138812Y-56359943D01*
X136139297Y-56368885D01*
X136133318Y-56375551D01*
X136132146Y-56376036D01*
X135279365Y-56676203D01*
X135271301Y-56676095D01*
X134857521Y-56517875D01*
X134851018Y-56511720D01*
X134850000Y-56506947D01*
X134850000Y-56223052D01*
X134853427Y-56214779D01*
X134857521Y-56212124D01*
X135271302Y-56053903D01*
X135279365Y-56053796D01*
X136132146Y-56353964D01*
G37*
%TD.AperFunction*%
%TD*%
%TA.AperFunction,Conductor*%
%TO.N,Net-(U1-PROG)*%
G36*
X127654169Y-57196452D02*
G01*
X127993758Y-57567096D01*
X127996820Y-57575511D01*
X127993758Y-57582904D01*
X127654169Y-57953547D01*
X127646053Y-57957332D01*
X127640754Y-57956318D01*
X127131912Y-57728100D01*
X127125766Y-57721588D01*
X127125000Y-57717425D01*
X127125000Y-57432574D01*
X127128427Y-57424301D01*
X127131908Y-57421901D01*
X127640755Y-57193680D01*
X127649705Y-57193422D01*
X127654169Y-57196452D01*
G37*
%TD.AperFunction*%
%TD*%
%TA.AperFunction,Conductor*%
%TO.N,Net-(U1-PROG)*%
G36*
X123416839Y-56855654D02*
G01*
X123417056Y-56855748D01*
X124690071Y-57421911D01*
X124696237Y-57428403D01*
X124697016Y-57432600D01*
X124697016Y-57717557D01*
X124693589Y-57725830D01*
X124690275Y-57728154D01*
X123417218Y-58323922D01*
X123408272Y-58324325D01*
X123401662Y-58318284D01*
X123401466Y-58317840D01*
X123100864Y-57594487D01*
X123100854Y-57585538D01*
X123401546Y-56861966D01*
X123407884Y-56855643D01*
X123416839Y-56855654D01*
G37*
%TD.AperFunction*%
%TD*%
%TA.AperFunction,Conductor*%
%TO.N,Net-(U2-OD)*%
G36*
X133065224Y-74423370D02*
G01*
X133072821Y-74428110D01*
X133075000Y-74434911D01*
X133075000Y-74715088D01*
X133071573Y-74723361D01*
X133065223Y-74726629D01*
X132777754Y-74774540D01*
X132772334Y-74774164D01*
X132172144Y-74586165D01*
X132165273Y-74580422D01*
X132164476Y-74571503D01*
X132170219Y-74564632D01*
X132172144Y-74563835D01*
X132772334Y-74375835D01*
X132777754Y-74375459D01*
X133065224Y-74423370D01*
G37*
%TD.AperFunction*%
%TD*%
%TA.AperFunction,Conductor*%
%TO.N,Net-(U2-OD)*%
G36*
X139545776Y-68857287D02*
G01*
X139545800Y-68857311D01*
X139545805Y-68857316D01*
X139831575Y-69144046D01*
X139834988Y-69152325D01*
X139833760Y-69157523D01*
X139690771Y-69444507D01*
X139684014Y-69450383D01*
X139680077Y-69450987D01*
X139394554Y-69445577D01*
X139386348Y-69441994D01*
X139384344Y-69439176D01*
X139241345Y-69157555D01*
X139240655Y-69148627D01*
X139243487Y-69144001D01*
X139529231Y-68857314D01*
X139537499Y-68853875D01*
X139545776Y-68857287D01*
G37*
%TD.AperFunction*%
%TD*%
%TA.AperFunction,Conductor*%
%TO.N,Net-(U2-OC)*%
G36*
X138790224Y-74423370D02*
G01*
X138797821Y-74428110D01*
X138800000Y-74434911D01*
X138800000Y-74715088D01*
X138796573Y-74723361D01*
X138790223Y-74726629D01*
X138502754Y-74774540D01*
X138497334Y-74774164D01*
X137897144Y-74586165D01*
X137890273Y-74580422D01*
X137889476Y-74571503D01*
X137895219Y-74564632D01*
X137897144Y-74563835D01*
X138497334Y-74375835D01*
X138502754Y-74375459D01*
X138790224Y-74423370D01*
G37*
%TD.AperFunction*%
%TD*%
%TA.AperFunction,Conductor*%
%TO.N,Net-(U2-OC)*%
G36*
X140118792Y-66667777D02*
G01*
X140499045Y-66823926D01*
X140505396Y-66830238D01*
X140506226Y-66836058D01*
X140474486Y-67117786D01*
X140470155Y-67125623D01*
X140466315Y-67127654D01*
X140111919Y-67237185D01*
X140103184Y-67236448D01*
X139557437Y-66960473D01*
X139551601Y-66953681D01*
X139552276Y-66944752D01*
X139557551Y-66939534D01*
X140109206Y-66668109D01*
X140118140Y-66667532D01*
X140118792Y-66667777D01*
G37*
%TD.AperFunction*%
%TD*%
%TA.AperFunction,Conductor*%
%TO.N,Net-(J4-CC1)*%
G36*
X127864636Y-51356878D02*
G01*
X127865987Y-51358498D01*
X128130242Y-51741015D01*
X128177308Y-51809145D01*
X128179191Y-51817899D01*
X128175970Y-51824054D01*
X127903441Y-52097546D01*
X127895174Y-52100987D01*
X127895124Y-52100987D01*
X127512688Y-52100031D01*
X127504423Y-52096583D01*
X127501017Y-52088302D01*
X127501057Y-52087370D01*
X127561602Y-51364174D01*
X127565707Y-51356216D01*
X127573261Y-51353451D01*
X127856363Y-51353451D01*
X127864636Y-51356878D01*
G37*
%TD.AperFunction*%
%TD*%
%TA.AperFunction,Conductor*%
%TO.N,Net-(J4-CC1)*%
G36*
X127720340Y-49507776D02*
G01*
X127721181Y-49508617D01*
X128200549Y-50039665D01*
X128203549Y-50048103D01*
X128202265Y-50052862D01*
X127865767Y-50706157D01*
X127858933Y-50711943D01*
X127855366Y-50712500D01*
X127569634Y-50712500D01*
X127561361Y-50709073D01*
X127559233Y-50706158D01*
X127222733Y-50052861D01*
X127221992Y-50043938D01*
X127224447Y-50039669D01*
X127703815Y-49508620D01*
X127711902Y-49504776D01*
X127720340Y-49507776D01*
G37*
%TD.AperFunction*%
%TD*%
%TA.AperFunction,Conductor*%
%TO.N,Net-(J4-CC2)*%
G36*
X129635012Y-51356878D02*
G01*
X129638398Y-51364175D01*
X129698941Y-52087355D01*
X129696217Y-52095885D01*
X129688258Y-52099990D01*
X129687311Y-52100031D01*
X129304875Y-52100987D01*
X129296594Y-52097581D01*
X129296558Y-52097546D01*
X129286403Y-52087355D01*
X129024028Y-51824052D01*
X129020617Y-51815774D01*
X129022690Y-51809147D01*
X129334011Y-51358500D01*
X129341533Y-51353642D01*
X129343637Y-51353451D01*
X129626739Y-51353451D01*
X129635012Y-51356878D01*
G37*
%TD.AperFunction*%
%TD*%
%TA.AperFunction,Conductor*%
%TO.N,Net-(J4-CC2)*%
G36*
X129495340Y-49507776D02*
G01*
X129496181Y-49508617D01*
X129975549Y-50039665D01*
X129978549Y-50048103D01*
X129977265Y-50052862D01*
X129640767Y-50706157D01*
X129633933Y-50711943D01*
X129630366Y-50712500D01*
X129344634Y-50712500D01*
X129336361Y-50709073D01*
X129334233Y-50706158D01*
X128997733Y-50052861D01*
X128996992Y-50043938D01*
X128999447Y-50039669D01*
X129478815Y-49508620D01*
X129486902Y-49504776D01*
X129495340Y-49507776D01*
G37*
%TD.AperFunction*%
%TD*%
M02*
