%TF.GenerationSoftware,KiCad,Pcbnew,7.0.8*%
%TF.CreationDate,2025-01-10T13:03:08+01:00*%
%TF.ProjectId,LIR2032-charger,4c495232-3033-4322-9d63-686172676572,rev?*%
%TF.SameCoordinates,Original*%
%TF.FileFunction,Copper,L2,Bot*%
%TF.FilePolarity,Positive*%
%FSLAX46Y46*%
G04 Gerber Fmt 4.6, Leading zero omitted, Abs format (unit mm)*
G04 Created by KiCad (PCBNEW 7.0.8) date 2025-01-10 13:03:08*
%MOMM*%
%LPD*%
G01*
G04 APERTURE LIST*
G04 Aperture macros list*
%AMRoundRect*
0 Rectangle with rounded corners*
0 $1 Rounding radius*
0 $2 $3 $4 $5 $6 $7 $8 $9 X,Y pos of 4 corners*
0 Add a 4 corners polygon primitive as box body*
4,1,4,$2,$3,$4,$5,$6,$7,$8,$9,$2,$3,0*
0 Add four circle primitives for the rounded corners*
1,1,$1+$1,$2,$3*
1,1,$1+$1,$4,$5*
1,1,$1+$1,$6,$7*
1,1,$1+$1,$8,$9*
0 Add four rect primitives between the rounded corners*
20,1,$1+$1,$2,$3,$4,$5,0*
20,1,$1+$1,$4,$5,$6,$7,0*
20,1,$1+$1,$6,$7,$8,$9,0*
20,1,$1+$1,$8,$9,$2,$3,0*%
%AMRotRect*
0 Rectangle, with rotation*
0 The origin of the aperture is its center*
0 $1 length*
0 $2 width*
0 $3 Rotation angle, in degrees counterclockwise*
0 Add horizontal line*
21,1,$1,$2,0,0,$3*%
G04 Aperture macros list end*
%TA.AperFunction,ComponentPad*%
%ADD10R,1.700000X1.700000*%
%TD*%
%TA.AperFunction,ComponentPad*%
%ADD11O,1.700000X1.700000*%
%TD*%
%TA.AperFunction,ComponentPad*%
%ADD12C,5.600000*%
%TD*%
%TA.AperFunction,ComponentPad*%
%ADD13RotRect,3.000000X3.000000X345.000000*%
%TD*%
%TA.AperFunction,ComponentPad*%
%ADD14C,3.000000*%
%TD*%
%TA.AperFunction,ComponentPad*%
%ADD15C,1.600000*%
%TD*%
%TA.AperFunction,ComponentPad*%
%ADD16O,1.600000X1.600000*%
%TD*%
%TA.AperFunction,SMDPad,CuDef*%
%ADD17RoundRect,0.250000X0.900000X-1.000000X0.900000X1.000000X-0.900000X1.000000X-0.900000X-1.000000X0*%
%TD*%
%TA.AperFunction,SMDPad,CuDef*%
%ADD18RoundRect,0.175000X-0.175000X-0.750000X0.175000X-0.750000X0.175000X0.750000X-0.175000X0.750000X0*%
%TD*%
%TA.AperFunction,SMDPad,CuDef*%
%ADD19RoundRect,0.190000X0.190000X0.735000X-0.190000X0.735000X-0.190000X-0.735000X0.190000X-0.735000X0*%
%TD*%
%TA.AperFunction,SMDPad,CuDef*%
%ADD20RoundRect,0.200000X0.200000X0.725000X-0.200000X0.725000X-0.200000X-0.725000X0.200000X-0.725000X0*%
%TD*%
%TA.AperFunction,SMDPad,CuDef*%
%ADD21RoundRect,0.175000X0.175000X0.750000X-0.175000X0.750000X-0.175000X-0.750000X0.175000X-0.750000X0*%
%TD*%
%TA.AperFunction,SMDPad,CuDef*%
%ADD22RoundRect,0.190000X-0.190000X-0.735000X0.190000X-0.735000X0.190000X0.735000X-0.190000X0.735000X0*%
%TD*%
%TA.AperFunction,SMDPad,CuDef*%
%ADD23RoundRect,0.200000X-0.200000X-0.725000X0.200000X-0.725000X0.200000X0.725000X-0.200000X0.725000X0*%
%TD*%
%TA.AperFunction,ComponentPad*%
%ADD24O,1.100000X1.700000*%
%TD*%
%TA.AperFunction,ComponentPad*%
%ADD25RoundRect,0.250000X-0.625000X0.350000X-0.625000X-0.350000X0.625000X-0.350000X0.625000X0.350000X0*%
%TD*%
%TA.AperFunction,ComponentPad*%
%ADD26O,1.750000X1.200000*%
%TD*%
%TA.AperFunction,SMDPad,CuDef*%
%ADD27RoundRect,0.250000X0.650000X-1.000000X0.650000X1.000000X-0.650000X1.000000X-0.650000X-1.000000X0*%
%TD*%
%TA.AperFunction,ViaPad*%
%ADD28C,0.800000*%
%TD*%
%TA.AperFunction,Conductor*%
%ADD29C,0.500000*%
%TD*%
%TA.AperFunction,Conductor*%
%ADD30C,0.300000*%
%TD*%
G04 APERTURE END LIST*
D10*
%TO.P,J3,1,Pin_1*%
%TO.N,GND*%
X156300000Y-73680000D03*
D11*
%TO.P,J3,2,Pin_2*%
%TO.N,VCC*%
X156300000Y-71140000D03*
%TO.P,J3,3,Pin_3*%
X156300000Y-68600000D03*
%TD*%
D12*
%TO.P,H3,1*%
%TO.N,N/C*%
X125000000Y-74600000D03*
%TD*%
%TO.P,H1,1*%
%TO.N,N/C*%
X157500000Y-51600000D03*
%TD*%
%TO.P,H2,1*%
%TO.N,N/C*%
X119600000Y-51600000D03*
%TD*%
D13*
%TO.P,J1,1,Pin_1*%
%TO.N,+BATT*%
X127508180Y-63096798D03*
D14*
%TO.P,J1,2,Pin_2*%
%TO.N,-BATT*%
X147300000Y-68400000D03*
%TD*%
D15*
%TO.P,R13,1*%
%TO.N,Net-(U1-PROG)*%
X123100000Y-57590000D03*
D16*
%TO.P,R13,2*%
%TO.N,GND*%
X123100000Y-65210000D03*
%TD*%
D17*
%TO.P,D4,1,A1*%
%TO.N,GND*%
X119100000Y-60850000D03*
%TO.P,D4,2,A2*%
%TO.N,VBUS*%
X119100000Y-56550000D03*
%TD*%
D18*
%TO.P,J4,A5,CC1*%
%TO.N,Net-(J4-CC1)*%
X128100000Y-54752500D03*
D19*
%TO.P,J4,A9,VBUS*%
%TO.N,VBUS*%
X130120000Y-54752500D03*
D20*
%TO.P,J4,A12,GND*%
%TO.N,GND*%
X131350000Y-54752500D03*
D21*
%TO.P,J4,B5,CC2*%
%TO.N,Net-(J4-CC2)*%
X129100000Y-54752500D03*
D22*
%TO.P,J4,B9,VBUS*%
%TO.N,VBUS*%
X127080000Y-54752500D03*
D23*
%TO.P,J4,B12,GND*%
%TO.N,GND*%
X125850000Y-54752500D03*
D24*
%TO.P,J4,S1,SHIELD*%
%TO.N,unconnected-(J4-SHIELD-PadS1)*%
X124280000Y-50547500D03*
X124280000Y-54347500D03*
X132920000Y-50547500D03*
X132920000Y-54347500D03*
%TD*%
D25*
%TO.P,J2,1,Pin_1*%
%TO.N,+BATT*%
X118600000Y-69000000D03*
D26*
%TO.P,J2,2,Pin_2*%
%TO.N,-BATT*%
X118600000Y-71000000D03*
%TD*%
D27*
%TO.P,D1,1,K*%
%TO.N,VCC*%
X158300000Y-62400000D03*
%TO.P,D1,2,A*%
%TO.N,VBUS*%
X158300000Y-58400000D03*
%TD*%
D28*
%TO.N,GND*%
X140100000Y-76700000D03*
X136500000Y-76000000D03*
X143800000Y-67400000D03*
X137900000Y-57600000D03*
X129400000Y-60500000D03*
X125300000Y-59900000D03*
X123100000Y-59900000D03*
X123100000Y-61400000D03*
X123100000Y-62900000D03*
X120500000Y-76300000D03*
X117400000Y-76300000D03*
X157300000Y-77100000D03*
X160200000Y-64900000D03*
X159900000Y-55400000D03*
X154100000Y-49000000D03*
X152100000Y-64900000D03*
X151500000Y-61900000D03*
X150600000Y-60600000D03*
X153900000Y-73600000D03*
X117300000Y-62900000D03*
X150600000Y-77100000D03*
X147100000Y-73600000D03*
X150200000Y-64000000D03*
X129400000Y-58800000D03*
X150200000Y-53000000D03*
X152200000Y-54500000D03*
X119100000Y-64300000D03*
X150200000Y-65200000D03*
X126700000Y-59200000D03*
X124300000Y-48800000D03*
X151200000Y-52300000D03*
X151200000Y-53700000D03*
X124600000Y-52400000D03*
X151900000Y-71800000D03*
X143400000Y-62400000D03*
X137900000Y-55000000D03*
X119100000Y-62900000D03*
X131500000Y-57700000D03*
X148800000Y-62400000D03*
X150500000Y-70100000D03*
X148600000Y-71800000D03*
X147100000Y-77100000D03*
X119100000Y-65700000D03*
X125600000Y-53100000D03*
X155000000Y-57000000D03*
X134400000Y-55100000D03*
X140120000Y-71400000D03*
X134400000Y-57800000D03*
X135800000Y-53600000D03*
X137200000Y-53600000D03*
X117300000Y-64300000D03*
X125900000Y-52000000D03*
X143000000Y-60200000D03*
X120900000Y-65700000D03*
X147600000Y-57200000D03*
X151200000Y-50900000D03*
X148600000Y-75300000D03*
X149900000Y-57200000D03*
X120900000Y-64300000D03*
X134400000Y-53600000D03*
X152200000Y-53100000D03*
X145100000Y-75300000D03*
X117300000Y-65700000D03*
X150600000Y-73600000D03*
X151900000Y-75300000D03*
X131700000Y-53000000D03*
X120900000Y-62900000D03*
X151000000Y-56300000D03*
X132900000Y-48800000D03*
X153900000Y-77100000D03*
X150200000Y-66400000D03*
X152200000Y-51800000D03*
%TO.N,VBUS*%
X153800000Y-54500000D03*
X137900000Y-49300000D03*
X130100000Y-53100000D03*
X127100000Y-53100000D03*
%TO.N,Net-(Q1-G)*%
X155400000Y-58500000D03*
X153200000Y-60700000D03*
%TO.N,Net-(J4-CC1)*%
X127900000Y-52100000D03*
%TO.N,Net-(J4-CC2)*%
X129300000Y-52100000D03*
%TD*%
D29*
%TO.N,VCC*%
X158300000Y-62400000D02*
X158300000Y-64085786D01*
X156300000Y-66914214D02*
X156300000Y-68560000D01*
X158007107Y-64792893D02*
X156592893Y-66207107D01*
X156592886Y-66207100D02*
G75*
G03*
X156300000Y-66914214I707114J-707100D01*
G01*
X158007114Y-64792900D02*
G75*
G03*
X158300000Y-64085786I-707114J707100D01*
G01*
%TO.N,VBUS*%
X127080000Y-54752500D02*
X127080000Y-53120000D01*
X157892893Y-56092893D02*
X158007107Y-56207107D01*
X153800000Y-54500000D02*
X154435786Y-54500000D01*
X151992893Y-49592893D02*
X153507107Y-51107107D01*
X153800000Y-51814214D02*
X153800000Y-54500000D01*
X119203553Y-56446447D02*
X119100000Y-56550000D01*
X137900000Y-49300000D02*
X151285786Y-49300000D01*
X127080000Y-53120000D02*
X127100000Y-53100000D01*
X155142893Y-54792893D02*
X155857107Y-55507107D01*
X126492893Y-56300000D02*
X119557107Y-56300000D01*
X130100000Y-53100000D02*
X130100000Y-54732500D01*
X126933553Y-56066447D02*
X126846446Y-56153554D01*
X130100000Y-54732500D02*
X130120000Y-54752500D01*
X158300000Y-56914214D02*
X158300000Y-58400000D01*
X156564214Y-55800000D02*
X157185786Y-55800000D01*
X127080000Y-54752500D02*
X127080000Y-55712893D01*
X153799990Y-51814214D02*
G75*
G03*
X153507107Y-51107107I-999990J14D01*
G01*
X119557107Y-56300005D02*
G75*
G03*
X119203553Y-56446447I-7J-499995D01*
G01*
X151992900Y-49592886D02*
G75*
G03*
X151285786Y-49300000I-707100J-707114D01*
G01*
X158299990Y-56914214D02*
G75*
G03*
X158007107Y-56207107I-999990J14D01*
G01*
X157892900Y-56092886D02*
G75*
G03*
X157185786Y-55800000I-707100J-707114D01*
G01*
X155857100Y-55507114D02*
G75*
G03*
X156564214Y-55800000I707100J707114D01*
G01*
X126492893Y-56299995D02*
G75*
G03*
X126846446Y-56153554I7J499995D01*
G01*
X155142900Y-54792886D02*
G75*
G03*
X154435786Y-54500000I-707100J-707114D01*
G01*
X126933556Y-56066450D02*
G75*
G03*
X127080000Y-55712893I-353556J353550D01*
G01*
D30*
%TO.N,Net-(Q1-G)*%
X155400000Y-58500000D02*
X153200000Y-60700000D01*
%TO.N,Net-(J4-CC1)*%
X127900000Y-52100000D02*
X128100000Y-52300000D01*
X128100000Y-52300000D02*
X128100000Y-54752500D01*
%TO.N,Net-(J4-CC2)*%
X129300000Y-52100000D02*
X129100000Y-52300000D01*
X129100000Y-52300000D02*
X129100000Y-54752500D01*
%TD*%
%TA.AperFunction,Conductor*%
%TO.N,GND*%
G36*
X119122765Y-48110185D02*
G01*
X119168520Y-48162989D01*
X119178464Y-48232147D01*
X119149439Y-48295703D01*
X119090661Y-48333477D01*
X119069133Y-48337773D01*
X119065255Y-48338194D01*
X118715726Y-48415131D01*
X118459970Y-48501306D01*
X118376565Y-48529409D01*
X118376563Y-48529410D01*
X118376552Y-48529414D01*
X118051755Y-48679680D01*
X118051751Y-48679682D01*
X117901800Y-48769905D01*
X117745081Y-48864200D01*
X117721796Y-48881901D01*
X117460172Y-49080781D01*
X117460163Y-49080789D01*
X117200331Y-49326914D01*
X116968641Y-49599680D01*
X116968634Y-49599690D01*
X116767790Y-49895913D01*
X116767784Y-49895922D01*
X116600151Y-50212111D01*
X116600142Y-50212129D01*
X116467674Y-50544600D01*
X116467672Y-50544607D01*
X116371932Y-50889434D01*
X116371926Y-50889460D01*
X116314029Y-51242614D01*
X116314028Y-51242627D01*
X116314028Y-51242629D01*
X116310058Y-51315848D01*
X116298318Y-51532382D01*
X116275033Y-51598258D01*
X116269699Y-51602395D01*
X116293477Y-51639395D01*
X116298318Y-51667617D01*
X116310542Y-51893084D01*
X116314028Y-51957368D01*
X116314029Y-51957385D01*
X116371926Y-52310539D01*
X116371932Y-52310565D01*
X116467672Y-52655392D01*
X116467674Y-52655399D01*
X116600142Y-52987870D01*
X116600151Y-52987888D01*
X116767784Y-53304077D01*
X116767787Y-53304082D01*
X116767789Y-53304085D01*
X116962561Y-53591353D01*
X116968634Y-53600309D01*
X116968641Y-53600319D01*
X117177931Y-53846714D01*
X117200332Y-53873086D01*
X117460163Y-54119211D01*
X117745081Y-54335800D01*
X118051747Y-54520315D01*
X118153298Y-54567297D01*
X118205875Y-54613310D01*
X118225229Y-54680446D01*
X118205215Y-54747388D01*
X118152187Y-54792882D01*
X118113833Y-54803194D01*
X118047202Y-54810001D01*
X118047200Y-54810001D01*
X117880668Y-54865185D01*
X117880663Y-54865187D01*
X117731342Y-54957289D01*
X117607289Y-55081342D01*
X117515187Y-55230663D01*
X117515185Y-55230668D01*
X117514097Y-55233952D01*
X117460001Y-55397203D01*
X117460001Y-55397204D01*
X117460000Y-55397204D01*
X117449500Y-55499983D01*
X117449500Y-57600001D01*
X117449501Y-57600018D01*
X117460000Y-57702796D01*
X117460001Y-57702799D01*
X117501195Y-57827112D01*
X117515186Y-57869334D01*
X117607288Y-58018656D01*
X117731344Y-58142712D01*
X117880666Y-58234814D01*
X118047203Y-58289999D01*
X118149991Y-58300500D01*
X120050008Y-58300499D01*
X120152797Y-58289999D01*
X120319334Y-58234814D01*
X120468656Y-58142712D01*
X120592712Y-58018656D01*
X120684814Y-57869334D01*
X120739999Y-57702797D01*
X120739999Y-57702787D01*
X120740991Y-57698157D01*
X120774267Y-57636720D01*
X120780686Y-57630700D01*
X121283066Y-57192147D01*
X121410291Y-57081086D01*
X121473740Y-57051828D01*
X121491837Y-57050500D01*
X121736581Y-57050500D01*
X121803620Y-57070185D01*
X121849375Y-57122989D01*
X121859319Y-57192147D01*
X121856356Y-57206593D01*
X121814366Y-57363302D01*
X121814364Y-57363313D01*
X121794532Y-57589998D01*
X121794532Y-57590001D01*
X121814364Y-57816686D01*
X121814366Y-57816697D01*
X121873258Y-58036488D01*
X121873261Y-58036497D01*
X121969431Y-58242732D01*
X121969432Y-58242734D01*
X122099954Y-58429141D01*
X122260858Y-58590045D01*
X122260861Y-58590047D01*
X122447266Y-58720568D01*
X122653504Y-58816739D01*
X122873308Y-58875635D01*
X123035230Y-58889801D01*
X123099998Y-58895468D01*
X123100000Y-58895468D01*
X123100002Y-58895468D01*
X123156673Y-58890509D01*
X123326692Y-58875635D01*
X123546496Y-58816739D01*
X123752734Y-58720568D01*
X123939139Y-58590047D01*
X124100047Y-58429139D01*
X124230568Y-58242734D01*
X124326739Y-58036496D01*
X124385635Y-57816692D01*
X124405468Y-57590000D01*
X124385635Y-57363308D01*
X124343644Y-57206593D01*
X124345307Y-57136743D01*
X124384470Y-57078881D01*
X124448698Y-57051377D01*
X124463419Y-57050500D01*
X126538663Y-57050500D01*
X126538796Y-57050495D01*
X126591299Y-57050497D01*
X126785709Y-57019708D01*
X126972909Y-56958885D01*
X127148289Y-56869527D01*
X127307532Y-56753834D01*
X127308016Y-56753349D01*
X127308034Y-56753335D01*
X127398253Y-56663114D01*
X127398258Y-56663110D01*
X127408464Y-56652904D01*
X127408465Y-56652904D01*
X127418137Y-56643231D01*
X127427920Y-56633449D01*
X127427933Y-56633441D01*
X127464244Y-56597129D01*
X127464245Y-56597130D01*
X127533836Y-56527538D01*
X127549916Y-56505403D01*
X127553939Y-56500430D01*
X127558608Y-56495231D01*
X127562915Y-56487966D01*
X127566083Y-56483150D01*
X127649530Y-56368294D01*
X127713862Y-56242030D01*
X127761835Y-56191235D01*
X127829655Y-56174439D01*
X127835556Y-56174833D01*
X127870406Y-56178000D01*
X127870409Y-56178000D01*
X128329591Y-56178000D01*
X128329594Y-56178000D01*
X128397657Y-56171815D01*
X128481088Y-56145816D01*
X128561432Y-56120781D01*
X128562286Y-56123521D01*
X128618273Y-56115764D01*
X128638299Y-56121643D01*
X128638568Y-56120781D01*
X128738236Y-56151838D01*
X128802343Y-56171815D01*
X128870406Y-56178000D01*
X128870409Y-56178000D01*
X129329591Y-56178000D01*
X129329594Y-56178000D01*
X129397657Y-56171815D01*
X129481088Y-56145816D01*
X129561432Y-56120781D01*
X129562209Y-56123277D01*
X129619104Y-56115404D01*
X129637697Y-56119662D01*
X129644528Y-56121790D01*
X129644529Y-56121791D01*
X129804620Y-56171677D01*
X129874199Y-56178000D01*
X130365800Y-56177999D01*
X130365808Y-56177999D01*
X130435376Y-56171678D01*
X130435383Y-56171676D01*
X130595471Y-56121791D01*
X130738972Y-56035042D01*
X130857542Y-55916472D01*
X130944291Y-55772971D01*
X130994177Y-55612880D01*
X131000500Y-55543301D01*
X131000499Y-54699104D01*
X131869500Y-54699104D01*
X131884699Y-54853432D01*
X131898977Y-54900500D01*
X131944768Y-55051454D01*
X132042315Y-55233950D01*
X132042317Y-55233952D01*
X132173589Y-55393910D01*
X132270209Y-55473202D01*
X132333550Y-55525185D01*
X132516046Y-55622732D01*
X132714066Y-55682800D01*
X132714065Y-55682800D01*
X132732529Y-55684618D01*
X132920000Y-55703083D01*
X133125934Y-55682800D01*
X133323954Y-55622732D01*
X133506450Y-55525185D01*
X133666410Y-55393910D01*
X133797685Y-55233950D01*
X133895232Y-55051454D01*
X133955300Y-54853434D01*
X133970500Y-54699108D01*
X133970500Y-53995892D01*
X133955300Y-53841566D01*
X133895232Y-53643546D01*
X133797685Y-53461050D01*
X133745702Y-53397709D01*
X133666410Y-53301089D01*
X133537160Y-53195018D01*
X133506450Y-53169815D01*
X133323954Y-53072268D01*
X133125934Y-53012200D01*
X133125932Y-53012199D01*
X133125934Y-53012199D01*
X132920000Y-52991917D01*
X132714067Y-53012199D01*
X132516043Y-53072269D01*
X132405898Y-53131143D01*
X132333550Y-53169815D01*
X132333548Y-53169816D01*
X132333547Y-53169817D01*
X132173589Y-53301089D01*
X132042317Y-53461047D01*
X131944769Y-53643543D01*
X131884699Y-53841567D01*
X131869500Y-53995895D01*
X131869500Y-54699104D01*
X131000499Y-54699104D01*
X131000499Y-53961700D01*
X131000499Y-53961699D01*
X131000499Y-53961691D01*
X130994178Y-53892127D01*
X130994177Y-53892125D01*
X130994177Y-53892120D01*
X130978241Y-53840982D01*
X130973570Y-53819347D01*
X130972140Y-53807803D01*
X130925984Y-53638459D01*
X130923745Y-53583005D01*
X130969183Y-53340667D01*
X130971152Y-53332946D01*
X130985674Y-53288256D01*
X130993913Y-53209855D01*
X130994630Y-53204947D01*
X130996384Y-53195598D01*
X130999604Y-53172669D01*
X131000888Y-53159016D01*
X131000825Y-53147673D01*
X131001162Y-53140877D01*
X131005460Y-53100000D01*
X130985674Y-52911744D01*
X130927179Y-52731716D01*
X130832533Y-52567784D01*
X130705871Y-52427112D01*
X130705870Y-52427111D01*
X130552734Y-52315851D01*
X130552729Y-52315848D01*
X130379807Y-52238857D01*
X130379802Y-52238855D01*
X130303679Y-52222675D01*
X130242197Y-52189482D01*
X130208421Y-52128319D01*
X130205460Y-52101385D01*
X130205460Y-52100002D01*
X130205460Y-52100000D01*
X130185674Y-51911744D01*
X130127179Y-51731716D01*
X130032533Y-51567784D01*
X129905871Y-51427112D01*
X129905863Y-51427106D01*
X129752734Y-51315851D01*
X129752729Y-51315848D01*
X129579807Y-51238857D01*
X129579802Y-51238855D01*
X129434001Y-51207865D01*
X129394646Y-51199500D01*
X129205354Y-51199500D01*
X129172897Y-51206398D01*
X129020197Y-51238855D01*
X129020192Y-51238857D01*
X128847270Y-51315848D01*
X128847265Y-51315851D01*
X128694135Y-51427106D01*
X128694122Y-51427117D01*
X128692144Y-51429315D01*
X128690683Y-51430214D01*
X128689305Y-51431456D01*
X128689077Y-51431203D01*
X128632655Y-51465960D01*
X128562798Y-51464625D01*
X128510875Y-51431255D01*
X128510695Y-51431456D01*
X128509467Y-51430350D01*
X128507856Y-51429315D01*
X128505877Y-51427117D01*
X128505864Y-51427106D01*
X128352734Y-51315851D01*
X128352729Y-51315848D01*
X128179807Y-51238857D01*
X128179802Y-51238855D01*
X128034001Y-51207865D01*
X127994646Y-51199500D01*
X127805354Y-51199500D01*
X127772897Y-51206398D01*
X127620197Y-51238855D01*
X127620192Y-51238857D01*
X127447270Y-51315848D01*
X127447265Y-51315851D01*
X127294129Y-51427111D01*
X127167466Y-51567785D01*
X127072821Y-51731715D01*
X127072818Y-51731722D01*
X127019174Y-51896822D01*
X127014326Y-51911744D01*
X126994540Y-52100000D01*
X126994540Y-52100002D01*
X126994540Y-52101385D01*
X126994313Y-52102155D01*
X126993861Y-52106463D01*
X126993073Y-52106380D01*
X126974855Y-52168424D01*
X126922051Y-52214179D01*
X126896321Y-52222675D01*
X126820197Y-52238855D01*
X126820192Y-52238857D01*
X126647270Y-52315848D01*
X126647265Y-52315851D01*
X126494129Y-52427111D01*
X126367466Y-52567785D01*
X126272821Y-52731715D01*
X126272818Y-52731722D01*
X126214327Y-52911740D01*
X126214326Y-52911744D01*
X126205900Y-52991917D01*
X126194540Y-53100001D01*
X126202776Y-53178374D01*
X126203105Y-53183671D01*
X126203321Y-53195018D01*
X126203322Y-53195026D01*
X126206419Y-53213994D01*
X126206886Y-53217482D01*
X126214325Y-53288254D01*
X126214326Y-53288257D01*
X126219889Y-53305380D01*
X126224336Y-53323708D01*
X126268046Y-53591353D01*
X126266450Y-53639400D01*
X126222974Y-53826534D01*
X126217673Y-53851664D01*
X126217293Y-53851583D01*
X126214604Y-53863937D01*
X126205824Y-53892113D01*
X126205823Y-53892119D01*
X126205823Y-53892120D01*
X126199500Y-53961699D01*
X126199500Y-54747388D01*
X126199501Y-55425500D01*
X126179816Y-55492539D01*
X126127013Y-55538294D01*
X126075501Y-55549500D01*
X125160897Y-55549500D01*
X125093858Y-55529815D01*
X125048103Y-55477011D01*
X125038159Y-55407853D01*
X125065043Y-55346836D01*
X125116486Y-55284151D01*
X125157685Y-55233950D01*
X125255232Y-55051454D01*
X125315300Y-54853434D01*
X125330500Y-54699108D01*
X125330500Y-53995892D01*
X125315300Y-53841566D01*
X125255232Y-53643546D01*
X125157685Y-53461050D01*
X125105702Y-53397709D01*
X125026410Y-53301089D01*
X124897160Y-53195018D01*
X124866450Y-53169815D01*
X124683954Y-53072268D01*
X124485934Y-53012200D01*
X124485932Y-53012199D01*
X124485934Y-53012199D01*
X124280000Y-52991917D01*
X124074067Y-53012199D01*
X123876043Y-53072269D01*
X123765898Y-53131143D01*
X123693550Y-53169815D01*
X123693548Y-53169816D01*
X123693547Y-53169817D01*
X123533589Y-53301089D01*
X123402317Y-53461047D01*
X123304769Y-53643543D01*
X123244699Y-53841567D01*
X123229500Y-53995895D01*
X123229500Y-54699104D01*
X123244699Y-54853432D01*
X123258977Y-54900500D01*
X123304768Y-55051454D01*
X123402315Y-55233950D01*
X123402317Y-55233952D01*
X123494957Y-55346836D01*
X123522269Y-55411146D01*
X123510478Y-55480013D01*
X123463325Y-55531573D01*
X123399103Y-55549500D01*
X121434481Y-55549500D01*
X121370092Y-55531472D01*
X121078342Y-55354204D01*
X120979034Y-55293864D01*
X120548854Y-55032485D01*
X120525562Y-55014194D01*
X120484984Y-54973616D01*
X120451499Y-54912293D01*
X120456483Y-54842601D01*
X120498355Y-54786668D01*
X120533069Y-54768426D01*
X120823435Y-54670591D01*
X121148253Y-54520315D01*
X121454919Y-54335800D01*
X121739837Y-54119211D01*
X121999668Y-53873086D01*
X122231365Y-53600311D01*
X122432211Y-53304085D01*
X122599853Y-52987880D01*
X122732324Y-52655403D01*
X122828071Y-52310552D01*
X122885972Y-51957371D01*
X122905348Y-51600000D01*
X122885972Y-51242629D01*
X122885353Y-51238856D01*
X122829654Y-50899104D01*
X123229500Y-50899104D01*
X123244699Y-51053432D01*
X123244700Y-51053434D01*
X123304768Y-51251454D01*
X123402315Y-51433950D01*
X123402317Y-51433952D01*
X123533589Y-51593910D01*
X123623403Y-51667617D01*
X123693550Y-51725185D01*
X123876046Y-51822732D01*
X124074066Y-51882800D01*
X124074065Y-51882800D01*
X124092529Y-51884618D01*
X124280000Y-51903083D01*
X124485934Y-51882800D01*
X124683954Y-51822732D01*
X124866450Y-51725185D01*
X125026410Y-51593910D01*
X125157685Y-51433950D01*
X125255232Y-51251454D01*
X125315300Y-51053434D01*
X125330500Y-50899108D01*
X125330500Y-50899104D01*
X131869500Y-50899104D01*
X131884699Y-51053432D01*
X131884700Y-51053434D01*
X131944768Y-51251454D01*
X132042315Y-51433950D01*
X132042317Y-51433952D01*
X132173589Y-51593910D01*
X132263403Y-51667617D01*
X132333550Y-51725185D01*
X132516046Y-51822732D01*
X132714066Y-51882800D01*
X132714065Y-51882800D01*
X132732529Y-51884618D01*
X132920000Y-51903083D01*
X133125934Y-51882800D01*
X133323954Y-51822732D01*
X133506450Y-51725185D01*
X133666410Y-51593910D01*
X133797685Y-51433950D01*
X133895232Y-51251454D01*
X133955300Y-51053434D01*
X133970500Y-50899108D01*
X133970500Y-50195892D01*
X133955300Y-50041566D01*
X133895232Y-49843546D01*
X133797685Y-49661050D01*
X133693014Y-49533507D01*
X133666410Y-49501089D01*
X133548677Y-49404469D01*
X133506450Y-49369815D01*
X133323954Y-49272268D01*
X133125934Y-49212200D01*
X133125932Y-49212199D01*
X133125934Y-49212199D01*
X132920000Y-49191917D01*
X132714067Y-49212199D01*
X132516043Y-49272269D01*
X132413811Y-49326914D01*
X132333550Y-49369815D01*
X132333548Y-49369816D01*
X132333547Y-49369817D01*
X132173589Y-49501089D01*
X132042317Y-49661047D01*
X132042315Y-49661050D01*
X132034873Y-49674973D01*
X131944769Y-49843543D01*
X131884699Y-50041567D01*
X131869500Y-50195895D01*
X131869500Y-50899104D01*
X125330500Y-50899104D01*
X125330500Y-50195892D01*
X125315300Y-50041566D01*
X125255232Y-49843546D01*
X125157685Y-49661050D01*
X125053014Y-49533507D01*
X125026410Y-49501089D01*
X124908677Y-49404469D01*
X124866450Y-49369815D01*
X124683954Y-49272268D01*
X124485934Y-49212200D01*
X124485932Y-49212199D01*
X124485934Y-49212199D01*
X124280000Y-49191917D01*
X124074067Y-49212199D01*
X123876043Y-49272269D01*
X123773811Y-49326914D01*
X123693550Y-49369815D01*
X123693548Y-49369816D01*
X123693547Y-49369817D01*
X123533589Y-49501089D01*
X123402317Y-49661047D01*
X123402315Y-49661050D01*
X123394873Y-49674973D01*
X123304769Y-49843543D01*
X123244699Y-50041567D01*
X123229500Y-50195895D01*
X123229500Y-50899104D01*
X122829654Y-50899104D01*
X122828073Y-50889460D01*
X122828072Y-50889459D01*
X122828071Y-50889448D01*
X122766684Y-50668350D01*
X122732327Y-50544607D01*
X122732325Y-50544600D01*
X122599857Y-50212129D01*
X122599848Y-50212111D01*
X122575981Y-50167094D01*
X122483062Y-49991830D01*
X122432215Y-49895922D01*
X122432213Y-49895919D01*
X122432211Y-49895915D01*
X122231365Y-49599689D01*
X122231361Y-49599684D01*
X122231358Y-49599680D01*
X121999668Y-49326914D01*
X121941979Y-49272268D01*
X121739837Y-49080789D01*
X121739830Y-49080783D01*
X121739827Y-49080781D01*
X121672245Y-49029407D01*
X121454919Y-48864200D01*
X121148253Y-48679685D01*
X121148252Y-48679684D01*
X121148248Y-48679682D01*
X121148244Y-48679680D01*
X120823447Y-48529414D01*
X120823441Y-48529411D01*
X120823435Y-48529409D01*
X120653854Y-48472270D01*
X120484273Y-48415131D01*
X120134744Y-48338194D01*
X120130867Y-48337773D01*
X120066349Y-48310956D01*
X120026571Y-48253514D01*
X120024164Y-48183686D01*
X120059890Y-48123641D01*
X120122408Y-48092443D01*
X120144274Y-48090500D01*
X156955726Y-48090500D01*
X157022765Y-48110185D01*
X157068520Y-48162989D01*
X157078464Y-48232147D01*
X157049439Y-48295703D01*
X156990661Y-48333477D01*
X156969133Y-48337773D01*
X156965255Y-48338194D01*
X156615726Y-48415131D01*
X156359970Y-48501306D01*
X156276565Y-48529409D01*
X156276563Y-48529410D01*
X156276552Y-48529414D01*
X155951755Y-48679680D01*
X155951751Y-48679682D01*
X155801800Y-48769905D01*
X155645081Y-48864200D01*
X155621796Y-48881901D01*
X155360172Y-49080781D01*
X155360163Y-49080789D01*
X155100331Y-49326914D01*
X154868641Y-49599680D01*
X154868634Y-49599690D01*
X154667790Y-49895913D01*
X154667784Y-49895922D01*
X154500151Y-50212111D01*
X154500142Y-50212129D01*
X154367674Y-50544599D01*
X154345062Y-50626041D01*
X154308159Y-50685370D01*
X154245039Y-50715330D01*
X154175741Y-50706408D01*
X154127204Y-50668350D01*
X154118927Y-50657562D01*
X154101314Y-50639948D01*
X154101292Y-50639923D01*
X152561883Y-49100515D01*
X152561867Y-49100486D01*
X152523577Y-49062197D01*
X152523578Y-49062197D01*
X152442448Y-48981069D01*
X152442446Y-48981067D01*
X152260400Y-48841382D01*
X152260399Y-48841381D01*
X152260396Y-48841379D01*
X152061669Y-48726647D01*
X152061663Y-48726644D01*
X152061656Y-48726641D01*
X151849667Y-48638834D01*
X151849663Y-48638833D01*
X151628014Y-48579446D01*
X151628012Y-48579445D01*
X151400520Y-48549499D01*
X151400515Y-48549498D01*
X151400510Y-48549498D01*
X151400502Y-48549498D01*
X151285775Y-48549500D01*
X138785176Y-48549500D01*
X138762324Y-48547376D01*
X138151768Y-48432897D01*
X137994646Y-48399500D01*
X137966069Y-48399500D01*
X137960277Y-48399229D01*
X137958849Y-48399095D01*
X137958847Y-48399095D01*
X137886570Y-48399500D01*
X137805354Y-48399500D01*
X137790078Y-48402747D01*
X137620197Y-48438855D01*
X137620192Y-48438857D01*
X137447270Y-48515848D01*
X137447265Y-48515851D01*
X137294129Y-48627111D01*
X137167466Y-48767785D01*
X137072821Y-48931715D01*
X137072818Y-48931722D01*
X137014327Y-49111740D01*
X137014326Y-49111744D01*
X136994540Y-49300000D01*
X137014326Y-49488256D01*
X137014327Y-49488259D01*
X137072818Y-49668277D01*
X137072821Y-49668284D01*
X137167467Y-49832216D01*
X137289735Y-49968008D01*
X137294129Y-49972888D01*
X137447265Y-50084148D01*
X137447270Y-50084151D01*
X137620192Y-50161142D01*
X137620197Y-50161144D01*
X137805354Y-50200500D01*
X137805355Y-50200500D01*
X137994644Y-50200500D01*
X137994646Y-50200500D01*
X138151809Y-50167094D01*
X138762318Y-50052624D01*
X138785170Y-50050500D01*
X151206911Y-50050500D01*
X151206916Y-50050501D01*
X151281731Y-50050500D01*
X151289829Y-50051030D01*
X151334187Y-50056870D01*
X151365449Y-50065245D01*
X151395465Y-50077678D01*
X151423495Y-50093859D01*
X151458939Y-50121056D01*
X151465029Y-50126397D01*
X152973547Y-51634915D01*
X152978889Y-51641007D01*
X153006131Y-51676509D01*
X153022313Y-51704539D01*
X153034742Y-51734546D01*
X153043121Y-51765817D01*
X153048968Y-51810247D01*
X153049499Y-51818346D01*
X153049499Y-51896822D01*
X153049500Y-51896839D01*
X153049500Y-53614823D01*
X153047376Y-53637675D01*
X152930817Y-54259322D01*
X152928843Y-54267061D01*
X152914326Y-54311743D01*
X152914325Y-54311746D01*
X152906088Y-54390114D01*
X152905367Y-54395049D01*
X152903618Y-54404389D01*
X152903616Y-54404399D01*
X152900396Y-54427323D01*
X152900396Y-54427322D01*
X152899111Y-54440978D01*
X152899110Y-54440997D01*
X152899172Y-54452327D01*
X152898833Y-54459144D01*
X152895590Y-54490007D01*
X152894540Y-54500000D01*
X152914326Y-54688256D01*
X152914327Y-54688259D01*
X152972818Y-54868277D01*
X152972821Y-54868284D01*
X153067467Y-55032216D01*
X153194129Y-55172888D01*
X153347265Y-55284148D01*
X153347270Y-55284151D01*
X153520192Y-55361142D01*
X153520197Y-55361144D01*
X153705354Y-55400500D01*
X153705355Y-55400500D01*
X153894645Y-55400500D01*
X153894646Y-55400500D01*
X154079803Y-55361144D01*
X154079810Y-55361140D01*
X154085982Y-55359136D01*
X154086009Y-55359220D01*
X154100997Y-55354205D01*
X154466527Y-55269909D01*
X154536272Y-55274026D01*
X154541843Y-55276178D01*
X154545469Y-55277680D01*
X154573497Y-55293861D01*
X154608940Y-55321057D01*
X154615030Y-55326398D01*
X155268314Y-55979681D01*
X155268324Y-55979692D01*
X155270650Y-55982018D01*
X155270651Y-55982019D01*
X155290101Y-56001469D01*
X155290120Y-56001503D01*
X155407547Y-56118927D01*
X155407551Y-56118931D01*
X155503968Y-56192912D01*
X155589604Y-56258621D01*
X155788331Y-56373353D01*
X155788342Y-56373357D01*
X155788343Y-56373358D01*
X156000332Y-56461165D01*
X156000336Y-56461166D01*
X156091101Y-56485485D01*
X156221984Y-56520553D01*
X156221985Y-56520553D01*
X156221987Y-56520554D01*
X156340955Y-56536214D01*
X156449490Y-56550502D01*
X156564225Y-56550500D01*
X157103873Y-56550500D01*
X157110046Y-56550808D01*
X157113131Y-56551116D01*
X157112912Y-56553302D01*
X157170402Y-56570159D01*
X157216178Y-56622945D01*
X157226148Y-56692100D01*
X157201022Y-56750962D01*
X157080608Y-56904694D01*
X157079660Y-56906071D01*
X157065244Y-56923385D01*
X157057292Y-56931338D01*
X157057285Y-56931346D01*
X156965189Y-57080659D01*
X156965185Y-57080668D01*
X156937349Y-57164670D01*
X156910001Y-57247203D01*
X156910001Y-57247204D01*
X156910000Y-57247204D01*
X156899500Y-57349983D01*
X156899500Y-59450001D01*
X156899501Y-59450018D01*
X156910000Y-59552796D01*
X156910001Y-59552799D01*
X156965185Y-59719331D01*
X156965186Y-59719334D01*
X157057288Y-59868656D01*
X157181344Y-59992712D01*
X157330666Y-60084814D01*
X157497203Y-60139999D01*
X157599991Y-60150500D01*
X159000008Y-60150499D01*
X159102797Y-60139999D01*
X159269334Y-60084814D01*
X159418656Y-59992712D01*
X159542712Y-59868656D01*
X159634814Y-59719334D01*
X159689999Y-59552797D01*
X159700500Y-59450009D01*
X159700499Y-57349992D01*
X159689999Y-57247203D01*
X159634814Y-57080666D01*
X159542712Y-56931344D01*
X159533315Y-56921947D01*
X159518770Y-56904450D01*
X159516577Y-56901256D01*
X158794596Y-55995688D01*
X158790739Y-55991161D01*
X158777753Y-55972761D01*
X158758613Y-55939609D01*
X158618924Y-55757559D01*
X158601314Y-55739948D01*
X158601299Y-55739931D01*
X158544168Y-55682800D01*
X158461881Y-55600513D01*
X158461866Y-55600485D01*
X158423577Y-55562197D01*
X158423578Y-55562197D01*
X158342448Y-55481069D01*
X158342446Y-55481067D01*
X158160400Y-55341382D01*
X158160399Y-55341381D01*
X158160396Y-55341379D01*
X157961669Y-55226647D01*
X157961663Y-55226644D01*
X157961656Y-55226641D01*
X157749667Y-55138834D01*
X157749659Y-55138832D01*
X157736368Y-55135271D01*
X157676707Y-55098908D01*
X157646176Y-55036061D01*
X157654470Y-54966686D01*
X157698954Y-54912807D01*
X157755052Y-54892223D01*
X158034746Y-54861805D01*
X158384274Y-54784868D01*
X158723435Y-54670591D01*
X159048253Y-54520315D01*
X159354919Y-54335800D01*
X159639837Y-54119211D01*
X159899668Y-53873086D01*
X160131365Y-53600311D01*
X160332211Y-53304085D01*
X160499853Y-52987880D01*
X160632324Y-52655403D01*
X160728071Y-52310552D01*
X160785972Y-51957371D01*
X160801682Y-51667617D01*
X160824967Y-51601741D01*
X160830300Y-51597603D01*
X160806523Y-51560604D01*
X160801682Y-51532382D01*
X160800102Y-51503248D01*
X160785972Y-51242629D01*
X160785353Y-51238856D01*
X160728073Y-50889460D01*
X160728072Y-50889459D01*
X160728071Y-50889448D01*
X160666684Y-50668350D01*
X160632327Y-50544607D01*
X160632325Y-50544600D01*
X160499857Y-50212129D01*
X160499848Y-50212111D01*
X160475981Y-50167094D01*
X160383062Y-49991830D01*
X160332215Y-49895922D01*
X160332213Y-49895919D01*
X160332211Y-49895915D01*
X160131365Y-49599689D01*
X160131361Y-49599684D01*
X160131358Y-49599680D01*
X159899668Y-49326914D01*
X159841979Y-49272268D01*
X159639837Y-49080789D01*
X159639830Y-49080783D01*
X159639827Y-49080781D01*
X159572245Y-49029407D01*
X159354919Y-48864200D01*
X159048253Y-48679685D01*
X159048252Y-48679684D01*
X159048248Y-48679682D01*
X159048244Y-48679680D01*
X158723447Y-48529414D01*
X158723441Y-48529411D01*
X158723435Y-48529409D01*
X158553854Y-48472270D01*
X158384273Y-48415131D01*
X158034744Y-48338194D01*
X158030867Y-48337773D01*
X157966349Y-48310956D01*
X157926571Y-48253514D01*
X157924164Y-48183686D01*
X157959890Y-48123641D01*
X158022408Y-48092443D01*
X158044274Y-48090500D01*
X158548123Y-48090500D01*
X158551867Y-48090613D01*
X158568189Y-48091600D01*
X158648917Y-48096483D01*
X158856399Y-48110082D01*
X158863502Y-48110963D01*
X158999227Y-48135836D01*
X159165664Y-48168942D01*
X159171961Y-48170544D01*
X159302376Y-48211183D01*
X159311157Y-48213920D01*
X159465039Y-48266155D01*
X159470539Y-48268321D01*
X159606505Y-48329514D01*
X159749853Y-48400206D01*
X159754488Y-48402744D01*
X159774980Y-48415132D01*
X159882387Y-48480062D01*
X159884758Y-48481570D01*
X160015590Y-48568990D01*
X160019382Y-48571736D01*
X160137552Y-48664316D01*
X160140196Y-48666508D01*
X160258075Y-48769885D01*
X160261037Y-48772659D01*
X160367339Y-48878961D01*
X160370113Y-48881923D01*
X160473490Y-48999802D01*
X160475682Y-49002446D01*
X160568262Y-49120616D01*
X160571008Y-49124408D01*
X160658428Y-49255240D01*
X160659936Y-49257611D01*
X160737251Y-49385505D01*
X160739799Y-49390160D01*
X160810491Y-49533507D01*
X160871675Y-49669454D01*
X160873848Y-49674973D01*
X160926079Y-49828842D01*
X160969446Y-49968008D01*
X160971061Y-49974357D01*
X160991084Y-50075021D01*
X161004167Y-50140791D01*
X161029033Y-50276486D01*
X161029917Y-50283612D01*
X161043517Y-50491100D01*
X161049387Y-50588134D01*
X161049500Y-50591879D01*
X161049500Y-51525669D01*
X161029815Y-51592708D01*
X161020529Y-51600754D01*
X161046194Y-51645888D01*
X161049500Y-51674330D01*
X161049500Y-75588120D01*
X161049387Y-75591865D01*
X161043517Y-75688899D01*
X161029917Y-75896386D01*
X161029033Y-75903512D01*
X161004167Y-76039208D01*
X160971063Y-76205636D01*
X160969446Y-76211990D01*
X160926079Y-76351157D01*
X160873848Y-76505025D01*
X160871675Y-76510544D01*
X160810491Y-76646492D01*
X160739799Y-76789838D01*
X160737251Y-76794493D01*
X160659936Y-76922387D01*
X160658428Y-76924758D01*
X160571008Y-77055590D01*
X160568262Y-77059382D01*
X160475682Y-77177552D01*
X160473490Y-77180196D01*
X160370113Y-77298075D01*
X160367339Y-77301037D01*
X160261037Y-77407339D01*
X160258075Y-77410113D01*
X160140196Y-77513490D01*
X160137552Y-77515682D01*
X160019382Y-77608262D01*
X160015590Y-77611008D01*
X159884758Y-77698428D01*
X159882387Y-77699936D01*
X159754493Y-77777251D01*
X159749838Y-77779799D01*
X159606492Y-77850491D01*
X159470544Y-77911675D01*
X159465025Y-77913848D01*
X159311157Y-77966079D01*
X159171990Y-78009446D01*
X159165636Y-78011063D01*
X158999208Y-78044167D01*
X158863512Y-78069033D01*
X158856386Y-78069917D01*
X158648899Y-78083517D01*
X158551866Y-78089387D01*
X158548121Y-78089500D01*
X125640478Y-78089500D01*
X125573439Y-78069815D01*
X125527684Y-78017011D01*
X125517740Y-77947853D01*
X125546765Y-77884297D01*
X125605543Y-77846523D01*
X125613822Y-77844399D01*
X125884274Y-77784868D01*
X126223435Y-77670591D01*
X126548253Y-77520315D01*
X126854919Y-77335800D01*
X127139837Y-77119211D01*
X127399668Y-76873086D01*
X127631365Y-76600311D01*
X127832211Y-76304085D01*
X127999853Y-75987880D01*
X128132324Y-75655403D01*
X128228071Y-75310552D01*
X128285972Y-74957371D01*
X128305348Y-74600000D01*
X128285972Y-74242629D01*
X128228071Y-73889448D01*
X128132324Y-73544597D01*
X127999853Y-73212120D01*
X127832211Y-72895915D01*
X127631365Y-72599689D01*
X127631361Y-72599684D01*
X127631358Y-72599680D01*
X127399668Y-72326914D01*
X127242987Y-72178498D01*
X127139837Y-72080789D01*
X127139830Y-72080783D01*
X127139827Y-72080781D01*
X127048560Y-72011402D01*
X126854919Y-71864200D01*
X126548253Y-71679685D01*
X126548252Y-71679684D01*
X126548248Y-71679682D01*
X126548244Y-71679680D01*
X126223447Y-71529414D01*
X126223441Y-71529411D01*
X126223435Y-71529409D01*
X126053854Y-71472270D01*
X125884273Y-71415131D01*
X125534744Y-71338194D01*
X125178949Y-71299500D01*
X125178948Y-71299500D01*
X124821052Y-71299500D01*
X124821050Y-71299500D01*
X124465255Y-71338194D01*
X124115726Y-71415131D01*
X123859970Y-71501306D01*
X123776565Y-71529409D01*
X123776563Y-71529410D01*
X123776552Y-71529414D01*
X123451755Y-71679680D01*
X123451751Y-71679682D01*
X123251629Y-71800092D01*
X123145081Y-71864200D01*
X123058512Y-71930008D01*
X122860172Y-72080781D01*
X122860163Y-72080789D01*
X122600331Y-72326914D01*
X122368641Y-72599680D01*
X122368634Y-72599690D01*
X122167790Y-72895913D01*
X122167784Y-72895922D01*
X122000151Y-73212111D01*
X122000142Y-73212129D01*
X121867674Y-73544600D01*
X121867672Y-73544607D01*
X121771932Y-73889434D01*
X121771926Y-73889460D01*
X121714029Y-74242614D01*
X121714028Y-74242631D01*
X121694652Y-74599997D01*
X121694652Y-74600002D01*
X121714028Y-74957368D01*
X121714029Y-74957385D01*
X121771926Y-75310539D01*
X121771932Y-75310565D01*
X121867672Y-75655392D01*
X121867674Y-75655399D01*
X122000142Y-75987870D01*
X122000151Y-75987888D01*
X122167784Y-76304077D01*
X122167787Y-76304082D01*
X122167789Y-76304085D01*
X122284577Y-76476335D01*
X122368634Y-76600309D01*
X122368641Y-76600319D01*
X122600331Y-76873085D01*
X122600332Y-76873086D01*
X122860163Y-77119211D01*
X123145081Y-77335800D01*
X123451747Y-77520315D01*
X123451749Y-77520316D01*
X123451751Y-77520317D01*
X123451755Y-77520319D01*
X123725677Y-77647048D01*
X123776565Y-77670591D01*
X124093120Y-77777251D01*
X124115726Y-77784868D01*
X124386178Y-77844399D01*
X124447419Y-77878035D01*
X124480753Y-77939440D01*
X124475597Y-78009119D01*
X124433588Y-78064950D01*
X124368064Y-78089205D01*
X124359522Y-78089500D01*
X118551879Y-78089500D01*
X118548134Y-78089387D01*
X118451100Y-78083517D01*
X118243612Y-78069917D01*
X118236486Y-78069033D01*
X118100791Y-78044167D01*
X118035021Y-78031084D01*
X117934357Y-78011061D01*
X117928012Y-78009447D01*
X117894988Y-77999156D01*
X117788842Y-77966079D01*
X117634973Y-77913848D01*
X117629454Y-77911675D01*
X117493507Y-77850491D01*
X117350160Y-77779799D01*
X117345505Y-77777251D01*
X117217611Y-77699936D01*
X117215240Y-77698428D01*
X117084408Y-77611008D01*
X117080616Y-77608262D01*
X116962446Y-77515682D01*
X116959802Y-77513490D01*
X116841923Y-77410113D01*
X116838961Y-77407339D01*
X116732659Y-77301037D01*
X116729885Y-77298075D01*
X116626508Y-77180196D01*
X116624316Y-77177552D01*
X116531736Y-77059382D01*
X116528990Y-77055590D01*
X116441570Y-76924758D01*
X116440062Y-76922387D01*
X116362747Y-76794493D01*
X116360206Y-76789853D01*
X116289508Y-76646492D01*
X116228321Y-76510539D01*
X116226155Y-76505039D01*
X116173920Y-76351157D01*
X116168968Y-76335266D01*
X116130544Y-76211961D01*
X116128942Y-76205664D01*
X116095836Y-76039227D01*
X116070963Y-75903502D01*
X116070082Y-75896399D01*
X116056479Y-75688851D01*
X116050613Y-75591866D01*
X116050500Y-75588122D01*
X116050500Y-70947401D01*
X117220746Y-70947401D01*
X117230745Y-71157327D01*
X117280296Y-71361578D01*
X117280298Y-71361582D01*
X117367598Y-71552743D01*
X117367601Y-71552748D01*
X117367602Y-71552750D01*
X117367604Y-71552753D01*
X117430627Y-71641256D01*
X117489515Y-71723953D01*
X117489520Y-71723959D01*
X117641620Y-71868985D01*
X117736578Y-71930011D01*
X117818428Y-71982613D01*
X118013543Y-72060725D01*
X118116729Y-72080612D01*
X118219914Y-72100500D01*
X118219915Y-72100500D01*
X118927419Y-72100500D01*
X118927425Y-72100500D01*
X119084218Y-72085528D01*
X119285875Y-72026316D01*
X119472682Y-71930011D01*
X119637886Y-71800092D01*
X119775519Y-71641256D01*
X119797224Y-71603663D01*
X119880601Y-71459249D01*
X119880600Y-71459249D01*
X119880604Y-71459244D01*
X119949344Y-71260633D01*
X119966688Y-71140000D01*
X154944341Y-71140000D01*
X154964936Y-71375403D01*
X154964938Y-71375413D01*
X155026094Y-71603655D01*
X155026096Y-71603659D01*
X155026097Y-71603663D01*
X155082192Y-71723959D01*
X155125965Y-71817830D01*
X155125967Y-71817834D01*
X155204513Y-71930008D01*
X155261505Y-72011401D01*
X155428599Y-72178495D01*
X155525384Y-72246265D01*
X155622165Y-72314032D01*
X155622167Y-72314033D01*
X155622170Y-72314035D01*
X155836337Y-72413903D01*
X156064592Y-72475063D01*
X156252918Y-72491539D01*
X156299999Y-72495659D01*
X156300000Y-72495659D01*
X156300001Y-72495659D01*
X156339234Y-72492226D01*
X156535408Y-72475063D01*
X156763663Y-72413903D01*
X156977830Y-72314035D01*
X157171401Y-72178495D01*
X157338495Y-72011401D01*
X157474035Y-71817830D01*
X157573903Y-71603663D01*
X157635063Y-71375408D01*
X157655659Y-71140000D01*
X157635063Y-70904592D01*
X157573903Y-70676337D01*
X157474035Y-70462171D01*
X157463592Y-70447256D01*
X157338494Y-70268597D01*
X157171402Y-70101506D01*
X157171396Y-70101501D01*
X156985842Y-69971575D01*
X156942217Y-69916998D01*
X156935023Y-69847500D01*
X156966546Y-69785145D01*
X156985842Y-69768425D01*
X157008026Y-69752891D01*
X157171401Y-69638495D01*
X157338495Y-69471401D01*
X157474035Y-69277830D01*
X157573903Y-69063663D01*
X157635063Y-68835408D01*
X157655659Y-68600000D01*
X157635063Y-68364592D01*
X157573903Y-68136337D01*
X157474035Y-67922171D01*
X157458162Y-67899501D01*
X157338494Y-67728597D01*
X157171404Y-67561507D01*
X157103375Y-67513872D01*
X157059751Y-67459294D01*
X157050500Y-67412298D01*
X157050500Y-66993088D01*
X157050501Y-66993084D01*
X157050500Y-66918267D01*
X157051031Y-66910167D01*
X157054441Y-66884270D01*
X157056870Y-66865810D01*
X157065244Y-66834554D01*
X157077681Y-66804526D01*
X157093856Y-66776508D01*
X157121060Y-66741054D01*
X157126395Y-66734970D01*
X158471808Y-65389558D01*
X158471813Y-65389554D01*
X158482017Y-65379349D01*
X158482019Y-65379349D01*
X158501470Y-65359897D01*
X158501504Y-65359878D01*
X158537803Y-65323578D01*
X158618931Y-65242448D01*
X158758621Y-65060396D01*
X158873353Y-64861669D01*
X158922056Y-64744083D01*
X158935487Y-64719784D01*
X159525590Y-63888249D01*
X159539026Y-63872340D01*
X159542712Y-63868656D01*
X159634814Y-63719334D01*
X159689999Y-63552797D01*
X159700500Y-63450009D01*
X159700499Y-61349992D01*
X159689999Y-61247203D01*
X159634814Y-61080666D01*
X159542712Y-60931344D01*
X159418656Y-60807288D01*
X159269334Y-60715186D01*
X159102797Y-60660001D01*
X159102795Y-60660000D01*
X159000010Y-60649500D01*
X157599998Y-60649500D01*
X157599981Y-60649501D01*
X157497203Y-60660000D01*
X157497200Y-60660001D01*
X157330668Y-60715185D01*
X157330663Y-60715187D01*
X157181342Y-60807289D01*
X157057289Y-60931342D01*
X156965187Y-61080663D01*
X156965185Y-61080668D01*
X156964114Y-61083900D01*
X156910001Y-61247203D01*
X156910001Y-61247204D01*
X156910000Y-61247204D01*
X156899500Y-61349983D01*
X156899500Y-63450001D01*
X156899501Y-63450018D01*
X156910000Y-63552796D01*
X156910001Y-63552799D01*
X156965185Y-63719331D01*
X156965187Y-63719336D01*
X157000069Y-63775888D01*
X157057284Y-63868650D01*
X157057289Y-63868657D01*
X157065850Y-63877218D01*
X157080746Y-63895229D01*
X157081747Y-63896703D01*
X157081751Y-63896708D01*
X157268477Y-64133399D01*
X157348714Y-64235105D01*
X157374782Y-64299930D01*
X157361665Y-64368557D01*
X157339043Y-64399588D01*
X156098528Y-65640103D01*
X156098497Y-65640119D01*
X155981072Y-65757547D01*
X155981068Y-65757551D01*
X155841382Y-65939599D01*
X155726646Y-66138333D01*
X155726641Y-66138343D01*
X155638834Y-66350332D01*
X155638833Y-66350336D01*
X155579446Y-66571985D01*
X155579445Y-66571987D01*
X155549499Y-66799479D01*
X155549498Y-66799497D01*
X155549500Y-66891921D01*
X155549500Y-67412298D01*
X155529815Y-67479337D01*
X155496625Y-67513872D01*
X155428595Y-67561507D01*
X155261505Y-67728597D01*
X155125965Y-67922169D01*
X155125964Y-67922171D01*
X155026098Y-68136335D01*
X155026094Y-68136344D01*
X154964938Y-68364586D01*
X154964936Y-68364596D01*
X154944341Y-68599999D01*
X154944341Y-68600000D01*
X154964936Y-68835403D01*
X154964938Y-68835413D01*
X155026094Y-69063655D01*
X155026096Y-69063659D01*
X155026097Y-69063663D01*
X155105138Y-69233166D01*
X155125965Y-69277830D01*
X155125967Y-69277834D01*
X155261501Y-69471395D01*
X155261506Y-69471402D01*
X155428597Y-69638493D01*
X155428603Y-69638498D01*
X155614158Y-69768425D01*
X155657783Y-69823002D01*
X155664977Y-69892500D01*
X155633454Y-69954855D01*
X155614158Y-69971575D01*
X155428597Y-70101505D01*
X155261505Y-70268597D01*
X155125965Y-70462169D01*
X155125964Y-70462171D01*
X155026098Y-70676335D01*
X155026094Y-70676344D01*
X154964938Y-70904586D01*
X154964936Y-70904596D01*
X154944341Y-71139999D01*
X154944341Y-71140000D01*
X119966688Y-71140000D01*
X119979254Y-71052602D01*
X119969254Y-70842670D01*
X119919704Y-70638424D01*
X119919701Y-70638417D01*
X119832401Y-70447256D01*
X119832398Y-70447251D01*
X119832397Y-70447250D01*
X119832396Y-70447247D01*
X119710486Y-70276048D01*
X119630627Y-70199903D01*
X119607917Y-70178249D01*
X119572982Y-70117740D01*
X119576307Y-70047950D01*
X119616835Y-69991036D01*
X119628384Y-69982971D01*
X119693656Y-69942712D01*
X119817712Y-69818656D01*
X119909814Y-69669334D01*
X119964999Y-69502797D01*
X119975500Y-69400009D01*
X119975499Y-68599992D01*
X119964999Y-68497203D01*
X119932789Y-68400001D01*
X145294390Y-68400001D01*
X145314804Y-68685433D01*
X145375628Y-68965037D01*
X145375630Y-68965043D01*
X145375631Y-68965046D01*
X145412414Y-69063664D01*
X145475635Y-69233166D01*
X145612770Y-69484309D01*
X145612775Y-69484317D01*
X145784254Y-69713387D01*
X145784270Y-69713405D01*
X145986594Y-69915729D01*
X145986612Y-69915745D01*
X146215682Y-70087224D01*
X146215690Y-70087229D01*
X146466833Y-70224364D01*
X146466832Y-70224364D01*
X146466836Y-70224365D01*
X146466839Y-70224367D01*
X146734954Y-70324369D01*
X146734960Y-70324370D01*
X146734962Y-70324371D01*
X147014566Y-70385195D01*
X147014568Y-70385195D01*
X147014572Y-70385196D01*
X147268220Y-70403337D01*
X147299999Y-70405610D01*
X147300000Y-70405610D01*
X147300001Y-70405610D01*
X147328595Y-70403564D01*
X147585428Y-70385196D01*
X147707027Y-70358744D01*
X147865037Y-70324371D01*
X147865037Y-70324370D01*
X147865046Y-70324369D01*
X148133161Y-70224367D01*
X148384315Y-70087226D01*
X148613395Y-69915739D01*
X148815739Y-69713395D01*
X148987226Y-69484315D01*
X149124367Y-69233161D01*
X149224369Y-68965046D01*
X149285196Y-68685428D01*
X149305610Y-68400000D01*
X149285196Y-68114572D01*
X149252699Y-67965187D01*
X149224371Y-67834962D01*
X149224370Y-67834960D01*
X149224369Y-67834954D01*
X149124367Y-67566839D01*
X149121455Y-67561507D01*
X148987229Y-67315690D01*
X148987224Y-67315682D01*
X148815745Y-67086612D01*
X148815729Y-67086594D01*
X148613405Y-66884270D01*
X148613387Y-66884254D01*
X148384317Y-66712775D01*
X148384309Y-66712770D01*
X148133166Y-66575635D01*
X148133167Y-66575635D01*
X148025915Y-66535632D01*
X147865046Y-66475631D01*
X147865043Y-66475630D01*
X147865037Y-66475628D01*
X147585433Y-66414804D01*
X147300001Y-66394390D01*
X147299999Y-66394390D01*
X147014566Y-66414804D01*
X146734962Y-66475628D01*
X146466833Y-66575635D01*
X146215690Y-66712770D01*
X146215682Y-66712775D01*
X145986612Y-66884254D01*
X145986594Y-66884270D01*
X145784270Y-67086594D01*
X145784254Y-67086612D01*
X145612775Y-67315682D01*
X145612770Y-67315690D01*
X145475635Y-67566833D01*
X145375628Y-67834962D01*
X145314804Y-68114566D01*
X145294390Y-68399998D01*
X145294390Y-68400001D01*
X119932789Y-68400001D01*
X119909814Y-68330666D01*
X119817712Y-68181344D01*
X119693656Y-68057288D01*
X119544334Y-67965186D01*
X119377797Y-67910001D01*
X119377795Y-67910000D01*
X119275010Y-67899500D01*
X117924998Y-67899500D01*
X117924981Y-67899501D01*
X117822203Y-67910000D01*
X117822200Y-67910001D01*
X117655668Y-67965185D01*
X117655663Y-67965187D01*
X117506342Y-68057289D01*
X117382289Y-68181342D01*
X117290187Y-68330663D01*
X117290185Y-68330668D01*
X117267212Y-68399998D01*
X117235001Y-68497203D01*
X117235001Y-68497204D01*
X117235000Y-68497204D01*
X117224500Y-68599983D01*
X117224500Y-69400001D01*
X117224501Y-69400019D01*
X117235000Y-69502796D01*
X117235001Y-69502799D01*
X117279966Y-69638493D01*
X117290186Y-69669334D01*
X117361618Y-69785145D01*
X117382289Y-69818657D01*
X117506344Y-69942712D01*
X117569739Y-69981814D01*
X117616464Y-70033762D01*
X117627687Y-70102724D01*
X117599844Y-70166806D01*
X117581296Y-70184822D01*
X117562118Y-70199903D01*
X117562112Y-70199909D01*
X117424478Y-70358746D01*
X117319398Y-70540750D01*
X117250656Y-70739365D01*
X117250656Y-70739367D01*
X117226902Y-70904586D01*
X117220746Y-70947401D01*
X116050500Y-70947401D01*
X116050500Y-64133398D01*
X125165989Y-64133398D01*
X125179669Y-64276670D01*
X125233159Y-64410280D01*
X125322122Y-64523408D01*
X125322123Y-64523409D01*
X125322124Y-64523410D01*
X125322126Y-64523412D01*
X125439362Y-64606895D01*
X125495282Y-64628514D01*
X128485542Y-65429750D01*
X128544781Y-65438989D01*
X128688051Y-65425309D01*
X128821663Y-65371818D01*
X128934794Y-65282852D01*
X129018277Y-65165616D01*
X129039896Y-65109696D01*
X129841132Y-62119436D01*
X129850371Y-62060197D01*
X129836691Y-61916927D01*
X129783200Y-61783315D01*
X129694237Y-61670187D01*
X129694236Y-61670186D01*
X129694235Y-61670185D01*
X129694234Y-61670184D01*
X129576998Y-61586701D01*
X129576995Y-61586699D01*
X129576994Y-61586699D01*
X129521081Y-61565083D01*
X129521079Y-61565082D01*
X129521078Y-61565082D01*
X126530818Y-60763846D01*
X126471579Y-60754607D01*
X126471578Y-60754607D01*
X126328307Y-60768287D01*
X126194697Y-60821777D01*
X126081569Y-60910740D01*
X126081568Y-60910741D01*
X125998081Y-61027983D01*
X125976465Y-61083896D01*
X125175228Y-64074159D01*
X125175227Y-64074165D01*
X125165989Y-64133398D01*
X116050500Y-64133398D01*
X116050500Y-60700000D01*
X152294540Y-60700000D01*
X152314326Y-60888256D01*
X152314327Y-60888259D01*
X152372818Y-61068277D01*
X152372821Y-61068284D01*
X152467467Y-61232216D01*
X152573513Y-61349992D01*
X152594129Y-61372888D01*
X152747265Y-61484148D01*
X152747270Y-61484151D01*
X152920192Y-61561142D01*
X152920197Y-61561144D01*
X153105354Y-61600500D01*
X153105355Y-61600500D01*
X153294644Y-61600500D01*
X153294646Y-61600500D01*
X153479803Y-61561144D01*
X153652730Y-61484151D01*
X153805871Y-61372888D01*
X153932533Y-61232216D01*
X154027179Y-61068284D01*
X154027182Y-61068272D01*
X154028391Y-61065557D01*
X154286023Y-60543220D01*
X154309543Y-60510401D01*
X155210401Y-59609543D01*
X155243220Y-59586023D01*
X155766876Y-59327741D01*
X155799458Y-59310159D01*
X155799467Y-59310151D01*
X155801426Y-59308855D01*
X155819433Y-59298975D01*
X155852730Y-59284151D01*
X156005871Y-59172888D01*
X156132533Y-59032216D01*
X156227179Y-58868284D01*
X156285674Y-58688256D01*
X156305460Y-58500000D01*
X156285674Y-58311744D01*
X156227179Y-58131716D01*
X156132533Y-57967784D01*
X156005871Y-57827112D01*
X155991536Y-57816697D01*
X155852734Y-57715851D01*
X155852729Y-57715848D01*
X155679807Y-57638857D01*
X155679802Y-57638855D01*
X155534001Y-57607865D01*
X155494646Y-57599500D01*
X155305354Y-57599500D01*
X155272897Y-57606398D01*
X155120197Y-57638855D01*
X155120192Y-57638857D01*
X154947270Y-57715848D01*
X154947265Y-57715851D01*
X154794129Y-57827111D01*
X154667465Y-57967785D01*
X154572816Y-58131722D01*
X154571596Y-58134463D01*
X154313975Y-58656775D01*
X154290448Y-58689604D01*
X153389606Y-59590446D01*
X153356777Y-59613973D01*
X152833121Y-59872258D01*
X152800504Y-59889860D01*
X152798535Y-59891164D01*
X152780550Y-59901030D01*
X152747269Y-59915848D01*
X152747267Y-59915849D01*
X152594129Y-60027111D01*
X152467466Y-60167785D01*
X152372821Y-60331715D01*
X152372818Y-60331722D01*
X152314763Y-60510398D01*
X152314326Y-60511744D01*
X152294540Y-60700000D01*
X116050500Y-60700000D01*
X116050500Y-51674330D01*
X116070185Y-51607291D01*
X116079470Y-51599244D01*
X116053806Y-51554111D01*
X116050500Y-51525669D01*
X116050500Y-50591876D01*
X116050613Y-50588132D01*
X116056482Y-50491100D01*
X116070082Y-50283596D01*
X116070962Y-50276501D01*
X116095836Y-50140771D01*
X116128944Y-49974326D01*
X116130547Y-49968029D01*
X116173922Y-49828834D01*
X116226160Y-49674946D01*
X116228311Y-49669481D01*
X116289520Y-49533481D01*
X116360211Y-49390136D01*
X116362733Y-49385530D01*
X116440083Y-49257577D01*
X116441550Y-49255270D01*
X116528995Y-49124400D01*
X116531718Y-49120639D01*
X116624343Y-49002412D01*
X116626487Y-48999827D01*
X116729905Y-48881901D01*
X116732629Y-48878992D01*
X116838992Y-48772629D01*
X116841901Y-48769905D01*
X116959827Y-48666487D01*
X116962412Y-48664343D01*
X117080639Y-48571718D01*
X117084400Y-48568995D01*
X117215270Y-48481550D01*
X117217577Y-48480083D01*
X117345530Y-48402733D01*
X117350136Y-48400211D01*
X117493481Y-48329520D01*
X117629481Y-48268311D01*
X117634946Y-48266160D01*
X117788812Y-48213929D01*
X117928029Y-48170547D01*
X117934326Y-48168944D01*
X118100771Y-48135836D01*
X118236501Y-48110962D01*
X118243596Y-48110082D01*
X118451027Y-48096486D01*
X118548132Y-48090613D01*
X118551876Y-48090500D01*
X119055726Y-48090500D01*
X119122765Y-48110185D01*
G37*
%TD.AperFunction*%
%TD*%
%TA.AperFunction,Conductor*%
%TO.N,VCC*%
G36*
X158307102Y-62409865D02*
G01*
X158309954Y-62412719D01*
X159122034Y-63570018D01*
X159123981Y-63578758D01*
X159121999Y-63583509D01*
X158496398Y-64465066D01*
X158488815Y-64469830D01*
X158482379Y-64469104D01*
X158031877Y-64282509D01*
X158027168Y-64278947D01*
X157478619Y-63583617D01*
X157476186Y-63574999D01*
X157478229Y-63569648D01*
X158290804Y-62412712D01*
X158298362Y-62407914D01*
X158307102Y-62409865D01*
G37*
%TD.AperFunction*%
%TD*%
%TA.AperFunction,Conductor*%
%TO.N,VBUS*%
G36*
X127102171Y-53099905D02*
G01*
X127460551Y-53249320D01*
X127466869Y-53255667D01*
X127467483Y-53262601D01*
X127332001Y-53886804D01*
X127326897Y-53894162D01*
X127320567Y-53896022D01*
X126839944Y-53896022D01*
X126831671Y-53892595D01*
X126828397Y-53886208D01*
X126702213Y-53113551D01*
X126704262Y-53104833D01*
X126711874Y-53100118D01*
X126713722Y-53099965D01*
X127097648Y-53099005D01*
X127102171Y-53099905D01*
G37*
%TD.AperFunction*%
%TD*%
%TA.AperFunction,Conductor*%
%TO.N,VBUS*%
G36*
X127328980Y-53450927D02*
G01*
X127332103Y-53456552D01*
X127444640Y-53940932D01*
X127443905Y-53948399D01*
X127090661Y-54729913D01*
X127084131Y-54736040D01*
X127075181Y-54735755D01*
X127069339Y-54729913D01*
X126716094Y-53948399D01*
X126715359Y-53940932D01*
X126827897Y-53456552D01*
X126833107Y-53449269D01*
X126839293Y-53447500D01*
X127320707Y-53447500D01*
X127328980Y-53450927D01*
G37*
%TD.AperFunction*%
%TD*%
%TA.AperFunction,Conductor*%
%TO.N,VBUS*%
G36*
X154379463Y-54215725D02*
G01*
X154571429Y-54254118D01*
X154578869Y-54259101D01*
X154580609Y-54267873D01*
X154486825Y-54739382D01*
X154481850Y-54746828D01*
X154477979Y-54748501D01*
X153962701Y-54867331D01*
X153953870Y-54865851D01*
X153949272Y-54860430D01*
X153902637Y-54748501D01*
X153800894Y-54504305D01*
X153800876Y-54495355D01*
X153949382Y-54139296D01*
X153955729Y-54132981D01*
X153962473Y-54132328D01*
X154379463Y-54215725D01*
G37*
%TD.AperFunction*%
%TD*%
%TA.AperFunction,Conductor*%
%TO.N,VBUS*%
G36*
X154048563Y-53703427D02*
G01*
X154051790Y-53709544D01*
X154197408Y-54486179D01*
X154195564Y-54494942D01*
X154188064Y-54499835D01*
X154185937Y-54500035D01*
X153800000Y-54501000D01*
X153414062Y-54500035D01*
X153405797Y-54496587D01*
X153402391Y-54488306D01*
X153402591Y-54486179D01*
X153548210Y-53709544D01*
X153553103Y-53702044D01*
X153559710Y-53700000D01*
X154040290Y-53700000D01*
X154048563Y-53703427D01*
G37*
%TD.AperFunction*%
%TD*%
%TA.AperFunction,Conductor*%
%TO.N,VBUS*%
G36*
X137913817Y-48902590D02*
G01*
X138690457Y-49048210D01*
X138697956Y-49053103D01*
X138700000Y-49059710D01*
X138700000Y-49540289D01*
X138696573Y-49548562D01*
X138690456Y-49551789D01*
X137913820Y-49697408D01*
X137905057Y-49695564D01*
X137900164Y-49688064D01*
X137899964Y-49685946D01*
X137899000Y-49300000D01*
X137899964Y-48914059D01*
X137903412Y-48905797D01*
X137911693Y-48902391D01*
X137913817Y-48902590D01*
G37*
%TD.AperFunction*%
%TD*%
%TA.AperFunction,Conductor*%
%TO.N,VBUS*%
G36*
X120212500Y-55419612D02*
G01*
X121244375Y-56046582D01*
X121249666Y-56053807D01*
X121250000Y-56056581D01*
X121250000Y-56544683D01*
X121246573Y-56552956D01*
X121245994Y-56553497D01*
X120257175Y-57416692D01*
X120248689Y-57419551D01*
X120242411Y-57417200D01*
X119109548Y-56558000D01*
X119105027Y-56550270D01*
X119107296Y-56541608D01*
X119108228Y-56540523D01*
X120198043Y-55421447D01*
X120206270Y-55417912D01*
X120212500Y-55419612D01*
G37*
%TD.AperFunction*%
%TD*%
%TA.AperFunction,Conductor*%
%TO.N,VBUS*%
G36*
X130485939Y-53099964D02*
G01*
X130494202Y-53103412D01*
X130497608Y-53111693D01*
X130497408Y-53113820D01*
X130351790Y-53890456D01*
X130346897Y-53897956D01*
X130340290Y-53900000D01*
X129859710Y-53900000D01*
X129851437Y-53896573D01*
X129848210Y-53890456D01*
X129702591Y-53113820D01*
X129704435Y-53105057D01*
X129711935Y-53100164D01*
X129714052Y-53099964D01*
X130100000Y-53099000D01*
X130485939Y-53099964D01*
G37*
%TD.AperFunction*%
%TD*%
%TA.AperFunction,Conductor*%
%TO.N,VBUS*%
G36*
X130349335Y-53450927D02*
G01*
X130352350Y-53456123D01*
X130484430Y-53940729D01*
X130483803Y-53948625D01*
X130129961Y-54731461D01*
X130123431Y-54737588D01*
X130114481Y-54737303D01*
X130108905Y-54732011D01*
X129741859Y-54021102D01*
X129740768Y-54013518D01*
X129753292Y-53948625D01*
X129848170Y-53456983D01*
X129853102Y-53449509D01*
X129859658Y-53447500D01*
X130341062Y-53447500D01*
X130349335Y-53450927D01*
G37*
%TD.AperFunction*%
%TD*%
%TA.AperFunction,Conductor*%
%TO.N,VBUS*%
G36*
X158399341Y-56310813D02*
G01*
X159121318Y-57216376D01*
X159123796Y-57224981D01*
X159121748Y-57230390D01*
X158310126Y-58387188D01*
X158302569Y-58391992D01*
X158293828Y-58390046D01*
X158290974Y-58387194D01*
X157478214Y-57230327D01*
X157476263Y-57221587D01*
X157478575Y-57216389D01*
X157975750Y-56581652D01*
X157978455Y-56579145D01*
X158383695Y-56308378D01*
X158392476Y-56306632D01*
X158399341Y-56310813D01*
G37*
%TD.AperFunction*%
%TD*%
%TA.AperFunction,Conductor*%
%TO.N,VBUS*%
G36*
X127084194Y-54772419D02*
G01*
X127090316Y-54778954D01*
X127090395Y-54779171D01*
X127390261Y-55626029D01*
X127390042Y-55634409D01*
X127164947Y-56178118D01*
X127158616Y-56184452D01*
X127149662Y-56184453D01*
X127145962Y-56182013D01*
X126802772Y-55846852D01*
X126799750Y-55841874D01*
X126715737Y-55564417D01*
X126716277Y-55556204D01*
X127068710Y-54778246D01*
X127075244Y-54772126D01*
X127084194Y-54772419D01*
G37*
%TD.AperFunction*%
%TD*%
%TA.AperFunction,Conductor*%
%TO.N,Net-(Q1-G)*%
G36*
X155040557Y-58351087D02*
G01*
X155396195Y-58497436D01*
X155402542Y-58503754D01*
X155402563Y-58503804D01*
X155548912Y-58859442D01*
X155548891Y-58868396D01*
X155543268Y-58874387D01*
X154947900Y-59168041D01*
X154938964Y-59168627D01*
X154934451Y-59165821D01*
X154734178Y-58965548D01*
X154730751Y-58957275D01*
X154731958Y-58952099D01*
X155025612Y-58356731D01*
X155032345Y-58350828D01*
X155040557Y-58351087D01*
G37*
%TD.AperFunction*%
%TD*%
%TA.AperFunction,Conductor*%
%TO.N,Net-(Q1-G)*%
G36*
X153665548Y-60034178D02*
G01*
X153865821Y-60234451D01*
X153869248Y-60242724D01*
X153868041Y-60247900D01*
X153574387Y-60843268D01*
X153567654Y-60849171D01*
X153559442Y-60848912D01*
X153203804Y-60702563D01*
X153197457Y-60696245D01*
X153197436Y-60696195D01*
X153051087Y-60340557D01*
X153051108Y-60331603D01*
X153056730Y-60325612D01*
X153652099Y-60031957D01*
X153661035Y-60031372D01*
X153665548Y-60034178D01*
G37*
%TD.AperFunction*%
%TD*%
%TA.AperFunction,Conductor*%
%TO.N,Net-(J4-CC1)*%
G36*
X128287513Y-52099968D02*
G01*
X128295777Y-52103416D01*
X128299183Y-52111697D01*
X128299156Y-52112459D01*
X128250739Y-52827288D01*
X128246761Y-52835310D01*
X128239066Y-52838197D01*
X127955940Y-52838197D01*
X127947667Y-52834770D01*
X127946494Y-52833401D01*
X127623060Y-52390919D01*
X127620945Y-52382218D01*
X127624216Y-52375758D01*
X127896559Y-52102452D01*
X127904824Y-52099012D01*
X128287513Y-52099968D01*
G37*
%TD.AperFunction*%
%TD*%
%TA.AperFunction,Conductor*%
%TO.N,Net-(J4-CC1)*%
G36*
X128250407Y-53480927D02*
G01*
X128252969Y-53484784D01*
X128434870Y-53931093D01*
X128434854Y-53939962D01*
X128110819Y-54727214D01*
X128104501Y-54733560D01*
X128095547Y-54733580D01*
X128089201Y-54727262D01*
X128089181Y-54727214D01*
X127765145Y-53939962D01*
X127765129Y-53931093D01*
X127947031Y-53484784D01*
X127953327Y-53478416D01*
X127957866Y-53477500D01*
X128242134Y-53477500D01*
X128250407Y-53480927D01*
G37*
%TD.AperFunction*%
%TD*%
%TA.AperFunction,Conductor*%
%TO.N,Net-(J4-CC2)*%
G36*
X129303405Y-52102418D02*
G01*
X129303435Y-52102447D01*
X129313412Y-52112459D01*
X129575781Y-52375756D01*
X129579193Y-52384036D01*
X129576939Y-52390919D01*
X129253506Y-52833401D01*
X129245857Y-52838058D01*
X129244060Y-52838197D01*
X128960934Y-52838197D01*
X128952661Y-52834770D01*
X128949261Y-52827288D01*
X128900843Y-52112456D01*
X128903703Y-52103973D01*
X128911725Y-52099995D01*
X128912463Y-52099968D01*
X129295124Y-52099012D01*
X129303405Y-52102418D01*
G37*
%TD.AperFunction*%
%TD*%
%TA.AperFunction,Conductor*%
%TO.N,Net-(J4-CC2)*%
G36*
X129250407Y-53480927D02*
G01*
X129252969Y-53484784D01*
X129434870Y-53931093D01*
X129434854Y-53939962D01*
X129110819Y-54727214D01*
X129104501Y-54733560D01*
X129095547Y-54733580D01*
X129089201Y-54727262D01*
X129089181Y-54727214D01*
X128765145Y-53939962D01*
X128765129Y-53931093D01*
X128947031Y-53484784D01*
X128953327Y-53478416D01*
X128957866Y-53477500D01*
X129242134Y-53477500D01*
X129250407Y-53480927D01*
G37*
%TD.AperFunction*%
%TD*%
M02*
