%TF.GenerationSoftware,KiCad,Pcbnew,7.0.8*%
%TF.CreationDate,2025-01-10T13:03:09+01:00*%
%TF.ProjectId,LIR2032-charger,4c495232-3033-4322-9d63-686172676572,rev?*%
%TF.SameCoordinates,Original*%
%TF.FileFunction,Legend,Top*%
%TF.FilePolarity,Positive*%
%FSLAX46Y46*%
G04 Gerber Fmt 4.6, Leading zero omitted, Abs format (unit mm)*
G04 Created by KiCad (PCBNEW 7.0.8) date 2025-01-10 13:03:09*
%MOMM*%
%LPD*%
G01*
G04 APERTURE LIST*
%ADD10C,0.150000*%
%ADD11C,0.120000*%
G04 APERTURE END LIST*
D10*
X128817731Y-76794295D02*
X128817731Y-77365723D01*
X128817731Y-77365723D02*
X128779636Y-77480009D01*
X128779636Y-77480009D02*
X128703445Y-77556200D01*
X128703445Y-77556200D02*
X128589160Y-77594295D01*
X128589160Y-77594295D02*
X128512969Y-77594295D01*
X129579636Y-77594295D02*
X129198684Y-77594295D01*
X129198684Y-77594295D02*
X129198684Y-76794295D01*
X130303446Y-77518104D02*
X130265350Y-77556200D01*
X130265350Y-77556200D02*
X130151065Y-77594295D01*
X130151065Y-77594295D02*
X130074874Y-77594295D01*
X130074874Y-77594295D02*
X129960588Y-77556200D01*
X129960588Y-77556200D02*
X129884398Y-77480009D01*
X129884398Y-77480009D02*
X129846303Y-77403819D01*
X129846303Y-77403819D02*
X129808207Y-77251438D01*
X129808207Y-77251438D02*
X129808207Y-77137152D01*
X129808207Y-77137152D02*
X129846303Y-76984771D01*
X129846303Y-76984771D02*
X129884398Y-76908580D01*
X129884398Y-76908580D02*
X129960588Y-76832390D01*
X129960588Y-76832390D02*
X130074874Y-76794295D01*
X130074874Y-76794295D02*
X130151065Y-76794295D01*
X130151065Y-76794295D02*
X130265350Y-76832390D01*
X130265350Y-76832390D02*
X130303446Y-76870485D01*
X130874874Y-76794295D02*
X130874874Y-77365723D01*
X130874874Y-77365723D02*
X130836779Y-77480009D01*
X130836779Y-77480009D02*
X130760588Y-77556200D01*
X130760588Y-77556200D02*
X130646303Y-77594295D01*
X130646303Y-77594295D02*
X130570112Y-77594295D01*
X131636779Y-77594295D02*
X131255827Y-77594295D01*
X131255827Y-77594295D02*
X131255827Y-76794295D01*
X132360589Y-77518104D02*
X132322493Y-77556200D01*
X132322493Y-77556200D02*
X132208208Y-77594295D01*
X132208208Y-77594295D02*
X132132017Y-77594295D01*
X132132017Y-77594295D02*
X132017731Y-77556200D01*
X132017731Y-77556200D02*
X131941541Y-77480009D01*
X131941541Y-77480009D02*
X131903446Y-77403819D01*
X131903446Y-77403819D02*
X131865350Y-77251438D01*
X131865350Y-77251438D02*
X131865350Y-77137152D01*
X131865350Y-77137152D02*
X131903446Y-76984771D01*
X131903446Y-76984771D02*
X131941541Y-76908580D01*
X131941541Y-76908580D02*
X132017731Y-76832390D01*
X132017731Y-76832390D02*
X132132017Y-76794295D01*
X132132017Y-76794295D02*
X132208208Y-76794295D01*
X132208208Y-76794295D02*
X132322493Y-76832390D01*
X132322493Y-76832390D02*
X132360589Y-76870485D01*
X132932017Y-76794295D02*
X132932017Y-77365723D01*
X132932017Y-77365723D02*
X132893922Y-77480009D01*
X132893922Y-77480009D02*
X132817731Y-77556200D01*
X132817731Y-77556200D02*
X132703446Y-77594295D01*
X132703446Y-77594295D02*
X132627255Y-77594295D01*
X133693922Y-77594295D02*
X133312970Y-77594295D01*
X133312970Y-77594295D02*
X133312970Y-76794295D01*
X134417732Y-77518104D02*
X134379636Y-77556200D01*
X134379636Y-77556200D02*
X134265351Y-77594295D01*
X134265351Y-77594295D02*
X134189160Y-77594295D01*
X134189160Y-77594295D02*
X134074874Y-77556200D01*
X134074874Y-77556200D02*
X133998684Y-77480009D01*
X133998684Y-77480009D02*
X133960589Y-77403819D01*
X133960589Y-77403819D02*
X133922493Y-77251438D01*
X133922493Y-77251438D02*
X133922493Y-77137152D01*
X133922493Y-77137152D02*
X133960589Y-76984771D01*
X133960589Y-76984771D02*
X133998684Y-76908580D01*
X133998684Y-76908580D02*
X134074874Y-76832390D01*
X134074874Y-76832390D02*
X134189160Y-76794295D01*
X134189160Y-76794295D02*
X134265351Y-76794295D01*
X134265351Y-76794295D02*
X134379636Y-76832390D01*
X134379636Y-76832390D02*
X134417732Y-76870485D01*
X134989160Y-76794295D02*
X134989160Y-77365723D01*
X134989160Y-77365723D02*
X134951065Y-77480009D01*
X134951065Y-77480009D02*
X134874874Y-77556200D01*
X134874874Y-77556200D02*
X134760589Y-77594295D01*
X134760589Y-77594295D02*
X134684398Y-77594295D01*
X135751065Y-77594295D02*
X135370113Y-77594295D01*
X135370113Y-77594295D02*
X135370113Y-76794295D01*
X136474875Y-77518104D02*
X136436779Y-77556200D01*
X136436779Y-77556200D02*
X136322494Y-77594295D01*
X136322494Y-77594295D02*
X136246303Y-77594295D01*
X136246303Y-77594295D02*
X136132017Y-77556200D01*
X136132017Y-77556200D02*
X136055827Y-77480009D01*
X136055827Y-77480009D02*
X136017732Y-77403819D01*
X136017732Y-77403819D02*
X135979636Y-77251438D01*
X135979636Y-77251438D02*
X135979636Y-77137152D01*
X135979636Y-77137152D02*
X136017732Y-76984771D01*
X136017732Y-76984771D02*
X136055827Y-76908580D01*
X136055827Y-76908580D02*
X136132017Y-76832390D01*
X136132017Y-76832390D02*
X136246303Y-76794295D01*
X136246303Y-76794295D02*
X136322494Y-76794295D01*
X136322494Y-76794295D02*
X136436779Y-76832390D01*
X136436779Y-76832390D02*
X136474875Y-76870485D01*
X122655826Y-66347342D02*
X122598684Y-66318771D01*
X122598684Y-66318771D02*
X122512969Y-66318771D01*
X122512969Y-66318771D02*
X122427255Y-66347342D01*
X122427255Y-66347342D02*
X122370112Y-66404485D01*
X122370112Y-66404485D02*
X122341541Y-66461628D01*
X122341541Y-66461628D02*
X122312969Y-66575914D01*
X122312969Y-66575914D02*
X122312969Y-66661628D01*
X122312969Y-66661628D02*
X122341541Y-66775914D01*
X122341541Y-66775914D02*
X122370112Y-66833057D01*
X122370112Y-66833057D02*
X122427255Y-66890200D01*
X122427255Y-66890200D02*
X122512969Y-66918771D01*
X122512969Y-66918771D02*
X122570112Y-66918771D01*
X122570112Y-66918771D02*
X122655826Y-66890200D01*
X122655826Y-66890200D02*
X122684398Y-66861628D01*
X122684398Y-66861628D02*
X122684398Y-66661628D01*
X122684398Y-66661628D02*
X122570112Y-66661628D01*
X122941541Y-66918771D02*
X122941541Y-66318771D01*
X122941541Y-66318771D02*
X123284398Y-66918771D01*
X123284398Y-66918771D02*
X123284398Y-66318771D01*
X123570112Y-66918771D02*
X123570112Y-66318771D01*
X123570112Y-66318771D02*
X123712969Y-66318771D01*
X123712969Y-66318771D02*
X123798683Y-66347342D01*
X123798683Y-66347342D02*
X123855826Y-66404485D01*
X123855826Y-66404485D02*
X123884397Y-66461628D01*
X123884397Y-66461628D02*
X123912969Y-66575914D01*
X123912969Y-66575914D02*
X123912969Y-66661628D01*
X123912969Y-66661628D02*
X123884397Y-66775914D01*
X123884397Y-66775914D02*
X123855826Y-66833057D01*
X123855826Y-66833057D02*
X123798683Y-66890200D01*
X123798683Y-66890200D02*
X123712969Y-66918771D01*
X123712969Y-66918771D02*
X123570112Y-66918771D01*
X147141541Y-70804485D02*
X147227255Y-70833057D01*
X147227255Y-70833057D02*
X147255826Y-70861628D01*
X147255826Y-70861628D02*
X147284398Y-70918771D01*
X147284398Y-70918771D02*
X147284398Y-71004485D01*
X147284398Y-71004485D02*
X147255826Y-71061628D01*
X147255826Y-71061628D02*
X147227255Y-71090200D01*
X147227255Y-71090200D02*
X147170112Y-71118771D01*
X147170112Y-71118771D02*
X146941541Y-71118771D01*
X146941541Y-71118771D02*
X146941541Y-70518771D01*
X146941541Y-70518771D02*
X147141541Y-70518771D01*
X147141541Y-70518771D02*
X147198684Y-70547342D01*
X147198684Y-70547342D02*
X147227255Y-70575914D01*
X147227255Y-70575914D02*
X147255826Y-70633057D01*
X147255826Y-70633057D02*
X147255826Y-70690200D01*
X147255826Y-70690200D02*
X147227255Y-70747342D01*
X147227255Y-70747342D02*
X147198684Y-70775914D01*
X147198684Y-70775914D02*
X147141541Y-70804485D01*
X147141541Y-70804485D02*
X146941541Y-70804485D01*
X147541541Y-70890200D02*
X147998684Y-70890200D01*
X127041541Y-65504485D02*
X127127255Y-65533057D01*
X127127255Y-65533057D02*
X127155826Y-65561628D01*
X127155826Y-65561628D02*
X127184398Y-65618771D01*
X127184398Y-65618771D02*
X127184398Y-65704485D01*
X127184398Y-65704485D02*
X127155826Y-65761628D01*
X127155826Y-65761628D02*
X127127255Y-65790200D01*
X127127255Y-65790200D02*
X127070112Y-65818771D01*
X127070112Y-65818771D02*
X126841541Y-65818771D01*
X126841541Y-65818771D02*
X126841541Y-65218771D01*
X126841541Y-65218771D02*
X127041541Y-65218771D01*
X127041541Y-65218771D02*
X127098684Y-65247342D01*
X127098684Y-65247342D02*
X127127255Y-65275914D01*
X127127255Y-65275914D02*
X127155826Y-65333057D01*
X127155826Y-65333057D02*
X127155826Y-65390200D01*
X127155826Y-65390200D02*
X127127255Y-65447342D01*
X127127255Y-65447342D02*
X127098684Y-65475914D01*
X127098684Y-65475914D02*
X127041541Y-65504485D01*
X127041541Y-65504485D02*
X126841541Y-65504485D01*
X127441541Y-65590200D02*
X127898684Y-65590200D01*
X127670112Y-65818771D02*
X127670112Y-65361628D01*
X118341541Y-72504485D02*
X118427255Y-72533057D01*
X118427255Y-72533057D02*
X118455826Y-72561628D01*
X118455826Y-72561628D02*
X118484398Y-72618771D01*
X118484398Y-72618771D02*
X118484398Y-72704485D01*
X118484398Y-72704485D02*
X118455826Y-72761628D01*
X118455826Y-72761628D02*
X118427255Y-72790200D01*
X118427255Y-72790200D02*
X118370112Y-72818771D01*
X118370112Y-72818771D02*
X118141541Y-72818771D01*
X118141541Y-72818771D02*
X118141541Y-72218771D01*
X118141541Y-72218771D02*
X118341541Y-72218771D01*
X118341541Y-72218771D02*
X118398684Y-72247342D01*
X118398684Y-72247342D02*
X118427255Y-72275914D01*
X118427255Y-72275914D02*
X118455826Y-72333057D01*
X118455826Y-72333057D02*
X118455826Y-72390200D01*
X118455826Y-72390200D02*
X118427255Y-72447342D01*
X118427255Y-72447342D02*
X118398684Y-72475914D01*
X118398684Y-72475914D02*
X118341541Y-72504485D01*
X118341541Y-72504485D02*
X118141541Y-72504485D01*
X118741541Y-72590200D02*
X119198684Y-72590200D01*
X118341541Y-67404485D02*
X118427255Y-67433057D01*
X118427255Y-67433057D02*
X118455826Y-67461628D01*
X118455826Y-67461628D02*
X118484398Y-67518771D01*
X118484398Y-67518771D02*
X118484398Y-67604485D01*
X118484398Y-67604485D02*
X118455826Y-67661628D01*
X118455826Y-67661628D02*
X118427255Y-67690200D01*
X118427255Y-67690200D02*
X118370112Y-67718771D01*
X118370112Y-67718771D02*
X118141541Y-67718771D01*
X118141541Y-67718771D02*
X118141541Y-67118771D01*
X118141541Y-67118771D02*
X118341541Y-67118771D01*
X118341541Y-67118771D02*
X118398684Y-67147342D01*
X118398684Y-67147342D02*
X118427255Y-67175914D01*
X118427255Y-67175914D02*
X118455826Y-67233057D01*
X118455826Y-67233057D02*
X118455826Y-67290200D01*
X118455826Y-67290200D02*
X118427255Y-67347342D01*
X118427255Y-67347342D02*
X118398684Y-67375914D01*
X118398684Y-67375914D02*
X118341541Y-67404485D01*
X118341541Y-67404485D02*
X118141541Y-67404485D01*
X118741541Y-67490200D02*
X119198684Y-67490200D01*
X118970112Y-67718771D02*
X118970112Y-67261628D01*
X158155826Y-73447342D02*
X158098684Y-73418771D01*
X158098684Y-73418771D02*
X158012969Y-73418771D01*
X158012969Y-73418771D02*
X157927255Y-73447342D01*
X157927255Y-73447342D02*
X157870112Y-73504485D01*
X157870112Y-73504485D02*
X157841541Y-73561628D01*
X157841541Y-73561628D02*
X157812969Y-73675914D01*
X157812969Y-73675914D02*
X157812969Y-73761628D01*
X157812969Y-73761628D02*
X157841541Y-73875914D01*
X157841541Y-73875914D02*
X157870112Y-73933057D01*
X157870112Y-73933057D02*
X157927255Y-73990200D01*
X157927255Y-73990200D02*
X158012969Y-74018771D01*
X158012969Y-74018771D02*
X158070112Y-74018771D01*
X158070112Y-74018771D02*
X158155826Y-73990200D01*
X158155826Y-73990200D02*
X158184398Y-73961628D01*
X158184398Y-73961628D02*
X158184398Y-73761628D01*
X158184398Y-73761628D02*
X158070112Y-73761628D01*
X158441541Y-74018771D02*
X158441541Y-73418771D01*
X158441541Y-73418771D02*
X158784398Y-74018771D01*
X158784398Y-74018771D02*
X158784398Y-73418771D01*
X159070112Y-74018771D02*
X159070112Y-73418771D01*
X159070112Y-73418771D02*
X159212969Y-73418771D01*
X159212969Y-73418771D02*
X159298683Y-73447342D01*
X159298683Y-73447342D02*
X159355826Y-73504485D01*
X159355826Y-73504485D02*
X159384397Y-73561628D01*
X159384397Y-73561628D02*
X159412969Y-73675914D01*
X159412969Y-73675914D02*
X159412969Y-73761628D01*
X159412969Y-73761628D02*
X159384397Y-73875914D01*
X159384397Y-73875914D02*
X159355826Y-73933057D01*
X159355826Y-73933057D02*
X159298683Y-73990200D01*
X159298683Y-73990200D02*
X159212969Y-74018771D01*
X159212969Y-74018771D02*
X159070112Y-74018771D01*
X157855826Y-70918771D02*
X158055826Y-71518771D01*
X158055826Y-71518771D02*
X158255826Y-70918771D01*
X158798684Y-71461628D02*
X158770112Y-71490200D01*
X158770112Y-71490200D02*
X158684398Y-71518771D01*
X158684398Y-71518771D02*
X158627255Y-71518771D01*
X158627255Y-71518771D02*
X158541541Y-71490200D01*
X158541541Y-71490200D02*
X158484398Y-71433057D01*
X158484398Y-71433057D02*
X158455827Y-71375914D01*
X158455827Y-71375914D02*
X158427255Y-71261628D01*
X158427255Y-71261628D02*
X158427255Y-71175914D01*
X158427255Y-71175914D02*
X158455827Y-71061628D01*
X158455827Y-71061628D02*
X158484398Y-71004485D01*
X158484398Y-71004485D02*
X158541541Y-70947342D01*
X158541541Y-70947342D02*
X158627255Y-70918771D01*
X158627255Y-70918771D02*
X158684398Y-70918771D01*
X158684398Y-70918771D02*
X158770112Y-70947342D01*
X158770112Y-70947342D02*
X158798684Y-70975914D01*
X159398684Y-71461628D02*
X159370112Y-71490200D01*
X159370112Y-71490200D02*
X159284398Y-71518771D01*
X159284398Y-71518771D02*
X159227255Y-71518771D01*
X159227255Y-71518771D02*
X159141541Y-71490200D01*
X159141541Y-71490200D02*
X159084398Y-71433057D01*
X159084398Y-71433057D02*
X159055827Y-71375914D01*
X159055827Y-71375914D02*
X159027255Y-71261628D01*
X159027255Y-71261628D02*
X159027255Y-71175914D01*
X159027255Y-71175914D02*
X159055827Y-71061628D01*
X159055827Y-71061628D02*
X159084398Y-71004485D01*
X159084398Y-71004485D02*
X159141541Y-70947342D01*
X159141541Y-70947342D02*
X159227255Y-70918771D01*
X159227255Y-70918771D02*
X159284398Y-70918771D01*
X159284398Y-70918771D02*
X159370112Y-70947342D01*
X159370112Y-70947342D02*
X159398684Y-70975914D01*
X157855826Y-68318771D02*
X158055826Y-68918771D01*
X158055826Y-68918771D02*
X158255826Y-68318771D01*
X158798684Y-68861628D02*
X158770112Y-68890200D01*
X158770112Y-68890200D02*
X158684398Y-68918771D01*
X158684398Y-68918771D02*
X158627255Y-68918771D01*
X158627255Y-68918771D02*
X158541541Y-68890200D01*
X158541541Y-68890200D02*
X158484398Y-68833057D01*
X158484398Y-68833057D02*
X158455827Y-68775914D01*
X158455827Y-68775914D02*
X158427255Y-68661628D01*
X158427255Y-68661628D02*
X158427255Y-68575914D01*
X158427255Y-68575914D02*
X158455827Y-68461628D01*
X158455827Y-68461628D02*
X158484398Y-68404485D01*
X158484398Y-68404485D02*
X158541541Y-68347342D01*
X158541541Y-68347342D02*
X158627255Y-68318771D01*
X158627255Y-68318771D02*
X158684398Y-68318771D01*
X158684398Y-68318771D02*
X158770112Y-68347342D01*
X158770112Y-68347342D02*
X158798684Y-68375914D01*
X159398684Y-68861628D02*
X159370112Y-68890200D01*
X159370112Y-68890200D02*
X159284398Y-68918771D01*
X159284398Y-68918771D02*
X159227255Y-68918771D01*
X159227255Y-68918771D02*
X159141541Y-68890200D01*
X159141541Y-68890200D02*
X159084398Y-68833057D01*
X159084398Y-68833057D02*
X159055827Y-68775914D01*
X159055827Y-68775914D02*
X159027255Y-68661628D01*
X159027255Y-68661628D02*
X159027255Y-68575914D01*
X159027255Y-68575914D02*
X159055827Y-68461628D01*
X159055827Y-68461628D02*
X159084398Y-68404485D01*
X159084398Y-68404485D02*
X159141541Y-68347342D01*
X159141541Y-68347342D02*
X159227255Y-68318771D01*
X159227255Y-68318771D02*
X159284398Y-68318771D01*
X159284398Y-68318771D02*
X159370112Y-68347342D01*
X159370112Y-68347342D02*
X159398684Y-68375914D01*
X155966666Y-65454819D02*
X155966666Y-66169104D01*
X155966666Y-66169104D02*
X155919047Y-66311961D01*
X155919047Y-66311961D02*
X155823809Y-66407200D01*
X155823809Y-66407200D02*
X155680952Y-66454819D01*
X155680952Y-66454819D02*
X155585714Y-66454819D01*
X156347619Y-65454819D02*
X156966666Y-65454819D01*
X156966666Y-65454819D02*
X156633333Y-65835771D01*
X156633333Y-65835771D02*
X156776190Y-65835771D01*
X156776190Y-65835771D02*
X156871428Y-65883390D01*
X156871428Y-65883390D02*
X156919047Y-65931009D01*
X156919047Y-65931009D02*
X156966666Y-66026247D01*
X156966666Y-66026247D02*
X156966666Y-66264342D01*
X156966666Y-66264342D02*
X156919047Y-66359580D01*
X156919047Y-66359580D02*
X156871428Y-66407200D01*
X156871428Y-66407200D02*
X156776190Y-66454819D01*
X156776190Y-66454819D02*
X156490476Y-66454819D01*
X156490476Y-66454819D02*
X156395238Y-66407200D01*
X156395238Y-66407200D02*
X156347619Y-66359580D01*
X131638095Y-70654819D02*
X131638095Y-71464342D01*
X131638095Y-71464342D02*
X131685714Y-71559580D01*
X131685714Y-71559580D02*
X131733333Y-71607200D01*
X131733333Y-71607200D02*
X131828571Y-71654819D01*
X131828571Y-71654819D02*
X132019047Y-71654819D01*
X132019047Y-71654819D02*
X132114285Y-71607200D01*
X132114285Y-71607200D02*
X132161904Y-71559580D01*
X132161904Y-71559580D02*
X132209523Y-71464342D01*
X132209523Y-71464342D02*
X132209523Y-70654819D01*
X132590476Y-70654819D02*
X133209523Y-70654819D01*
X133209523Y-70654819D02*
X132876190Y-71035771D01*
X132876190Y-71035771D02*
X133019047Y-71035771D01*
X133019047Y-71035771D02*
X133114285Y-71083390D01*
X133114285Y-71083390D02*
X133161904Y-71131009D01*
X133161904Y-71131009D02*
X133209523Y-71226247D01*
X133209523Y-71226247D02*
X133209523Y-71464342D01*
X133209523Y-71464342D02*
X133161904Y-71559580D01*
X133161904Y-71559580D02*
X133114285Y-71607200D01*
X133114285Y-71607200D02*
X133019047Y-71654819D01*
X133019047Y-71654819D02*
X132733333Y-71654819D01*
X132733333Y-71654819D02*
X132638095Y-71607200D01*
X132638095Y-71607200D02*
X132590476Y-71559580D01*
X134333333Y-64854819D02*
X134000000Y-64378628D01*
X133761905Y-64854819D02*
X133761905Y-63854819D01*
X133761905Y-63854819D02*
X134142857Y-63854819D01*
X134142857Y-63854819D02*
X134238095Y-63902438D01*
X134238095Y-63902438D02*
X134285714Y-63950057D01*
X134285714Y-63950057D02*
X134333333Y-64045295D01*
X134333333Y-64045295D02*
X134333333Y-64188152D01*
X134333333Y-64188152D02*
X134285714Y-64283390D01*
X134285714Y-64283390D02*
X134238095Y-64331009D01*
X134238095Y-64331009D02*
X134142857Y-64378628D01*
X134142857Y-64378628D02*
X133761905Y-64378628D01*
X134666667Y-63854819D02*
X135285714Y-63854819D01*
X135285714Y-63854819D02*
X134952381Y-64235771D01*
X134952381Y-64235771D02*
X135095238Y-64235771D01*
X135095238Y-64235771D02*
X135190476Y-64283390D01*
X135190476Y-64283390D02*
X135238095Y-64331009D01*
X135238095Y-64331009D02*
X135285714Y-64426247D01*
X135285714Y-64426247D02*
X135285714Y-64664342D01*
X135285714Y-64664342D02*
X135238095Y-64759580D01*
X135238095Y-64759580D02*
X135190476Y-64807200D01*
X135190476Y-64807200D02*
X135095238Y-64854819D01*
X135095238Y-64854819D02*
X134809524Y-64854819D01*
X134809524Y-64854819D02*
X134714286Y-64807200D01*
X134714286Y-64807200D02*
X134666667Y-64759580D01*
X150233333Y-55654819D02*
X149900000Y-55178628D01*
X149661905Y-55654819D02*
X149661905Y-54654819D01*
X149661905Y-54654819D02*
X150042857Y-54654819D01*
X150042857Y-54654819D02*
X150138095Y-54702438D01*
X150138095Y-54702438D02*
X150185714Y-54750057D01*
X150185714Y-54750057D02*
X150233333Y-54845295D01*
X150233333Y-54845295D02*
X150233333Y-54988152D01*
X150233333Y-54988152D02*
X150185714Y-55083390D01*
X150185714Y-55083390D02*
X150138095Y-55131009D01*
X150138095Y-55131009D02*
X150042857Y-55178628D01*
X150042857Y-55178628D02*
X149661905Y-55178628D01*
X150804762Y-55083390D02*
X150709524Y-55035771D01*
X150709524Y-55035771D02*
X150661905Y-54988152D01*
X150661905Y-54988152D02*
X150614286Y-54892914D01*
X150614286Y-54892914D02*
X150614286Y-54845295D01*
X150614286Y-54845295D02*
X150661905Y-54750057D01*
X150661905Y-54750057D02*
X150709524Y-54702438D01*
X150709524Y-54702438D02*
X150804762Y-54654819D01*
X150804762Y-54654819D02*
X150995238Y-54654819D01*
X150995238Y-54654819D02*
X151090476Y-54702438D01*
X151090476Y-54702438D02*
X151138095Y-54750057D01*
X151138095Y-54750057D02*
X151185714Y-54845295D01*
X151185714Y-54845295D02*
X151185714Y-54892914D01*
X151185714Y-54892914D02*
X151138095Y-54988152D01*
X151138095Y-54988152D02*
X151090476Y-55035771D01*
X151090476Y-55035771D02*
X150995238Y-55083390D01*
X150995238Y-55083390D02*
X150804762Y-55083390D01*
X150804762Y-55083390D02*
X150709524Y-55131009D01*
X150709524Y-55131009D02*
X150661905Y-55178628D01*
X150661905Y-55178628D02*
X150614286Y-55273866D01*
X150614286Y-55273866D02*
X150614286Y-55464342D01*
X150614286Y-55464342D02*
X150661905Y-55559580D01*
X150661905Y-55559580D02*
X150709524Y-55607200D01*
X150709524Y-55607200D02*
X150804762Y-55654819D01*
X150804762Y-55654819D02*
X150995238Y-55654819D01*
X150995238Y-55654819D02*
X151090476Y-55607200D01*
X151090476Y-55607200D02*
X151138095Y-55559580D01*
X151138095Y-55559580D02*
X151185714Y-55464342D01*
X151185714Y-55464342D02*
X151185714Y-55273866D01*
X151185714Y-55273866D02*
X151138095Y-55178628D01*
X151138095Y-55178628D02*
X151090476Y-55131009D01*
X151090476Y-55131009D02*
X150995238Y-55083390D01*
X129757142Y-51554819D02*
X129423809Y-51078628D01*
X129185714Y-51554819D02*
X129185714Y-50554819D01*
X129185714Y-50554819D02*
X129566666Y-50554819D01*
X129566666Y-50554819D02*
X129661904Y-50602438D01*
X129661904Y-50602438D02*
X129709523Y-50650057D01*
X129709523Y-50650057D02*
X129757142Y-50745295D01*
X129757142Y-50745295D02*
X129757142Y-50888152D01*
X129757142Y-50888152D02*
X129709523Y-50983390D01*
X129709523Y-50983390D02*
X129661904Y-51031009D01*
X129661904Y-51031009D02*
X129566666Y-51078628D01*
X129566666Y-51078628D02*
X129185714Y-51078628D01*
X130709523Y-51554819D02*
X130138095Y-51554819D01*
X130423809Y-51554819D02*
X130423809Y-50554819D01*
X130423809Y-50554819D02*
X130328571Y-50697676D01*
X130328571Y-50697676D02*
X130233333Y-50792914D01*
X130233333Y-50792914D02*
X130138095Y-50840533D01*
X131661904Y-51554819D02*
X131090476Y-51554819D01*
X131376190Y-51554819D02*
X131376190Y-50554819D01*
X131376190Y-50554819D02*
X131280952Y-50697676D01*
X131280952Y-50697676D02*
X131185714Y-50792914D01*
X131185714Y-50792914D02*
X131090476Y-50840533D01*
X129633333Y-58054819D02*
X129300000Y-57578628D01*
X129061905Y-58054819D02*
X129061905Y-57054819D01*
X129061905Y-57054819D02*
X129442857Y-57054819D01*
X129442857Y-57054819D02*
X129538095Y-57102438D01*
X129538095Y-57102438D02*
X129585714Y-57150057D01*
X129585714Y-57150057D02*
X129633333Y-57245295D01*
X129633333Y-57245295D02*
X129633333Y-57388152D01*
X129633333Y-57388152D02*
X129585714Y-57483390D01*
X129585714Y-57483390D02*
X129538095Y-57531009D01*
X129538095Y-57531009D02*
X129442857Y-57578628D01*
X129442857Y-57578628D02*
X129061905Y-57578628D01*
X130109524Y-58054819D02*
X130300000Y-58054819D01*
X130300000Y-58054819D02*
X130395238Y-58007200D01*
X130395238Y-58007200D02*
X130442857Y-57959580D01*
X130442857Y-57959580D02*
X130538095Y-57816723D01*
X130538095Y-57816723D02*
X130585714Y-57626247D01*
X130585714Y-57626247D02*
X130585714Y-57245295D01*
X130585714Y-57245295D02*
X130538095Y-57150057D01*
X130538095Y-57150057D02*
X130490476Y-57102438D01*
X130490476Y-57102438D02*
X130395238Y-57054819D01*
X130395238Y-57054819D02*
X130204762Y-57054819D01*
X130204762Y-57054819D02*
X130109524Y-57102438D01*
X130109524Y-57102438D02*
X130061905Y-57150057D01*
X130061905Y-57150057D02*
X130014286Y-57245295D01*
X130014286Y-57245295D02*
X130014286Y-57483390D01*
X130014286Y-57483390D02*
X130061905Y-57578628D01*
X130061905Y-57578628D02*
X130109524Y-57626247D01*
X130109524Y-57626247D02*
X130204762Y-57673866D01*
X130204762Y-57673866D02*
X130395238Y-57673866D01*
X130395238Y-57673866D02*
X130490476Y-57626247D01*
X130490476Y-57626247D02*
X130538095Y-57578628D01*
X130538095Y-57578628D02*
X130585714Y-57483390D01*
X143842261Y-58350057D02*
X143747023Y-58302438D01*
X143747023Y-58302438D02*
X143651785Y-58207200D01*
X143651785Y-58207200D02*
X143508928Y-58064342D01*
X143508928Y-58064342D02*
X143413690Y-58016723D01*
X143413690Y-58016723D02*
X143318452Y-58016723D01*
X143366071Y-58254819D02*
X143270833Y-58207200D01*
X143270833Y-58207200D02*
X143175595Y-58111961D01*
X143175595Y-58111961D02*
X143127976Y-57921485D01*
X143127976Y-57921485D02*
X143127976Y-57588152D01*
X143127976Y-57588152D02*
X143175595Y-57397676D01*
X143175595Y-57397676D02*
X143270833Y-57302438D01*
X143270833Y-57302438D02*
X143366071Y-57254819D01*
X143366071Y-57254819D02*
X143556547Y-57254819D01*
X143556547Y-57254819D02*
X143651785Y-57302438D01*
X143651785Y-57302438D02*
X143747023Y-57397676D01*
X143747023Y-57397676D02*
X143794642Y-57588152D01*
X143794642Y-57588152D02*
X143794642Y-57921485D01*
X143794642Y-57921485D02*
X143747023Y-58111961D01*
X143747023Y-58111961D02*
X143651785Y-58207200D01*
X143651785Y-58207200D02*
X143556547Y-58254819D01*
X143556547Y-58254819D02*
X143366071Y-58254819D01*
X144747023Y-58254819D02*
X144175595Y-58254819D01*
X144461309Y-58254819D02*
X144461309Y-57254819D01*
X144461309Y-57254819D02*
X144366071Y-57397676D01*
X144366071Y-57397676D02*
X144270833Y-57492914D01*
X144270833Y-57492914D02*
X144175595Y-57540533D01*
X147961905Y-53354819D02*
X147961905Y-52354819D01*
X147961905Y-52354819D02*
X148200000Y-52354819D01*
X148200000Y-52354819D02*
X148342857Y-52402438D01*
X148342857Y-52402438D02*
X148438095Y-52497676D01*
X148438095Y-52497676D02*
X148485714Y-52592914D01*
X148485714Y-52592914D02*
X148533333Y-52783390D01*
X148533333Y-52783390D02*
X148533333Y-52926247D01*
X148533333Y-52926247D02*
X148485714Y-53116723D01*
X148485714Y-53116723D02*
X148438095Y-53211961D01*
X148438095Y-53211961D02*
X148342857Y-53307200D01*
X148342857Y-53307200D02*
X148200000Y-53354819D01*
X148200000Y-53354819D02*
X147961905Y-53354819D01*
X148866667Y-52354819D02*
X149485714Y-52354819D01*
X149485714Y-52354819D02*
X149152381Y-52735771D01*
X149152381Y-52735771D02*
X149295238Y-52735771D01*
X149295238Y-52735771D02*
X149390476Y-52783390D01*
X149390476Y-52783390D02*
X149438095Y-52831009D01*
X149438095Y-52831009D02*
X149485714Y-52926247D01*
X149485714Y-52926247D02*
X149485714Y-53164342D01*
X149485714Y-53164342D02*
X149438095Y-53259580D01*
X149438095Y-53259580D02*
X149390476Y-53307200D01*
X149390476Y-53307200D02*
X149295238Y-53354819D01*
X149295238Y-53354819D02*
X149009524Y-53354819D01*
X149009524Y-53354819D02*
X148914286Y-53307200D01*
X148914286Y-53307200D02*
X148866667Y-53259580D01*
X146433333Y-55654819D02*
X146100000Y-55178628D01*
X145861905Y-55654819D02*
X145861905Y-54654819D01*
X145861905Y-54654819D02*
X146242857Y-54654819D01*
X146242857Y-54654819D02*
X146338095Y-54702438D01*
X146338095Y-54702438D02*
X146385714Y-54750057D01*
X146385714Y-54750057D02*
X146433333Y-54845295D01*
X146433333Y-54845295D02*
X146433333Y-54988152D01*
X146433333Y-54988152D02*
X146385714Y-55083390D01*
X146385714Y-55083390D02*
X146338095Y-55131009D01*
X146338095Y-55131009D02*
X146242857Y-55178628D01*
X146242857Y-55178628D02*
X145861905Y-55178628D01*
X147290476Y-54654819D02*
X147100000Y-54654819D01*
X147100000Y-54654819D02*
X147004762Y-54702438D01*
X147004762Y-54702438D02*
X146957143Y-54750057D01*
X146957143Y-54750057D02*
X146861905Y-54892914D01*
X146861905Y-54892914D02*
X146814286Y-55083390D01*
X146814286Y-55083390D02*
X146814286Y-55464342D01*
X146814286Y-55464342D02*
X146861905Y-55559580D01*
X146861905Y-55559580D02*
X146909524Y-55607200D01*
X146909524Y-55607200D02*
X147004762Y-55654819D01*
X147004762Y-55654819D02*
X147195238Y-55654819D01*
X147195238Y-55654819D02*
X147290476Y-55607200D01*
X147290476Y-55607200D02*
X147338095Y-55559580D01*
X147338095Y-55559580D02*
X147385714Y-55464342D01*
X147385714Y-55464342D02*
X147385714Y-55226247D01*
X147385714Y-55226247D02*
X147338095Y-55131009D01*
X147338095Y-55131009D02*
X147290476Y-55083390D01*
X147290476Y-55083390D02*
X147195238Y-55035771D01*
X147195238Y-55035771D02*
X147004762Y-55035771D01*
X147004762Y-55035771D02*
X146909524Y-55083390D01*
X146909524Y-55083390D02*
X146861905Y-55131009D01*
X146861905Y-55131009D02*
X146814286Y-55226247D01*
X142433333Y-67059580D02*
X142385714Y-67107200D01*
X142385714Y-67107200D02*
X142242857Y-67154819D01*
X142242857Y-67154819D02*
X142147619Y-67154819D01*
X142147619Y-67154819D02*
X142004762Y-67107200D01*
X142004762Y-67107200D02*
X141909524Y-67011961D01*
X141909524Y-67011961D02*
X141861905Y-66916723D01*
X141861905Y-66916723D02*
X141814286Y-66726247D01*
X141814286Y-66726247D02*
X141814286Y-66583390D01*
X141814286Y-66583390D02*
X141861905Y-66392914D01*
X141861905Y-66392914D02*
X141909524Y-66297676D01*
X141909524Y-66297676D02*
X142004762Y-66202438D01*
X142004762Y-66202438D02*
X142147619Y-66154819D01*
X142147619Y-66154819D02*
X142242857Y-66154819D01*
X142242857Y-66154819D02*
X142385714Y-66202438D01*
X142385714Y-66202438D02*
X142433333Y-66250057D01*
X143290476Y-66488152D02*
X143290476Y-67154819D01*
X143052381Y-66107200D02*
X142814286Y-66821485D01*
X142814286Y-66821485D02*
X143433333Y-66821485D01*
X144161905Y-53254819D02*
X144161905Y-52254819D01*
X144161905Y-52254819D02*
X144400000Y-52254819D01*
X144400000Y-52254819D02*
X144542857Y-52302438D01*
X144542857Y-52302438D02*
X144638095Y-52397676D01*
X144638095Y-52397676D02*
X144685714Y-52492914D01*
X144685714Y-52492914D02*
X144733333Y-52683390D01*
X144733333Y-52683390D02*
X144733333Y-52826247D01*
X144733333Y-52826247D02*
X144685714Y-53016723D01*
X144685714Y-53016723D02*
X144638095Y-53111961D01*
X144638095Y-53111961D02*
X144542857Y-53207200D01*
X144542857Y-53207200D02*
X144400000Y-53254819D01*
X144400000Y-53254819D02*
X144161905Y-53254819D01*
X145114286Y-52350057D02*
X145161905Y-52302438D01*
X145161905Y-52302438D02*
X145257143Y-52254819D01*
X145257143Y-52254819D02*
X145495238Y-52254819D01*
X145495238Y-52254819D02*
X145590476Y-52302438D01*
X145590476Y-52302438D02*
X145638095Y-52350057D01*
X145638095Y-52350057D02*
X145685714Y-52445295D01*
X145685714Y-52445295D02*
X145685714Y-52540533D01*
X145685714Y-52540533D02*
X145638095Y-52683390D01*
X145638095Y-52683390D02*
X145066667Y-53254819D01*
X145066667Y-53254819D02*
X145685714Y-53254819D01*
X141633333Y-72754819D02*
X141300000Y-72278628D01*
X141061905Y-72754819D02*
X141061905Y-71754819D01*
X141061905Y-71754819D02*
X141442857Y-71754819D01*
X141442857Y-71754819D02*
X141538095Y-71802438D01*
X141538095Y-71802438D02*
X141585714Y-71850057D01*
X141585714Y-71850057D02*
X141633333Y-71945295D01*
X141633333Y-71945295D02*
X141633333Y-72088152D01*
X141633333Y-72088152D02*
X141585714Y-72183390D01*
X141585714Y-72183390D02*
X141538095Y-72231009D01*
X141538095Y-72231009D02*
X141442857Y-72278628D01*
X141442857Y-72278628D02*
X141061905Y-72278628D01*
X141966667Y-71754819D02*
X142633333Y-71754819D01*
X142633333Y-71754819D02*
X142204762Y-72754819D01*
X154004761Y-65212557D02*
X153909523Y-65164938D01*
X153909523Y-65164938D02*
X153814285Y-65069700D01*
X153814285Y-65069700D02*
X153671428Y-64926842D01*
X153671428Y-64926842D02*
X153576190Y-64879223D01*
X153576190Y-64879223D02*
X153480952Y-64879223D01*
X153528571Y-65117319D02*
X153433333Y-65069700D01*
X153433333Y-65069700D02*
X153338095Y-64974461D01*
X153338095Y-64974461D02*
X153290476Y-64783985D01*
X153290476Y-64783985D02*
X153290476Y-64450652D01*
X153290476Y-64450652D02*
X153338095Y-64260176D01*
X153338095Y-64260176D02*
X153433333Y-64164938D01*
X153433333Y-64164938D02*
X153528571Y-64117319D01*
X153528571Y-64117319D02*
X153719047Y-64117319D01*
X153719047Y-64117319D02*
X153814285Y-64164938D01*
X153814285Y-64164938D02*
X153909523Y-64260176D01*
X153909523Y-64260176D02*
X153957142Y-64450652D01*
X153957142Y-64450652D02*
X153957142Y-64783985D01*
X153957142Y-64783985D02*
X153909523Y-64974461D01*
X153909523Y-64974461D02*
X153814285Y-65069700D01*
X153814285Y-65069700D02*
X153719047Y-65117319D01*
X153719047Y-65117319D02*
X153528571Y-65117319D01*
X154338095Y-64212557D02*
X154385714Y-64164938D01*
X154385714Y-64164938D02*
X154480952Y-64117319D01*
X154480952Y-64117319D02*
X154719047Y-64117319D01*
X154719047Y-64117319D02*
X154814285Y-64164938D01*
X154814285Y-64164938D02*
X154861904Y-64212557D01*
X154861904Y-64212557D02*
X154909523Y-64307795D01*
X154909523Y-64307795D02*
X154909523Y-64403033D01*
X154909523Y-64403033D02*
X154861904Y-64545890D01*
X154861904Y-64545890D02*
X154290476Y-65117319D01*
X154290476Y-65117319D02*
X154909523Y-65117319D01*
X134333333Y-70659580D02*
X134285714Y-70707200D01*
X134285714Y-70707200D02*
X134142857Y-70754819D01*
X134142857Y-70754819D02*
X134047619Y-70754819D01*
X134047619Y-70754819D02*
X133904762Y-70707200D01*
X133904762Y-70707200D02*
X133809524Y-70611961D01*
X133809524Y-70611961D02*
X133761905Y-70516723D01*
X133761905Y-70516723D02*
X133714286Y-70326247D01*
X133714286Y-70326247D02*
X133714286Y-70183390D01*
X133714286Y-70183390D02*
X133761905Y-69992914D01*
X133761905Y-69992914D02*
X133809524Y-69897676D01*
X133809524Y-69897676D02*
X133904762Y-69802438D01*
X133904762Y-69802438D02*
X134047619Y-69754819D01*
X134047619Y-69754819D02*
X134142857Y-69754819D01*
X134142857Y-69754819D02*
X134285714Y-69802438D01*
X134285714Y-69802438D02*
X134333333Y-69850057D01*
X134666667Y-69754819D02*
X135285714Y-69754819D01*
X135285714Y-69754819D02*
X134952381Y-70135771D01*
X134952381Y-70135771D02*
X135095238Y-70135771D01*
X135095238Y-70135771D02*
X135190476Y-70183390D01*
X135190476Y-70183390D02*
X135238095Y-70231009D01*
X135238095Y-70231009D02*
X135285714Y-70326247D01*
X135285714Y-70326247D02*
X135285714Y-70564342D01*
X135285714Y-70564342D02*
X135238095Y-70659580D01*
X135238095Y-70659580D02*
X135190476Y-70707200D01*
X135190476Y-70707200D02*
X135095238Y-70754819D01*
X135095238Y-70754819D02*
X134809524Y-70754819D01*
X134809524Y-70754819D02*
X134714286Y-70707200D01*
X134714286Y-70707200D02*
X134666667Y-70659580D01*
X137638095Y-69754819D02*
X137638095Y-70564342D01*
X137638095Y-70564342D02*
X137685714Y-70659580D01*
X137685714Y-70659580D02*
X137733333Y-70707200D01*
X137733333Y-70707200D02*
X137828571Y-70754819D01*
X137828571Y-70754819D02*
X138019047Y-70754819D01*
X138019047Y-70754819D02*
X138114285Y-70707200D01*
X138114285Y-70707200D02*
X138161904Y-70659580D01*
X138161904Y-70659580D02*
X138209523Y-70564342D01*
X138209523Y-70564342D02*
X138209523Y-69754819D01*
X138638095Y-69850057D02*
X138685714Y-69802438D01*
X138685714Y-69802438D02*
X138780952Y-69754819D01*
X138780952Y-69754819D02*
X139019047Y-69754819D01*
X139019047Y-69754819D02*
X139114285Y-69802438D01*
X139114285Y-69802438D02*
X139161904Y-69850057D01*
X139161904Y-69850057D02*
X139209523Y-69945295D01*
X139209523Y-69945295D02*
X139209523Y-70040533D01*
X139209523Y-70040533D02*
X139161904Y-70183390D01*
X139161904Y-70183390D02*
X138590476Y-70754819D01*
X138590476Y-70754819D02*
X139209523Y-70754819D01*
X126157142Y-51554819D02*
X125823809Y-51078628D01*
X125585714Y-51554819D02*
X125585714Y-50554819D01*
X125585714Y-50554819D02*
X125966666Y-50554819D01*
X125966666Y-50554819D02*
X126061904Y-50602438D01*
X126061904Y-50602438D02*
X126109523Y-50650057D01*
X126109523Y-50650057D02*
X126157142Y-50745295D01*
X126157142Y-50745295D02*
X126157142Y-50888152D01*
X126157142Y-50888152D02*
X126109523Y-50983390D01*
X126109523Y-50983390D02*
X126061904Y-51031009D01*
X126061904Y-51031009D02*
X125966666Y-51078628D01*
X125966666Y-51078628D02*
X125585714Y-51078628D01*
X127109523Y-51554819D02*
X126538095Y-51554819D01*
X126823809Y-51554819D02*
X126823809Y-50554819D01*
X126823809Y-50554819D02*
X126728571Y-50697676D01*
X126728571Y-50697676D02*
X126633333Y-50792914D01*
X126633333Y-50792914D02*
X126538095Y-50840533D01*
X127490476Y-50650057D02*
X127538095Y-50602438D01*
X127538095Y-50602438D02*
X127633333Y-50554819D01*
X127633333Y-50554819D02*
X127871428Y-50554819D01*
X127871428Y-50554819D02*
X127966666Y-50602438D01*
X127966666Y-50602438D02*
X128014285Y-50650057D01*
X128014285Y-50650057D02*
X128061904Y-50745295D01*
X128061904Y-50745295D02*
X128061904Y-50840533D01*
X128061904Y-50840533D02*
X128014285Y-50983390D01*
X128014285Y-50983390D02*
X127442857Y-51554819D01*
X127442857Y-51554819D02*
X128061904Y-51554819D01*
X130833333Y-59959580D02*
X130785714Y-60007200D01*
X130785714Y-60007200D02*
X130642857Y-60054819D01*
X130642857Y-60054819D02*
X130547619Y-60054819D01*
X130547619Y-60054819D02*
X130404762Y-60007200D01*
X130404762Y-60007200D02*
X130309524Y-59911961D01*
X130309524Y-59911961D02*
X130261905Y-59816723D01*
X130261905Y-59816723D02*
X130214286Y-59626247D01*
X130214286Y-59626247D02*
X130214286Y-59483390D01*
X130214286Y-59483390D02*
X130261905Y-59292914D01*
X130261905Y-59292914D02*
X130309524Y-59197676D01*
X130309524Y-59197676D02*
X130404762Y-59102438D01*
X130404762Y-59102438D02*
X130547619Y-59054819D01*
X130547619Y-59054819D02*
X130642857Y-59054819D01*
X130642857Y-59054819D02*
X130785714Y-59102438D01*
X130785714Y-59102438D02*
X130833333Y-59150057D01*
X131214286Y-59150057D02*
X131261905Y-59102438D01*
X131261905Y-59102438D02*
X131357143Y-59054819D01*
X131357143Y-59054819D02*
X131595238Y-59054819D01*
X131595238Y-59054819D02*
X131690476Y-59102438D01*
X131690476Y-59102438D02*
X131738095Y-59150057D01*
X131738095Y-59150057D02*
X131785714Y-59245295D01*
X131785714Y-59245295D02*
X131785714Y-59340533D01*
X131785714Y-59340533D02*
X131738095Y-59483390D01*
X131738095Y-59483390D02*
X131166667Y-60054819D01*
X131166667Y-60054819D02*
X131785714Y-60054819D01*
X133833333Y-52854819D02*
X133500000Y-52378628D01*
X133261905Y-52854819D02*
X133261905Y-51854819D01*
X133261905Y-51854819D02*
X133642857Y-51854819D01*
X133642857Y-51854819D02*
X133738095Y-51902438D01*
X133738095Y-51902438D02*
X133785714Y-51950057D01*
X133785714Y-51950057D02*
X133833333Y-52045295D01*
X133833333Y-52045295D02*
X133833333Y-52188152D01*
X133833333Y-52188152D02*
X133785714Y-52283390D01*
X133785714Y-52283390D02*
X133738095Y-52331009D01*
X133738095Y-52331009D02*
X133642857Y-52378628D01*
X133642857Y-52378628D02*
X133261905Y-52378628D01*
X134785714Y-52854819D02*
X134214286Y-52854819D01*
X134500000Y-52854819D02*
X134500000Y-51854819D01*
X134500000Y-51854819D02*
X134404762Y-51997676D01*
X134404762Y-51997676D02*
X134309524Y-52092914D01*
X134309524Y-52092914D02*
X134214286Y-52140533D01*
X146238095Y-61754819D02*
X146238095Y-62564342D01*
X146238095Y-62564342D02*
X146285714Y-62659580D01*
X146285714Y-62659580D02*
X146333333Y-62707200D01*
X146333333Y-62707200D02*
X146428571Y-62754819D01*
X146428571Y-62754819D02*
X146619047Y-62754819D01*
X146619047Y-62754819D02*
X146714285Y-62707200D01*
X146714285Y-62707200D02*
X146761904Y-62659580D01*
X146761904Y-62659580D02*
X146809523Y-62564342D01*
X146809523Y-62564342D02*
X146809523Y-61754819D01*
X147714285Y-62088152D02*
X147714285Y-62754819D01*
X147476190Y-61707200D02*
X147238095Y-62421485D01*
X147238095Y-62421485D02*
X147857142Y-62421485D01*
X137938095Y-53054819D02*
X137938095Y-53864342D01*
X137938095Y-53864342D02*
X137985714Y-53959580D01*
X137985714Y-53959580D02*
X138033333Y-54007200D01*
X138033333Y-54007200D02*
X138128571Y-54054819D01*
X138128571Y-54054819D02*
X138319047Y-54054819D01*
X138319047Y-54054819D02*
X138414285Y-54007200D01*
X138414285Y-54007200D02*
X138461904Y-53959580D01*
X138461904Y-53959580D02*
X138509523Y-53864342D01*
X138509523Y-53864342D02*
X138509523Y-53054819D01*
X139509523Y-54054819D02*
X138938095Y-54054819D01*
X139223809Y-54054819D02*
X139223809Y-53054819D01*
X139223809Y-53054819D02*
X139128571Y-53197676D01*
X139128571Y-53197676D02*
X139033333Y-53292914D01*
X139033333Y-53292914D02*
X138938095Y-53340533D01*
X157133333Y-59279819D02*
X156800000Y-58803628D01*
X156561905Y-59279819D02*
X156561905Y-58279819D01*
X156561905Y-58279819D02*
X156942857Y-58279819D01*
X156942857Y-58279819D02*
X157038095Y-58327438D01*
X157038095Y-58327438D02*
X157085714Y-58375057D01*
X157085714Y-58375057D02*
X157133333Y-58470295D01*
X157133333Y-58470295D02*
X157133333Y-58613152D01*
X157133333Y-58613152D02*
X157085714Y-58708390D01*
X157085714Y-58708390D02*
X157038095Y-58756009D01*
X157038095Y-58756009D02*
X156942857Y-58803628D01*
X156942857Y-58803628D02*
X156561905Y-58803628D01*
X158038095Y-58279819D02*
X157561905Y-58279819D01*
X157561905Y-58279819D02*
X157514286Y-58756009D01*
X157514286Y-58756009D02*
X157561905Y-58708390D01*
X157561905Y-58708390D02*
X157657143Y-58660771D01*
X157657143Y-58660771D02*
X157895238Y-58660771D01*
X157895238Y-58660771D02*
X157990476Y-58708390D01*
X157990476Y-58708390D02*
X158038095Y-58756009D01*
X158038095Y-58756009D02*
X158085714Y-58851247D01*
X158085714Y-58851247D02*
X158085714Y-59089342D01*
X158085714Y-59089342D02*
X158038095Y-59184580D01*
X158038095Y-59184580D02*
X157990476Y-59232200D01*
X157990476Y-59232200D02*
X157895238Y-59279819D01*
X157895238Y-59279819D02*
X157657143Y-59279819D01*
X157657143Y-59279819D02*
X157561905Y-59232200D01*
X157561905Y-59232200D02*
X157514286Y-59184580D01*
X143533333Y-61759580D02*
X143485714Y-61807200D01*
X143485714Y-61807200D02*
X143342857Y-61854819D01*
X143342857Y-61854819D02*
X143247619Y-61854819D01*
X143247619Y-61854819D02*
X143104762Y-61807200D01*
X143104762Y-61807200D02*
X143009524Y-61711961D01*
X143009524Y-61711961D02*
X142961905Y-61616723D01*
X142961905Y-61616723D02*
X142914286Y-61426247D01*
X142914286Y-61426247D02*
X142914286Y-61283390D01*
X142914286Y-61283390D02*
X142961905Y-61092914D01*
X142961905Y-61092914D02*
X143009524Y-60997676D01*
X143009524Y-60997676D02*
X143104762Y-60902438D01*
X143104762Y-60902438D02*
X143247619Y-60854819D01*
X143247619Y-60854819D02*
X143342857Y-60854819D01*
X143342857Y-60854819D02*
X143485714Y-60902438D01*
X143485714Y-60902438D02*
X143533333Y-60950057D01*
X144485714Y-61854819D02*
X143914286Y-61854819D01*
X144200000Y-61854819D02*
X144200000Y-60854819D01*
X144200000Y-60854819D02*
X144104762Y-60997676D01*
X144104762Y-60997676D02*
X144009524Y-61092914D01*
X144009524Y-61092914D02*
X143914286Y-61140533D01*
X137133333Y-64854819D02*
X136800000Y-64378628D01*
X136561905Y-64854819D02*
X136561905Y-63854819D01*
X136561905Y-63854819D02*
X136942857Y-63854819D01*
X136942857Y-63854819D02*
X137038095Y-63902438D01*
X137038095Y-63902438D02*
X137085714Y-63950057D01*
X137085714Y-63950057D02*
X137133333Y-64045295D01*
X137133333Y-64045295D02*
X137133333Y-64188152D01*
X137133333Y-64188152D02*
X137085714Y-64283390D01*
X137085714Y-64283390D02*
X137038095Y-64331009D01*
X137038095Y-64331009D02*
X136942857Y-64378628D01*
X136942857Y-64378628D02*
X136561905Y-64378628D01*
X137990476Y-64188152D02*
X137990476Y-64854819D01*
X137752381Y-63807200D02*
X137514286Y-64521485D01*
X137514286Y-64521485D02*
X138133333Y-64521485D01*
X152357142Y-57654819D02*
X152023809Y-57178628D01*
X151785714Y-57654819D02*
X151785714Y-56654819D01*
X151785714Y-56654819D02*
X152166666Y-56654819D01*
X152166666Y-56654819D02*
X152261904Y-56702438D01*
X152261904Y-56702438D02*
X152309523Y-56750057D01*
X152309523Y-56750057D02*
X152357142Y-56845295D01*
X152357142Y-56845295D02*
X152357142Y-56988152D01*
X152357142Y-56988152D02*
X152309523Y-57083390D01*
X152309523Y-57083390D02*
X152261904Y-57131009D01*
X152261904Y-57131009D02*
X152166666Y-57178628D01*
X152166666Y-57178628D02*
X151785714Y-57178628D01*
X153309523Y-57654819D02*
X152738095Y-57654819D01*
X153023809Y-57654819D02*
X153023809Y-56654819D01*
X153023809Y-56654819D02*
X152928571Y-56797676D01*
X152928571Y-56797676D02*
X152833333Y-56892914D01*
X152833333Y-56892914D02*
X152738095Y-56940533D01*
X153928571Y-56654819D02*
X154023809Y-56654819D01*
X154023809Y-56654819D02*
X154119047Y-56702438D01*
X154119047Y-56702438D02*
X154166666Y-56750057D01*
X154166666Y-56750057D02*
X154214285Y-56845295D01*
X154214285Y-56845295D02*
X154261904Y-57035771D01*
X154261904Y-57035771D02*
X154261904Y-57273866D01*
X154261904Y-57273866D02*
X154214285Y-57464342D01*
X154214285Y-57464342D02*
X154166666Y-57559580D01*
X154166666Y-57559580D02*
X154119047Y-57607200D01*
X154119047Y-57607200D02*
X154023809Y-57654819D01*
X154023809Y-57654819D02*
X153928571Y-57654819D01*
X153928571Y-57654819D02*
X153833333Y-57607200D01*
X153833333Y-57607200D02*
X153785714Y-57559580D01*
X153785714Y-57559580D02*
X153738095Y-57464342D01*
X153738095Y-57464342D02*
X153690476Y-57273866D01*
X153690476Y-57273866D02*
X153690476Y-57035771D01*
X153690476Y-57035771D02*
X153738095Y-56845295D01*
X153738095Y-56845295D02*
X153785714Y-56750057D01*
X153785714Y-56750057D02*
X153833333Y-56702438D01*
X153833333Y-56702438D02*
X153928571Y-56654819D01*
X131066666Y-66231009D02*
X130733333Y-66231009D01*
X130733333Y-66754819D02*
X130733333Y-65754819D01*
X130733333Y-65754819D02*
X131209523Y-65754819D01*
X132114285Y-66754819D02*
X131542857Y-66754819D01*
X131828571Y-66754819D02*
X131828571Y-65754819D01*
X131828571Y-65754819D02*
X131733333Y-65897676D01*
X131733333Y-65897676D02*
X131638095Y-65992914D01*
X131638095Y-65992914D02*
X131542857Y-66040533D01*
D11*
%TO.C,J3*%
X157630000Y-67270000D02*
X154970000Y-67270000D01*
X157630000Y-72410000D02*
X157630000Y-67270000D01*
X157630000Y-73680000D02*
X157630000Y-75010000D01*
X154970000Y-72410000D02*
X154970000Y-67270000D01*
X157630000Y-75010000D02*
X156300000Y-75010000D01*
X157630000Y-72410000D02*
X154970000Y-72410000D01*
%TO.C,U3*%
X135000000Y-71990000D02*
X131400000Y-71990000D01*
X135000000Y-71990000D02*
X137200000Y-71990000D01*
X135000000Y-75210000D02*
X132800000Y-75210000D01*
X135000000Y-75210000D02*
X137200000Y-75210000D01*
%TO.C,R3*%
X133977500Y-62437258D02*
X133977500Y-61962742D01*
X135022500Y-62437258D02*
X135022500Y-61962742D01*
%TO.C,R8*%
X149222500Y-54962742D02*
X149222500Y-55437258D01*
X148177500Y-54962742D02*
X148177500Y-55437258D01*
%TO.C,R11*%
X130172936Y-48765000D02*
X130627064Y-48765000D01*
X130172936Y-50235000D02*
X130627064Y-50235000D01*
%TO.C,R9*%
X128522500Y-58162742D02*
X128522500Y-58637258D01*
X127477500Y-58162742D02*
X127477500Y-58637258D01*
%TO.C,Q1*%
X146937500Y-57840000D02*
X145262500Y-57840000D01*
X146937500Y-57840000D02*
X147587500Y-57840000D01*
X146937500Y-60960000D02*
X146287500Y-60960000D01*
X146937500Y-60960000D02*
X147587500Y-60960000D01*
%TO.C,D3*%
X147740000Y-51985000D02*
X149660000Y-51985000D01*
X149660000Y-51985000D02*
X149660000Y-49300000D01*
X147740000Y-49300000D02*
X147740000Y-51985000D01*
%TO.C,R6*%
X145422500Y-54962742D02*
X145422500Y-55437258D01*
X144377500Y-54962742D02*
X144377500Y-55437258D01*
%TO.C,C4*%
X143110000Y-64359420D02*
X143110000Y-64640580D01*
X142090000Y-64359420D02*
X142090000Y-64640580D01*
%TO.C,D2*%
X143940000Y-51985000D02*
X145860000Y-51985000D01*
X145860000Y-51985000D02*
X145860000Y-49300000D01*
X143940000Y-49300000D02*
X143940000Y-51985000D01*
%TO.C,R7*%
X142322500Y-69762742D02*
X142322500Y-70237258D01*
X141277500Y-69762742D02*
X141277500Y-70237258D01*
%TO.C,Q2*%
X152640000Y-62000000D02*
X152640000Y-63675000D01*
X152640000Y-62000000D02*
X152640000Y-61350000D01*
X155760000Y-62000000D02*
X155760000Y-62650000D01*
X155760000Y-62000000D02*
X155760000Y-61350000D01*
%TO.C,R2*%
X140852064Y-52210000D02*
X136497936Y-52210000D01*
X140852064Y-48790000D02*
X136497936Y-48790000D01*
%TO.C,C3*%
X135010000Y-67959420D02*
X135010000Y-68240580D01*
X133990000Y-67959420D02*
X133990000Y-68240580D01*
%TO.C,U2*%
X138400000Y-69460000D02*
X140200000Y-69460000D01*
X138400000Y-69460000D02*
X137600000Y-69460000D01*
X138400000Y-66340000D02*
X139200000Y-66340000D01*
X138400000Y-66340000D02*
X137600000Y-66340000D01*
%TO.C,R12*%
X127027064Y-50235000D02*
X126572936Y-50235000D01*
X127027064Y-48765000D02*
X126572936Y-48765000D01*
%TO.C,C2*%
X132265000Y-58761252D02*
X132265000Y-58238748D01*
X133735000Y-58761252D02*
X133735000Y-58238748D01*
%TO.C,R1*%
X138912258Y-51022500D02*
X138437742Y-51022500D01*
X138912258Y-49977500D02*
X138437742Y-49977500D01*
%TO.C,U4*%
X145600000Y-63200000D02*
X145600000Y-63300000D01*
X145600000Y-63200000D02*
X148400000Y-63200000D01*
X145600000Y-65100000D02*
X145600000Y-64600000D01*
X145600000Y-65900000D02*
X145600000Y-66000000D01*
X145600000Y-66000000D02*
X148400000Y-66000000D01*
X148400000Y-63200000D02*
X148400000Y-63300000D01*
X148400000Y-65900000D02*
X148400000Y-66000000D01*
D10*
X146275000Y-63700000D02*
G75*
G03*
X146275000Y-63700000I-75000J0D01*
G01*
D11*
%TO.C,U1*%
X138700000Y-54410000D02*
X135175000Y-54410000D01*
X138700000Y-54410000D02*
X140580000Y-54410000D01*
X138700000Y-59590000D02*
X136820000Y-59590000D01*
X138700000Y-59590000D02*
X140580000Y-59590000D01*
%TO.C,R5*%
X156777500Y-56837258D02*
X156777500Y-56362742D01*
X157822500Y-56837258D02*
X157822500Y-56362742D01*
%TO.C,C1*%
X140538748Y-60665000D02*
X141061252Y-60665000D01*
X140538748Y-62135000D02*
X141061252Y-62135000D01*
%TO.C,R4*%
X136777500Y-62437258D02*
X136777500Y-61962742D01*
X137822500Y-62437258D02*
X137822500Y-61962742D01*
%TO.C,R10*%
X153237258Y-56322500D02*
X152762742Y-56322500D01*
X153237258Y-55277500D02*
X152762742Y-55277500D01*
%TO.C,F1*%
X130490000Y-63902064D02*
X130490000Y-62697936D01*
X132310000Y-63902064D02*
X132310000Y-62697936D01*
%TD*%
M02*
